<svg width="55" height="55" viewBox="0 0 55 55" fill="none" xmlns="http://www.w3.org/2000/svg">
<path d="M32.6035 9.39941C32.6035 6.58593 30.3145 4.29688 27.501 4.29688C24.6875 4.29688 22.3984 6.58593 22.3984 9.39941C22.3984 12.2129 24.6874 14.502 27.501 14.502C30.3146 14.502 32.6035 12.2129 32.6035 9.39941ZM24.0098 9.39941C24.0098 7.47441 25.576 5.9082 27.501 5.9082C29.4261 5.9082 30.9922 7.47441 30.9922 9.39941C30.9922 11.3244 29.4261 12.8906 27.501 12.8906C25.5759 12.8906 24.0098 11.3244 24.0098 9.39941Z" fill="#D83339"/>
<path d="M54.6612 24.2664L50.2827 17.9914C49.9313 17.488 49.3549 17.1874 48.741 17.1874C48.127 17.1874 47.5507 17.488 47.1992 17.9914L42.8207 24.2663C42.5072 24.7156 42.4051 25.2777 42.5409 25.8083C42.6766 26.3388 43.0357 26.7825 43.5263 27.0261C43.8372 27.1803 44.1941 27.342 44.5882 27.4973C44.1986 30.7638 42.8915 33.8244 40.787 36.3766C40.5039 36.7199 40.5527 37.2277 40.896 37.5108C41.0461 37.6345 41.2277 37.6948 41.4082 37.6948C41.6405 37.6948 41.871 37.5949 42.0302 37.4016C44.265 34.6914 45.6789 31.4571 46.1496 28.0008C46.9435 28.2003 47.8185 28.3337 48.7411 28.3337C49.5407 28.3337 50.305 28.2336 51.0114 28.0771C49.8498 38.477 41.8518 46.9756 31.5283 48.7486V43.8244C34.5176 43.1716 37.322 41.7861 39.6685 39.7963C40.0079 39.5085 40.0498 39 39.7619 38.6607C39.4742 38.3214 38.9657 38.2796 38.6264 38.5672C36.571 40.3103 34.1315 41.5445 31.5283 42.17V27.3926H33.9452C35.574 27.3926 36.8993 26.0674 36.8993 24.4385C36.8993 22.8095 35.574 21.4844 33.9452 21.4844H31.5282V17.8907C34.701 16.3794 36.8993 13.1415 36.8993 9.39941C36.8993 4.21652 32.6828 0 27.4999 0C23.0541 0 19.1814 3.1567 18.2915 7.506C18.2022 7.94191 18.4833 8.36763 18.9193 8.45679C19.3552 8.54616 19.7809 8.26493 19.87 7.82901C20.6073 4.22619 23.8161 1.61133 27.4999 1.61133C31.7943 1.61133 35.288 5.10501 35.288 9.39941C35.288 13.6938 31.7942 17.1875 27.4999 17.1875C23.7618 17.1875 20.544 14.5267 19.8485 10.8607C19.7655 10.4236 19.3442 10.1365 18.9067 10.2193C18.4696 10.3022 18.1823 10.7238 18.2653 11.161C18.8384 14.1819 20.8303 16.6364 23.4715 17.8909V21.4844H21.0546C19.4256 21.4844 18.1005 22.8095 18.1005 24.4385C18.1005 26.0674 19.4256 27.3926 21.0546 27.3926H23.4716V42.1716C16.5402 40.5061 11.2619 34.6082 10.4098 27.4981C10.8046 27.3426 11.1621 27.1806 11.4734 27.0262C11.9639 26.7827 12.3231 26.3389 12.4588 25.8085C12.5946 25.2779 12.4925 24.7158 12.179 24.2664L7.80045 17.9916C7.44907 17.4881 6.87275 17.1875 6.25873 17.1875C5.64481 17.1875 5.06849 17.4881 4.71712 17.9916L0.338601 24.2664C0.0250361 24.7157 -0.0770147 25.2779 0.0587666 25.8084C0.19444 26.3389 0.553552 26.7826 1.04415 27.0262C1.41078 27.2081 1.84122 27.4005 2.32193 27.5804C2.79942 33.2364 5.20234 38.619 9.10874 42.7633C12.927 46.814 18.0085 49.5053 23.4716 50.3831V50.9717C23.4716 53.1929 25.2786 55 27.4999 55C29.7212 55 31.5282 53.1929 31.5282 50.9717V50.3831C37.0114 49.5021 42.1069 46.7961 45.9303 42.7216C49.8151 38.5815 52.2017 33.218 52.6781 27.5802C53.1587 27.4004 53.589 27.208 53.9558 27.0262C54.4461 26.7827 54.8054 26.3389 54.941 25.8085C55.0768 25.2778 54.9747 24.7158 54.6612 24.2664ZM25.0829 18.4827C25.8572 18.6887 26.6677 18.7988 27.4999 18.7988C28.3353 18.7988 29.1453 18.6887 29.9169 18.4832V21.4844H25.0829V18.4827ZM19.7118 24.4385C19.7118 23.698 20.3141 23.0957 21.0546 23.0957H33.9452C34.6857 23.0957 35.288 23.698 35.288 24.4385C35.288 25.1789 34.6856 25.7812 33.9452 25.7812H27.4999H21.0546C20.3141 25.7812 19.7118 25.1789 19.7118 24.4385ZM1.61982 25.4091C1.60843 25.3646 1.59855 25.2767 1.66 25.1885L6.03851 18.9137C6.10823 18.8138 6.20641 18.7988 6.25873 18.7988C6.31104 18.7988 6.40922 18.8138 6.47894 18.9137L10.8575 25.1885C10.919 25.2767 10.909 25.3647 10.8976 25.4092C10.8862 25.4537 10.8528 25.5353 10.7571 25.5828C9.70912 26.1028 8.07802 26.7227 6.25873 26.7227C4.43932 26.7227 2.80823 26.1029 1.76044 25.5828C1.66462 25.5353 1.63121 25.4536 1.61982 25.4091ZM3.98933 28.0775C4.69552 28.2339 5.45951 28.3339 6.25883 28.3339C7.18116 28.3339 8.05622 28.2005 8.85007 28.001C9.36881 31.8214 11.0222 35.3322 13.6573 38.1902C16.2661 41.0198 19.7341 43.0061 23.4717 43.8243V48.7487C13.1626 46.977 5.15089 38.4708 3.98933 28.0775ZM27.4999 53.3887C26.1671 53.3887 25.0829 52.3045 25.0829 50.9717V27.3926H29.9169V50.9717C29.9169 52.3045 28.8326 53.3887 27.4999 53.3887ZM53.38 25.4092C53.3686 25.4537 53.3352 25.5353 53.2394 25.5828C52.1915 26.1028 50.5604 26.7227 48.741 26.7227C46.9216 26.7227 45.2905 26.1028 44.2426 25.583C44.1467 25.5354 44.1134 25.4537 44.1019 25.4092C44.0907 25.3647 44.0807 25.2768 44.1421 25.1886L48.5206 18.9138C48.5904 18.8138 48.6885 18.7988 48.741 18.7988C48.7934 18.7988 48.8915 18.8138 48.9613 18.9137L53.3398 25.1885C53.4012 25.2767 53.3913 25.3647 53.38 25.4092Z" fill="#1C79CE"/>
</svg>
