<svg width="13" height="14" viewBox="0 0 13 14" fill="none" xmlns="http://www.w3.org/2000/svg">
<path fill-rule="evenodd" clip-rule="evenodd" d="M8.14689 6.64592C8.19334 6.59935 8.24852 6.56241 8.30926 6.5372C8.37001 6.512 8.43513 6.49902 8.50089 6.49902C8.56666 6.49902 8.63178 6.512 8.69253 6.5372C8.75327 6.56241 8.80845 6.59935 8.85489 6.64592L11.8549 9.64592C11.9015 9.69236 11.9384 9.74754 11.9636 9.80828C11.9888 9.86903 12.0018 9.93415 12.0018 9.99992C12.0018 10.0657 11.9888 10.1308 11.9636 10.1916C11.9384 10.2523 11.9015 10.3075 11.8549 10.3539L8.85489 13.3539C8.76101 13.4478 8.63367 13.5005 8.50089 13.5005C8.36812 13.5005 8.24078 13.4478 8.14689 13.3539C8.05301 13.26 8.00026 13.1327 8.00026 12.9999C8.00026 12.8671 8.05301 12.7398 8.14689 12.6459L10.7939 9.99992L8.14689 7.35392C8.10033 7.30747 8.06339 7.2523 8.03818 7.19155C8.01297 7.13081 8 7.06568 8 6.99992C8 6.93415 8.01297 6.86903 8.03818 6.80828C8.06339 6.74754 8.10033 6.69236 8.14689 6.64592Z" fill="white"/>
<path fill-rule="evenodd" clip-rule="evenodd" d="M0.000893831 9.99992C0.000893831 9.86731 0.0535723 9.74013 0.147341 9.64636C0.241109 9.5526 0.368286 9.49992 0.500894 9.49992H11.0009C11.1335 9.49992 11.2607 9.5526 11.3544 9.64636C11.4482 9.74013 11.5009 9.86731 11.5009 9.99992C11.5009 10.1325 11.4482 10.2597 11.3544 10.3535C11.2607 10.4472 11.1335 10.4999 11.0009 10.4999H0.500894C0.368286 10.4999 0.241109 10.4472 0.147341 10.3535C0.0535723 10.2597 0.000893831 10.1325 0.000893831 9.99992ZM3.85489 0.645917C3.90146 0.692363 3.9384 0.747539 3.96361 0.808284C3.98881 0.869029 4.00179 0.93415 4.00179 0.999917C4.00179 1.06568 3.98881 1.13081 3.96361 1.19155C3.9384 1.2523 3.90146 1.30747 3.85489 1.35392L1.20789 3.99992L3.85489 6.64592C3.90138 6.6924 3.93826 6.74759 3.96342 6.80833C3.98858 6.86907 4.00153 6.93417 4.00153 6.99992C4.00153 7.06566 3.98858 7.13076 3.96342 7.1915C3.93826 7.25224 3.90138 7.30743 3.85489 7.35392C3.80841 7.4004 3.75322 7.43728 3.69248 7.46244C3.63174 7.4876 3.56664 7.50055 3.50089 7.50055C3.43515 7.50055 3.37005 7.4876 3.30931 7.46244C3.24857 7.43728 3.19338 7.4004 3.14689 7.35392L0.146894 4.35392C0.100331 4.30747 0.0633878 4.2523 0.0381813 4.19155C0.0129749 4.13081 0 4.06568 0 3.99992C0 3.93415 0.0129749 3.86903 0.0381813 3.80828C0.0633878 3.74754 0.100331 3.69236 0.146894 3.64592L3.14689 0.645917C3.19334 0.599354 3.24851 0.562411 3.30926 0.537205C3.37001 0.511998 3.43513 0.499023 3.50089 0.499023C3.56666 0.499023 3.63178 0.511998 3.69253 0.537205C3.75327 0.562411 3.80845 0.599354 3.85489 0.645917Z" fill="white"/>
<path fill-rule="evenodd" clip-rule="evenodd" d="M0.5 4C0.5 3.86739 0.552679 3.74021 0.646447 3.64645C0.740215 3.55268 0.867392 3.5 1 3.5H11.5C11.6326 3.5 11.7598 3.55268 11.8536 3.64645C11.9473 3.74021 12 3.86739 12 4C12 4.13261 11.9473 4.25979 11.8536 4.35355C11.7598 4.44732 11.6326 4.5 11.5 4.5H1C0.867392 4.5 0.740215 4.44732 0.646447 4.35355C0.552679 4.25979 0.5 4.13261 0.5 4Z" fill="white"/>
</svg>
