<svg width="165" height="141" viewBox="0 0 165 141" fill="none" xmlns="http://www.w3.org/2000/svg">
<path d="M165 18.8189C165 18.3222 164.735 17.8628 164.304 17.6141L134.862 0.615189C134.431 0.366494 133.901 0.366841 133.471 0.614492L22.3693 64.6664C21.9387 64.9151 21.6733 65.3742 21.673 65.8716V75.0142L3.96172 85.107C3.59442 85.3164 3.34781 85.6792 3.27999 86.0886L0.0678258 105.435C0.0250434 105.57 0 105.711 0 105.856V122.185C0 122.682 0.26539 123.141 0.695649 123.39L30.1362 140.385C30.3515 140.51 30.5919 140.572 30.8319 140.572C31.0719 140.572 31.3122 140.51 31.5275 140.385C31.5303 140.384 44.4242 133.059 44.4242 133.059C44.6628 134.828 45.484 136.29 46.8763 137.094C47.597 137.51 48.3935 137.708 49.2238 137.708C51.8648 137.708 54.8429 135.706 56.7723 132.365C57.9236 130.37 58.5166 128.19 58.4422 126.225C58.4269 125.819 58.3747 125.435 58.3048 125.065L81.9527 111.413C82.2296 113.08 83.0438 114.45 84.3763 115.219C85.097 115.635 85.8935 115.833 86.7238 115.833C89.3648 115.833 92.3429 113.831 94.2723 110.49C95.0601 109.126 95.5791 107.675 95.809 106.266C96.2163 106.925 96.7519 107.476 97.4277 107.867C98.1484 108.283 98.945 108.48 99.7752 108.48C102.416 108.48 105.394 106.478 107.324 103.137C108.475 101.143 109.068 98.9623 108.994 96.9977C108.979 96.6068 108.93 96.2381 108.865 95.8805L110.388 95.0016C110.818 94.7529 111.083 94.2938 111.083 93.7964V84.6921L119.663 79.7463C119.663 79.7463 127.656 84.3352 127.683 84.3505C127.897 84.4733 128.136 84.5345 128.374 84.5345C128.618 84.5345 128.861 84.4708 129.078 84.3435L131.741 82.7829C132.024 84.4955 132.857 85.8246 134.155 86.5741C134.868 86.9863 135.662 87.1912 136.503 87.1912C137.481 87.1912 138.521 86.9136 139.568 86.3606C141.307 85.4423 142.899 83.8385 144.05 81.8444C144.858 80.4451 145.368 79.0051 145.594 77.6347C146.005 78.2949 146.541 78.8375 147.206 79.2211C147.919 79.6333 148.713 79.8382 149.554 79.8382C150.532 79.8382 151.572 79.5606 152.62 79.0076C154.358 78.0893 155.95 76.4855 157.102 74.4914C158.546 71.9899 159.042 69.3568 158.649 67.2306L160.165 66.3554C160.596 66.1068 160.861 65.6476 160.861 65.1502V55.9955L164.303 54.0111C164.734 53.7624 164.999 53.303 164.999 52.8056L165 18.8189ZM134.166 3.42631L160.825 18.8179L52.5048 81.2618L25.8482 65.8727L134.166 3.42631ZM24.4555 68.2817L51.1132 83.6715V90.4183L24.4555 75.026V68.2817ZM23.0542 77.4302L49.7024 92.8169L34.0955 101.708L7.44692 86.3241L23.0542 77.4302ZM22.0573 132.509L10.1659 125.644V120.443L22.0573 127.308V132.509ZM24.1442 125.3L9.47022 116.829C9.03961 116.58 8.50918 116.58 8.07892 116.829C7.64831 117.077 7.38327 117.537 7.38327 118.034V118.091L2.7826 115.325V108.266L29.4406 123.656L29.4402 131.005L24.8399 128.238V126.505C24.8399 126.008 24.5745 125.549 24.1442 125.3ZM32.0291 107.4L5.13841 91.8753L5.69424 88.5247L32.5658 104.038L32.0291 107.4ZM31.5592 110.341L29.9032 120.71L2.93703 105.142L4.65181 94.8072L31.5592 110.341ZM35.3595 104.191L39.1205 102.048V116.47L32.8169 120.11L35.3595 104.191ZM2.7826 118.572L7.38327 121.338V124.038L2.7826 121.382V118.572ZM24.8399 134.116V131.486L29.4402 134.253V136.771L24.8399 134.116ZM46.0245 126.159C46.0242 126.159 46.0242 126.159 46.0245 126.159C45.3362 127.352 44.8697 128.573 44.605 129.756L32.2235 136.789V123.665L41.2078 118.478C41.6384 118.23 41.9035 117.77 41.9035 117.273V100.463L51.1132 95.2158V121.356C50.9114 121.442 50.7093 121.536 50.5066 121.643C48.7678 122.561 47.1758 124.165 46.0245 126.159ZM54.3622 130.973C52.517 134.168 49.669 135.494 48.2676 134.685C46.8659 133.875 46.5894 130.746 48.4342 127.551C49.3142 126.027 50.5431 124.771 51.8057 124.104C52.4266 123.776 53.6057 123.307 54.5292 123.839C55.4526 124.373 55.6349 125.629 55.6617 126.33C55.7152 127.757 55.2419 129.449 54.3622 130.973ZM55.9201 121.43C55.2992 121.071 54.6161 120.872 53.8954 120.826V117.66L68.6821 109.135V115.861L57.1685 122.508C56.8168 122.077 56.4046 121.709 55.9201 121.43ZM91.8619 109.098C90.0167 112.293 87.169 113.618 85.7673 112.81C84.3655 112 84.089 108.871 85.9339 105.676C86.8135 104.152 88.0424 102.895 89.305 102.229C89.7231 102.008 90.3941 101.723 91.0699 101.723C91.3975 101.723 91.7266 101.79 92.0281 101.964C92.9516 102.498 93.1342 103.754 93.1606 104.455C93.2153 105.882 92.7419 107.575 91.8619 109.098ZM104.913 101.746C103.068 104.941 100.22 106.266 98.8187 105.457C97.4166 104.647 97.1405 101.518 98.9853 98.323C99.865 96.7991 101.094 95.5428 102.356 94.8764C102.775 94.6555 103.445 94.3706 104.121 94.3706C104.449 94.3706 104.778 94.4378 105.08 94.6117C106.003 95.1449 106.186 96.4012 106.212 97.1024C106.267 98.5296 105.793 100.222 104.913 101.746ZM108.3 92.9926L107.747 93.3122C107.39 92.8677 106.968 92.4889 106.472 92.2019C104.929 91.3105 103.006 91.3866 101.058 92.4152C99.3189 93.3334 97.7272 94.9372 96.5756 96.9313C95.8758 98.1431 95.4059 99.3845 95.1436 100.586L94.7954 100.787C94.4201 100.287 93.9627 99.868 93.4201 99.5546C91.8772 98.6635 89.9547 98.7393 88.0062 99.7678C86.2674 100.686 84.6758 102.29 83.5245 104.284C82.785 105.565 82.3005 106.879 82.049 108.144L71.4647 114.254V107.531L108.3 86.2955L108.3 92.9926ZM122.447 78.1408L126.982 75.5262V80.7596L122.447 78.1408ZM141.64 80.4531C140.761 81.977 139.532 83.2333 138.269 83.8997C137.648 84.2274 136.47 84.6969 135.546 84.1644C134.622 83.6312 134.44 82.3749 134.413 81.6736C134.359 80.2465 134.833 78.5544 135.712 77.0305C137.558 73.8354 140.405 72.5102 141.807 73.3192C143.209 74.1286 143.485 77.2577 141.64 80.4531ZM154.692 73.1001C153.812 74.6239 152.583 75.8803 151.321 76.5467C150.7 76.874 149.521 77.3439 148.597 76.8114C147.674 76.2782 147.492 75.0218 147.465 74.3206C147.411 72.8935 147.884 71.2013 148.764 69.6775C150.609 66.4824 153.456 65.1565 154.858 65.9662C156.26 66.776 156.537 69.905 154.692 73.1001ZM158.079 64.3471L157.524 64.6671C157.171 64.2254 156.75 63.8455 156.25 63.5565C153.237 61.8167 148.89 63.8949 146.354 68.2862C145.673 69.4667 145.193 70.7123 144.925 71.9398L144.575 72.1419C144.204 71.6448 143.746 71.2253 143.199 70.9095C140.185 69.1697 135.839 71.2479 133.303 75.6392C132.582 76.889 132.08 78.2117 131.824 79.5091L129.766 80.715V73.922L158.079 57.5997L158.079 64.3471ZM53.8954 114.447V83.6719L162.217 21.2269V52.0018L53.8954 114.447Z" fill="#1C79CE"/>
</svg>
