<svg width="155" height="111" viewBox="0 0 155 111" fill="none" xmlns="http://www.w3.org/2000/svg">
<path d="M154.93 93.6528C154.809 93.2983 154.545 93.0105 154.201 92.8601L92.94 66.0582L98.946 62.5918C104.816 59.2058 109.981 54.8496 114.314 49.6427L141.649 50.3621C141.661 50.3624 141.673 50.3624 141.684 50.3624C141.938 50.3624 142.186 50.29 142.4 50.154L147.673 46.799C148.129 46.5085 148.365 45.9709 148.27 45.438C148.174 44.905 147.766 44.4832 147.237 44.3691L121.558 38.8514L125.903 31.5064C126.784 30.0167 126.993 28.2958 126.492 26.6607C126.111 25.4191 125.351 24.3402 124.342 23.5711L132.384 2.77886C132.587 2.25494 132.44 1.66031 132.016 1.29146C131.592 0.922942 130.983 0.859245 130.492 1.13138L115.394 9.51886C115.228 9.61091 115.084 9.7373 114.971 9.88971L102.336 26.9038L95.3455 16.4169C94.944 15.8143 94.1356 15.6419 93.5233 16.0291L88.9687 18.9048C88.5412 19.175 88.303 19.6632 88.3537 20.1665L89.9889 36.3968C82.849 40.5075 74.2224 45.478 65.3173 50.6182L34.2483 23.1069C33.8704 22.7728 33.3362 22.68 32.8686 22.8671C28.8326 24.4816 26.8516 28.9398 28.359 33.0172L34.1402 48.6546L24.7953 54.8683C23.6187 55.585 22.9064 56.9473 22.8427 58.6288C22.7853 60.1429 23.2395 61.8184 24.122 63.3468C25.0044 64.8752 26.2283 66.1065 27.5683 66.8139C28.3801 67.2424 29.2068 67.4578 29.9869 67.4578C30.6659 67.4578 31.3095 67.2944 31.8771 66.9666C31.9095 66.9479 39.0633 61.9735 39.0633 61.9735L40.2293 65.1277C30.5134 70.7622 21.9766 75.7376 16.5319 78.9599C10.4955 82.5323 5.72219 87.6295 2.7277 93.6998C1.7012 95.7809 0.875788 97.9719 0.274157 100.212C-0.465542 102.973 0.312509 105.813 2.35519 107.809C3.84392 109.264 5.76487 110.037 7.75953 110.037C8.49923 110.037 9.24926 109.93 9.99063 109.713C14.9377 108.26 19.8368 106.499 24.5508 104.48C29.2695 102.46 33.9251 100.13 38.3887 97.5534L62.7394 83.4918L84.275 87.5751L80.0886 90.2901C78.9041 91.0045 78.187 92.3718 78.123 94.06C78.0656 95.5741 78.5199 97.2493 79.4023 98.7777C80.89 101.355 83.2022 102.892 85.2715 102.892C85.9372 102.892 86.5775 102.733 87.1575 102.398C87.1902 102.379 103.297 91.1823 103.297 91.1823L145.406 99.1665C145.964 99.2723 146.521 99.3236 147.072 99.3236C150.263 99.3236 153.252 97.6018 154.834 94.725C155.016 94.3968 155.05 94.0077 154.93 93.6528ZM143.496 46.2944L141.312 47.6841L108.329 46.8163C110.596 45.0698 114.485 42.7406 118.145 40.847L143.496 46.2944ZM116.941 11.7113L128.566 5.25342L120.25 26.7537L96.4167 39.3486L116.941 11.7113ZM93.8471 18.9795L100.646 29.1793L99.2391 31.0735C97.2595 32.2124 95.0017 33.5114 92.5235 34.9381L91.0911 20.7204L93.8471 18.9795ZM30.7102 64.5331L30.5121 64.6708C30.1029 64.8862 29.4879 64.8102 28.8143 64.4547C27.9262 63.9861 27.0581 63.096 26.4331 62.0132C25.8078 60.9303 25.471 59.7337 25.509 58.7299C25.5383 57.9501 25.7898 57.3675 26.1986 57.1314C26.3564 57.0407 26.5468 56.9953 26.7616 56.9953C27.1028 56.9953 27.5043 57.1097 27.9282 57.3335C28.8163 57.8021 29.6844 58.6922 30.3093 59.7751C31.4723 61.789 31.4646 63.8437 30.7102 64.5331ZM33.8798 62.329C33.7827 61.083 33.3689 59.7377 32.6202 58.4411C31.7704 56.9693 30.6028 55.7781 29.3212 55.0597L35.0907 51.2255L38.1085 59.3889L33.8798 62.329ZM30.861 32.0917C29.9525 29.6341 30.9497 26.9688 33.1434 25.6925L62.8805 52.0246C56.0281 55.9812 49.0783 59.9992 42.5724 63.77L30.861 32.0917ZM4.76238 106.364C4.57395 106.224 4.39286 106.07 4.22078 105.902C2.87978 104.592 2.36786 102.728 2.84943 100.915C3.28965 100.615 3.80424 100.45 4.3315 100.45C5.86125 100.45 7.1062 101.785 7.1062 103.426C7.10587 104.9 6.08436 106.14 4.76238 106.364ZM37.0557 95.2429C32.6839 97.7662 28.1236 100.049 23.5013 102.027C18.884 104.005 14.0857 105.73 9.24059 107.153C8.90576 107.251 8.56859 107.314 8.23276 107.345C9.18456 106.325 9.77386 104.94 9.77386 103.426C9.77386 100.314 7.33231 97.7819 4.33116 97.7819C4.17042 97.7819 4.01067 97.7895 3.85159 97.8039C4.22778 96.809 4.65132 95.8319 5.12122 94.8797C5.19793 94.7243 5.28063 94.5723 5.35967 94.4182C6.80739 96.1474 9.62712 97.0181 13.7652 97.0181C14.8214 97.0181 15.9633 96.9614 17.1902 96.8481C17.9239 96.78 18.4635 96.1304 18.3955 95.3963C18.3274 94.6623 17.6761 94.1304 16.9441 94.1911C10.3128 94.8067 8.14038 93.5461 7.43537 92.7417C7.03884 92.2895 6.99181 91.8389 7.00215 91.5921C9.72483 87.4267 13.433 83.8936 17.8909 81.2553C33.3345 72.1152 73.6785 48.8607 95.2468 36.4475L90.7663 42.4808C90.3947 42.9811 90.4188 43.6721 90.8246 44.145C91.0851 44.4485 91.4583 44.6105 91.8378 44.6105C92.0496 44.6105 92.263 44.5602 92.4604 44.4558L121.937 28.8788C122.222 28.7287 122.442 28.4809 122.558 28.1808L123.303 26.2555C123.585 26.602 123.806 27.0028 123.94 27.4424C124.219 28.3512 124.1 29.3117 123.606 30.1477L118.808 38.2597L118.239 38.1377C117.939 38.0737 117.626 38.1147 117.352 38.2541C115.406 39.2476 105.62 44.3624 104.064 47.473C103.86 47.8812 103.879 48.3651 104.114 48.7559C104.348 49.1471 104.767 49.3912 105.222 49.4033L110.866 49.5517C107.037 53.8061 102.59 57.4089 97.612 60.2806L89.9038 64.7298L89.0167 64.3416C88.7216 64.2126 88.3898 64.1949 88.0823 64.2913C87.2275 64.5597 67.0455 70.9713 57.8103 80.4499C57.4674 80.8018 57.3457 81.3134 57.4935 81.7819C57.6412 82.2505 58.0347 82.5997 58.5173 82.6914L58.7237 82.7304L37.0557 95.2429ZM85.9869 99.9696L85.8018 100.098C84.8773 100.597 82.9477 99.5807 81.7141 97.4444C81.0888 96.3615 80.7523 95.1649 80.7903 94.1614C80.8197 93.3813 81.0715 92.7987 81.48 92.5626C81.6401 92.4706 81.8315 92.4252 82.0456 92.4252C83.0558 92.4252 84.5645 93.4294 85.5904 95.2062C86.7563 97.2249 86.7463 99.2846 85.9869 99.9696ZM89.1611 97.7628C89.0648 96.5162 88.6506 95.1702 87.9012 93.8723C87.0287 92.3608 85.8722 91.2096 84.6476 90.5136L88.0923 88.2992L99.6266 90.4862L89.1611 97.7628ZM145.905 96.5459L61.6025 80.561C70.2048 73.233 85.538 67.9411 88.4128 66.99L151.632 94.6483C150.204 96.2064 148.054 96.9541 145.905 96.5459Z" fill="#1C79CE"/>
</svg>
