<svg width="155" height="139" viewBox="0 0 155 139" fill="none" xmlns="http://www.w3.org/2000/svg">
<path d="M155 24.1473C155 23.6545 154.737 23.1992 154.31 22.9526L115.979 0.821704C115.552 0.575115 115.026 0.575115 114.6 0.821359L0.690449 66.5058C0.263488 66.752 0 67.7008 0 67.7008V114.856C0 115.349 0.262798 115.805 0.68976 116.051L12.2398 122.719L10.0964 123.944C8.01915 121.315 5.06628 120.228 2.91596 121.469C0.442136 122.897 0.104154 126.787 2.14653 130.325C3.06357 131.913 4.33514 133.192 5.72742 133.927C6.5703 134.372 7.42906 134.596 8.23883 134.596C8.94342 134.596 9.61145 134.426 10.2005 134.086C11.4669 133.355 12.2319 131.914 12.2994 130.133C12.3457 128.91 12.0673 127.587 11.5121 126.312L15.0057 124.315L39.0176 138.178C39.2311 138.301 39.4694 138.362 39.7074 138.362C39.9454 138.362 40.1833 138.301 40.3965 138.178L52.6821 131.094C52.7232 133.761 53.7712 135.914 55.6601 137.004C56.5061 137.492 57.4421 137.725 58.4192 137.724C61.5845 137.724 65.1795 135.288 67.5223 131.233C68.4776 129.579 69.1049 127.835 69.3884 126.161C69.8678 126.922 70.4965 127.545 71.2663 127.989C72.0999 128.471 73.0307 128.71 74.0181 128.71C75.1814 128.71 76.4236 128.378 77.678 127.715C79.7904 126.6 81.7258 124.646 83.1274 122.215C83.7737 121.096 84.2662 119.936 84.6083 118.784L117.579 99.7487C117.898 100.063 118.25 100.341 118.642 100.568C119.476 101.049 120.407 101.289 121.395 101.289C122.558 101.289 123.799 100.957 125.052 100.296C127.164 99.1817 129.1 97.2283 130.504 94.7969C131.457 93.1463 132.084 91.3992 132.368 89.7196C132.847 90.4846 133.478 91.1084 134.248 91.5523C135.081 92.0338 136.013 92.2734 137 92.2734C138.164 92.2734 139.406 91.941 140.66 91.2788C142.773 90.1638 144.709 88.2101 146.114 85.7776C147.973 82.5551 148.59 78.9642 147.83 76.2334L154.31 72.497C154.737 72.2508 155 71.7952 155 71.302L155 24.1473ZM8.82133 131.697C8.39368 131.944 7.73531 131.867 7.01554 131.487C6.09058 130.999 5.18699 130.072 4.5362 128.945C3.24118 126.702 3.3412 124.41 4.29548 123.858C4.46274 123.762 4.66277 123.715 4.8866 123.715C5.94021 123.715 7.51252 124.76 8.58061 126.61C9.2314 127.738 9.58214 128.983 9.54248 130.028C9.51144 130.842 9.24864 131.45 8.82133 131.697ZM152.241 60.8735L138.121 69.0148V42.0586L152.241 33.9174V60.8735ZM118.267 90.0945V83.6473L135.362 73.79V80.2372L118.267 90.0945ZM78.5571 112.991V106.544L95.6527 96.6862V103.133L78.5571 112.991ZM58.6989 124.44V117.993L75.798 108.134V114.581L58.6989 124.44ZM41.0869 134.595V128.148L55.9398 119.584V126.031L41.0869 134.595ZM122.635 16.4044L143.447 28.421L39.7081 88.2356L10.7209 71.5007L106.151 16.4041C111.235 13.4688 117.552 13.4698 122.635 16.4044ZM95.6527 59.1629V63.3608L78.5571 73.2182V69.0203L95.6527 59.1629ZM75.798 74.8087L58.6989 84.6678V80.4703L75.798 70.6112V74.8087ZM55.9398 86.2588L41.0869 94.8228V90.6253L55.9398 82.0612V86.2588ZM41.0869 98.0074L55.9398 89.4434V116.399L41.0869 124.963V98.0074ZM58.6989 87.8524L75.798 77.9934V104.95L58.6989 114.809V87.8524ZM78.5571 76.4028L95.6527 66.5454V93.5016L78.5571 103.359V76.4028ZM98.4118 64.9545L115.507 55.0975V82.0536L98.4118 91.9106V64.9545ZM98.4118 61.7699V57.572L115.507 47.7147V51.9125L98.4118 61.7699ZM118.267 46.1244L135.362 36.2671V40.4649L118.267 50.3219V46.1244ZM38.3279 90.6246V94.8211L2.75904 74.2869V70.0901L38.3279 90.6246ZM2.75904 77.4726L38.3279 98.0071V124.962L2.75904 104.427V77.4726ZM98.4118 95.0953L115.507 85.2383V91.6854L98.4118 101.542V95.0953ZM118.267 80.4627V53.5066L135.362 43.6492V70.6054L118.267 80.4627ZM152.241 30.7328L138.121 38.874V34.6761L152.241 26.5349V30.7328ZM146.208 26.8291L124.015 14.0147C121.725 12.6925 119.221 11.8827 116.668 11.5809V4.40569L150.86 24.1466L146.208 26.8291ZM113.909 4.40431V11.4526C110.744 11.5316 107.595 12.3845 104.772 14.0147L7.96189 69.908L4.13994 67.7015L113.909 4.40431ZM19.9513 119.899C19.5737 119.238 18.7308 119.008 18.0689 119.387L15.0126 121.134L2.75904 114.06V107.613L38.3279 128.148V134.594L17.7786 122.73L19.4381 121.782C20.0996 121.404 20.3293 120.561 19.9513 119.899ZM65.133 129.853C62.9175 133.688 59.211 135.868 57.0397 134.615C55.7222 133.855 55.1701 131.854 55.5712 129.429L66.7153 123.003C67.0495 124.949 66.4863 127.511 65.133 129.853ZM80.7381 120.835C79.5924 122.823 78.048 124.399 76.3898 125.275C75.5497 125.719 73.946 126.35 72.6458 125.6C71.3336 124.842 70.7793 122.849 71.1721 120.433L82.3269 114.001C82.6542 115.944 82.0886 118.498 80.7381 120.835ZM84.818 112.565L115.669 94.7769C115.695 95.7271 115.854 96.6079 116.131 97.3994L85.165 115.278C85.1774 114.314 85.0643 113.399 84.818 112.565ZM128.115 93.4167C126.967 95.4043 125.422 96.9807 123.765 97.8553C122.926 98.2985 121.322 98.9286 120.022 98.1785C118.735 97.4353 118.175 95.4874 118.532 93.126L129.713 86.6788C130.006 88.6136 129.437 91.1291 128.115 93.4167ZM143.724 84.3985C142.576 86.3864 141.031 87.9631 139.372 88.8388C138.532 89.2823 136.929 89.9134 135.627 89.1626C134.344 88.4232 133.784 86.4822 134.135 84.1288L145.324 77.6778C145.609 79.6088 145.04 82.1171 143.724 84.3985ZM138.121 78.6466V72.1994L152.241 64.0582V70.5053L138.121 78.6466Z" fill="#1C79CE"/>
</svg>
