<svg width="100" height="100" viewBox="0 0 100 100" fill="none" xmlns="http://www.w3.org/2000/svg">
<g clip-path="url(#clip0)">
<path d="M91.6667 30H73.3333V21.6667C73.3333 21.6317 73.3146 21.5999 73.313 21.5649C73.304 21.4176 73.2747 21.272 73.2267 21.132C73.208 21.0783 73.195 21.0286 73.1714 20.9766C73.0908 20.7951 72.9777 20.6299 72.8385 20.4883L52.8385 0.488281C52.6978 0.348307 52.5326 0.235189 52.3519 0.154622C52.2982 0.130208 52.2453 0.116374 52.1851 0.0968425C52.0483 0.0504558 51.9067 0.0227865 51.7635 0.0130208C51.7383 0.0187175 51.7049 0 51.6667 0H8.33333C3.73291 0.00569662 0.00569662 3.73291 0 8.33333V85C0.00569662 89.6004 3.73291 93.3276 8.33333 93.3333H43.5002C44.2977 97.2111 47.7083 99.9951 51.6667 100H91.6667C96.2671 99.9943 99.9943 96.2671 100 91.6667V38.3333C99.9943 33.7329 96.2671 30.0057 91.6667 30ZM67.6432 20H55C54.0796 20 53.3333 19.2537 53.3333 18.3333V5.6901L67.6432 20ZM3.33333 85V8.33333C3.33333 5.5721 5.5721 3.33333 8.33333 3.33333H50V18.3333C50 21.0946 52.2388 23.3333 55 23.3333H70V30H51.6667C47.0662 30.0057 43.339 33.7329 43.3333 38.3333V90H8.33333C5.5721 90 3.33333 87.7612 3.33333 85ZM96.6667 91.6667C96.6667 94.4279 94.4279 96.6667 91.6667 96.6667H51.6667C48.9054 96.6667 46.6667 94.4279 46.6667 91.6667V38.3333C46.6667 35.5721 48.9054 33.3333 51.6667 33.3333H91.6667C94.4279 33.3333 96.6667 35.5721 96.6667 38.3333V91.6667Z" fill="white"/>
<path d="M85 36.667H58.3333C53.7329 36.6727 50.0057 40.3999 50 45.0003V51.667C50.0057 56.2674 53.7329 59.9946 58.3333 60.0003H85C89.6004 59.9946 93.3276 56.2674 93.3333 51.667V45.0003C93.3276 40.3999 89.6004 36.6727 85 36.667ZM90 51.667C90 54.4282 87.7612 56.667 85 56.667H58.3333C55.5721 56.667 53.3333 54.4282 53.3333 51.667V45.0003C53.3333 42.2391 55.5721 40.0003 58.3333 40.0003H85C87.7612 40.0003 90 42.2391 90 45.0003V51.667Z" fill="white"/>
<path d="M56.6667 63.333C52.985 63.333 50 66.318 50 69.9997C50 73.6813 52.985 76.6663 56.6667 76.6663C60.3483 76.6663 63.3333 73.6813 63.3333 69.9997C63.3333 66.318 60.3483 63.333 56.6667 63.333ZM56.6667 73.333C54.8258 73.333 53.3333 71.8405 53.3333 69.9997C53.3333 68.1589 54.8258 66.6663 56.6667 66.6663C58.5075 66.6663 60 68.1589 60 69.9997C60 71.8405 58.5075 73.333 56.6667 73.333Z" fill="white"/>
<path d="M71.6667 63.333C67.985 63.333 65 66.318 65 69.9997C65 73.6813 67.985 76.6663 71.6667 76.6663C75.3483 76.6663 78.3333 73.6813 78.3333 69.9997C78.3333 66.318 75.3483 63.333 71.6667 63.333ZM71.6667 73.333C69.8258 73.333 68.3333 71.8405 68.3333 69.9997C68.3333 68.1589 69.8258 66.6663 71.6667 66.6663C73.5075 66.6663 75 68.1589 75 69.9997C75 71.8405 73.5075 73.333 71.6667 73.333Z" fill="white"/>
<path d="M56.6667 80C52.985 80 50 82.985 50 86.6667C50 90.3483 52.985 93.3333 56.6667 93.3333C60.3483 93.3333 63.3333 90.3483 63.3333 86.6667C63.3333 82.985 60.3483 80 56.6667 80ZM56.6667 90C54.8258 90 53.3333 88.5075 53.3333 86.6667C53.3333 84.8258 54.8258 83.3333 56.6667 83.3333C58.5075 83.3333 60 84.8258 60 86.6667C60 88.5075 58.5075 90 56.6667 90Z" fill="white"/>
<path d="M71.6667 80C67.985 80 65 82.985 65 86.6667C65 90.3483 67.985 93.3333 71.6667 93.3333C75.3483 93.3333 78.3333 90.3483 78.3333 86.6667C78.3333 82.985 75.3483 80 71.6667 80ZM71.6667 90C69.8258 90 68.3333 88.5075 68.3333 86.6667C68.3333 84.8258 69.8258 83.3333 71.6667 83.3333C73.5075 83.3333 75 84.8258 75 86.6667C75 88.5075 73.5075 90 71.6667 90Z" fill="white"/>
<path d="M86.6667 63.333C82.985 63.333 80 66.318 80 69.9997V86.6663C80 90.348 82.985 93.333 86.6667 93.333C90.3483 93.333 93.3333 90.348 93.3333 86.6663V69.9997C93.3333 66.318 90.3483 63.333 86.6667 63.333ZM90 86.6663C90 88.5072 88.5075 89.9997 86.6667 89.9997C84.8258 89.9997 83.3333 88.5072 83.3333 86.6663V69.9997C83.3333 68.1589 84.8258 66.6663 86.6667 66.6663C88.5075 66.6663 90 68.1589 90 69.9997V86.6663Z" fill="white"/>
</g>
<defs>
<clipPath id="clip0">
<rect width="100" height="100" fill="white"/>
</clipPath>
</defs>
</svg>
