<svg width="155" height="155" viewBox="0 0 155 155" fill="none" xmlns="http://www.w3.org/2000/svg">
<g clip-path="url(#clip0)">
<path d="M155 32.5106C155 32.0177 154.737 31.5625 154.31 31.3159L115.979 9.18498C115.552 8.9384 115.026 8.9384 114.6 9.18464L0.690449 74.8691C0.263488 75.1153 0 76.0641 0 76.0641V123.219C0 123.712 0.262798 124.168 0.68976 124.414L12.2398 131.082L10.0964 132.307C8.01915 129.679 5.06628 128.592 2.91596 129.832C0.442136 131.261 0.104154 135.15 2.14653 138.688C3.06357 140.276 4.33514 141.556 5.72742 142.291C6.5703 142.736 7.42906 142.959 8.23883 142.959C8.94342 142.959 9.61145 142.79 10.2005 142.449C11.4669 141.718 12.2319 140.278 12.2994 138.496C12.3457 137.273 12.0673 135.95 11.5121 134.675L15.0057 132.678L39.0176 146.541C39.2311 146.664 39.4694 146.726 39.7074 146.726C39.9454 146.726 40.1833 146.664 40.3965 146.541L52.6821 139.457C52.7232 142.124 53.7712 144.277 55.6601 145.367C56.5061 145.856 57.4421 146.088 58.4192 146.088C61.5845 146.088 65.1795 143.652 67.5223 139.597C68.4776 137.943 69.1049 136.199 69.3884 134.524C69.8678 135.285 70.4965 135.908 71.2663 136.352C72.0999 136.834 73.0307 137.074 74.0181 137.074C75.1814 137.074 76.4236 136.741 77.678 136.078C79.7904 134.963 81.7258 133.01 83.1274 130.578C83.7737 129.459 84.2662 128.3 84.6083 127.148L117.579 108.112C117.898 108.427 118.25 108.704 118.642 108.931C119.476 109.413 120.407 109.653 121.395 109.653C122.558 109.653 123.799 109.32 125.052 108.659C127.164 107.545 129.1 105.592 130.504 103.16C131.457 101.51 132.084 99.7625 132.368 98.0829C132.847 98.8478 133.478 99.4717 134.248 99.9156C135.081 100.397 136.013 100.637 137 100.637C138.164 100.637 139.406 100.304 140.66 99.6421C142.773 98.5271 144.709 96.5734 146.114 94.1409C147.973 90.9184 148.59 87.3275 147.83 84.5967L154.31 80.8603C154.737 80.6141 155 80.1585 155 79.6653L155 32.5106ZM8.82133 140.06C8.39368 140.308 7.73531 140.231 7.01554 139.851C6.09058 139.363 5.18699 138.436 4.5362 137.308C3.24118 135.065 3.3412 132.773 4.29548 132.221C4.46274 132.125 4.66277 132.078 4.8866 132.078C5.94021 132.078 7.51252 133.123 8.58061 134.974C9.2314 136.101 9.58214 137.347 9.54248 138.392C9.51144 139.205 9.24864 139.814 8.82133 140.06ZM152.241 69.2368L138.121 77.378V50.4219L152.241 42.2807V69.2368ZM118.267 98.4578V92.0106L135.362 82.1533V88.6004L118.267 98.4578ZM78.5571 121.354V114.907L95.6527 105.049V111.497L78.5571 121.354ZM58.6989 132.804V126.356L75.798 116.497V122.944L58.6989 132.804ZM41.0869 142.959V136.511L55.9398 127.947V134.394L41.0869 142.959ZM122.635 24.7677L143.447 36.7843L39.7081 96.5989L10.7209 79.8639L106.151 24.7673C111.235 21.8321 117.552 21.8331 122.635 24.7677ZM95.6527 67.5262V71.7241L78.5571 81.5814V77.3836L95.6527 67.5262ZM75.798 83.172L58.6989 93.0311V88.8336L75.798 78.9745V83.172ZM55.9398 94.622L41.0869 103.186V98.9886L55.9398 90.4245V94.622ZM41.0869 106.371L55.9398 97.8066V124.762L41.0869 133.327V106.371ZM58.6989 96.2157L75.798 86.3566V113.313L58.6989 123.172V96.2157ZM78.5571 84.7661L95.6527 74.9087V101.865L78.5571 111.722V84.7661ZM98.4118 73.3178L115.507 63.4608V90.4169L98.4118 100.274V73.3178ZM98.4118 70.1332V65.9353L115.507 56.0779V60.2758L98.4118 70.1332ZM118.267 54.4877L135.362 44.6303V48.8282L118.267 58.6852V54.4877ZM38.3279 98.9879V103.184L2.75904 82.6502V78.4534L38.3279 98.9879ZM2.75904 85.8359L38.3279 106.37V133.325L2.75904 112.791V85.8359ZM98.4118 103.459L115.507 93.6015V100.049L98.4118 109.906V103.459ZM118.267 88.826V61.8698L135.362 52.0125V78.9686L118.267 88.826ZM152.241 39.0961L138.121 47.2373V43.0394L152.241 34.8982V39.0961ZM146.208 35.1924L124.015 22.378C121.725 21.0557 119.221 20.246 116.668 19.9442V12.769L150.86 32.5099L146.208 35.1924ZM113.909 12.7676V19.8159C110.744 19.8949 107.595 20.7478 104.772 22.378L7.96189 78.2713L4.13994 76.0648L113.909 12.7676ZM19.9513 128.263C19.5737 127.601 18.7308 127.371 18.0689 127.75L15.0126 129.497L2.75904 122.423V115.977L38.3279 136.511V142.957L17.7786 131.094L19.4381 130.145C20.0996 129.767 20.3293 128.924 19.9513 128.263ZM65.133 138.217C62.9175 142.051 59.211 144.231 57.0397 142.978C55.7222 142.218 55.1701 140.217 55.5712 137.792L66.7153 131.367C67.0495 133.312 66.4863 135.874 65.133 138.217ZM80.7381 129.199C79.5924 131.186 78.048 132.763 76.3898 133.638C75.5497 134.082 73.946 134.713 72.6458 133.963C71.3336 133.205 70.7793 131.212 71.1721 128.797L82.3269 122.365C82.6542 124.307 82.0886 126.862 80.7381 129.199ZM84.818 120.928L115.669 103.14C115.695 104.09 115.854 104.971 116.131 105.763L85.165 123.641C85.1774 122.678 85.0643 121.762 84.818 120.928ZM128.115 101.78C126.967 103.768 125.422 105.344 123.765 106.219C122.926 106.662 121.322 107.292 120.022 106.542C118.735 105.799 118.175 103.851 118.532 101.489L129.713 95.0421C130.006 96.9769 129.437 99.4924 128.115 101.78ZM143.724 92.7617C142.576 94.7496 141.031 96.3264 139.372 97.2021C138.532 97.6456 136.929 98.2767 135.627 97.5259C134.344 96.7865 133.784 94.8455 134.135 92.4921L145.324 86.0411C145.609 87.9721 145.04 90.4804 143.724 92.7617ZM138.121 87.0098V80.5627L152.241 72.4214V78.8686L138.121 87.0098Z" fill="white"/>
</g>
<defs>
<clipPath id="clip0">
<rect width="155" height="155" fill="white"/>
</clipPath>
</defs>
</svg>
