<svg width="155" height="155" viewBox="0 0 155 155" fill="none" xmlns="http://www.w3.org/2000/svg">
<g clip-path="url(#clip0)">
<path d="M153.559 58.0823C152.827 52.8531 149.934 48.3485 145.465 45.4863L145.966 45.2921C146.445 45.1065 146.774 44.6634 146.813 44.1521C146.853 43.6407 146.595 43.1519 146.151 42.8957L123.177 29.6285V15.3835C123.177 12.3144 119.314 10 114.192 10C109.07 10 105.208 12.3144 105.208 15.3835V19.253L95.9906 13.9316C95.6411 13.7297 95.219 13.6974 94.8428 13.8429L59.6917 27.4686C59.2132 27.6542 58.8838 28.0973 58.8444 28.6087C58.8051 29.1201 59.0627 29.6088 59.5068 29.865L71.7139 36.9139V54.8477L8.04465 91.603C2.34903 94.8902 -1.02017 100.766 -0.983852 107.322C-1.0215 108.84 -0.98152 114.415 -0.98152 114.625C-0.98152 121.155 2.39301 127.003 8.04565 130.269C8.66431 130.627 18.8279 137.262 18.8279 137.262C27.6045 143.137 37.8227 146.426 48.3781 146.776C49.005 146.797 49.6294 146.807 50.255 146.807C60.1637 146.807 69.8905 144.206 78.4933 139.239L131.08 108.878C141.785 102.698 149.181 92.175 151.371 80.0089C151.371 80.0089 152.452 74.7993 152.563 74.5048C153.483 72.0724 154.059 66.7659 153.995 62.7468C153.973 61.3352 153.609 58.4411 153.559 58.0823ZM109.667 58.8299C109.872 58.9481 110.103 59.0084 110.334 59.0084C110.496 59.0084 110.66 58.9784 110.815 58.9181L110.836 58.9098V73.6373L94.1785 64.0184V49.8856L109.667 58.8299ZM138.989 47.997V70.976L132.824 74.5348V50.3867L138.989 47.997ZM130.159 76.0733L121.83 80.8817V54.6484L130.159 51.4198V76.0733ZM119.165 82.4202L113.502 85.6898V57.8767L119.165 55.6812V82.4202ZM110.836 76.715V85.6898L74.3791 64.6387V55.6636L110.836 76.715ZM72.3805 66.562L111.503 89.1523C111.709 89.2712 111.939 89.3309 112.169 89.3309C112.399 89.3309 112.629 89.2712 112.836 89.1523L140.988 72.8993C141.4 72.6615 141.654 72.2214 141.654 71.7453V52.937C142.209 53.2315 142.757 53.5334 143.293 53.8429C147.21 56.1047 149.826 59.7547 150.689 64.1377C149.753 68.2382 147.168 71.8092 143.379 73.9964L62.6927 120.581C54.4708 125.328 45.2557 127.701 36.0377 127.701C26.8196 127.7 17.5989 125.326 9.37793 120.578C9.35994 120.568 9.34162 120.557 9.32296 120.548C6.73935 119.043 4.7161 116.895 3.4028 114.365C2.08817 111.831 2.10783 108.844 3.47343 106.337C4.79872 103.906 6.78132 101.873 9.29131 100.425L71.7146 64.3885V65.4087C71.7142 65.8841 71.9681 66.3238 72.3805 66.562ZM143.379 47.33C147.178 49.5215 149.755 53.0446 150.687 57.2001C149.174 54.9116 147.128 52.9797 144.625 51.5348C143.663 50.9787 142.666 50.4447 141.654 49.9393V46.9639L142.289 46.7177C142.671 46.9252 143.031 47.1275 143.379 47.33ZM107.873 26.223C109.472 27.1525 111.68 27.7105 114.192 27.7105C116.705 27.7105 118.913 27.1528 120.512 26.223V42.0069C120.512 43.1153 118.05 44.7251 114.192 44.7251C110.335 44.7251 107.873 43.1153 107.873 42.0069V26.223ZM114.192 25.0453C110.335 25.0453 107.873 23.4355 107.873 22.3271V19.28C109.472 20.2099 111.68 20.7676 114.192 20.7676C116.705 20.7676 118.913 20.2099 120.512 19.28V22.3271C120.512 23.4355 118.05 25.0453 114.192 25.0453ZM114.192 12.6652C118.05 12.6652 120.512 14.275 120.512 15.3835C120.512 16.4919 118.05 18.102 114.192 18.102C110.335 18.102 107.873 16.4919 107.873 15.3835C107.873 14.275 110.335 12.6652 114.192 12.6652ZM95.211 16.5585L105.208 22.3301V42.0065C105.208 45.0756 109.071 47.39 114.192 47.39C119.315 47.39 123.177 45.0756 123.177 42.0065V32.7058L142.41 43.8126L110.447 56.2026L63.2488 28.9485L95.211 16.5585ZM91.5133 48.3471V62.4799L74.3791 52.5862V38.4534L91.5133 48.3471ZM9.37727 93.9111L71.7139 57.925V61.3105L7.95836 98.1162C5.59829 99.4784 3.63834 101.284 2.1498 103.417C3.14494 99.4471 5.68691 96.0413 9.37727 93.9111ZM1.87662 117.047C3.4008 119.405 5.48935 121.412 8.04132 122.886C8.06031 122.897 8.0793 122.907 8.09895 122.917C16.7183 127.882 26.3772 130.364 36.037 130.364C45.7148 130.364 55.3926 127.873 64.0247 122.889L144.711 76.3042C147.207 74.8636 149.257 72.9107 150.771 70.6245C150.576 71.8189 150.339 72.851 150.07 73.5616C148.819 76.8689 146.505 79.5718 143.377 81.3781L62.6941 127.961C54.4715 132.709 45.2551 135.082 36.036 135.082C26.8189 135.081 17.5989 132.708 9.37827 127.962C5.27246 125.588 2.58357 121.615 1.87662 117.047ZM62.159 131.357C62.159 134.349 60.952 136.334 60.1534 136.334C59.5554 136.334 58.6562 135.14 58.2997 133.141C59.6034 132.577 60.891 131.965 62.1573 131.297C62.1577 131.317 62.159 131.336 62.159 131.357ZM129.747 106.57L77.1606 136.931C68.4463 141.962 58.5253 144.445 48.4663 144.113C38.9045 143.796 29.6361 140.942 21.5591 135.852C26.2959 137.114 31.1653 137.747 36.036 137.746C42.7354 137.746 49.4362 136.549 55.7898 134.161C56.4524 137.078 58.1195 139 60.1534 139C62.816 139 64.8242 135.714 64.8242 131.357C64.8242 130.848 64.7923 130.348 64.736 129.86L144.709 83.6869C146.119 82.873 147.387 81.9012 148.499 80.7938C146.179 91.6516 139.401 100.997 129.747 106.57Z" fill="white"/>
</g>
<defs>
<clipPath id="clip0">
<rect width="155" height="155" fill="white"/>
</clipPath>
</defs>
</svg>
