<svg width="55" height="55" viewBox="0 0 55 55" fill="none" xmlns="http://www.w3.org/2000/svg">
<path d="M44.6368 47.9034L42.5832 41.7416C41.8655 39.5904 40.0346 38.0025 37.8026 37.5962L31.8741 36.5175V36.0579C32.9058 35.4592 33.8036 34.6581 34.5186 33.7098H36.3096C37.7769 33.7098 38.9709 32.5158 38.9709 31.0485V20.4034C38.9709 14.0446 33.7974 8.87109 27.4387 8.87109C21.08 8.87109 15.9064 14.0446 15.9064 20.4034V26.613C15.9064 28.3234 17.1226 29.7542 18.7354 30.0878C19.233 32.6373 20.8262 34.7947 23.0032 36.0579V36.5175L17.0738 37.5962C14.8428 38.0025 13.0109 39.5904 12.2941 41.7416L11.9393 42.807L8.91786 39.7855C8.57189 39.4396 8.57189 38.8763 8.91786 38.5303L12.4219 35.0271L5.84495 28.4502L1.88495 32.4102C0.712213 33.5829 0.0664062 35.1425 0.0664062 36.8013C0.0664062 38.4602 0.712213 40.0188 1.88495 41.1916L13.8741 53.1807C15.0468 54.3534 16.6063 55.0001 18.2652 55.0001C19.9241 55.0001 21.4827 54.3534 22.6279 53.2073L26.949 49.2482L25.6015 47.9034H44.6368ZM37.1967 31.0485C37.1967 31.5382 36.7984 31.9356 36.3096 31.9356H35.5636C35.8208 31.3492 36.016 30.7309 36.142 30.0878C36.5216 30.0088 36.8712 29.858 37.1967 29.6682V31.0485ZM36.3096 28.1406V25.0854C36.8375 25.3933 37.1967 25.9592 37.1967 26.613C37.1967 27.2668 36.8375 27.8328 36.3096 28.1406ZM18.5677 28.1406C18.0399 27.8328 17.6806 27.2668 17.6806 26.613C17.6806 25.9592 18.0399 25.3933 18.5677 25.0854V28.1406ZM18.5677 22.1775V23.1906C18.2519 23.2731 17.9556 23.3973 17.6806 23.5579V20.4034C17.6806 15.0231 22.0584 10.6453 27.4387 10.6453C32.8189 10.6453 37.1967 15.0231 37.1967 20.4034V23.5579C36.9217 23.3973 36.6254 23.2722 36.3096 23.1906V22.1775H35.4225C32.7994 22.1775 30.3333 21.1556 28.4775 19.3007L27.4387 18.2619L26.3999 19.3007C24.5441 21.1556 22.0779 22.1775 19.4548 22.1775H18.5677ZM20.3419 28.3872V23.918C23.0058 23.7175 25.4897 22.6184 27.4387 20.7653C29.3876 22.6184 31.8715 23.7184 34.5354 23.918V28.3872C34.5354 29.6806 34.1824 30.8906 33.5756 31.9356H27.4387V33.7098H32.1172C30.8664 34.8107 29.2315 35.484 27.4387 35.484C23.5257 35.484 20.3419 32.3002 20.3419 28.3872ZM30.1 36.8492V36.8909L27.4387 39.5522L24.7774 36.8909V36.8492C25.6183 37.1136 26.5116 37.2582 27.4387 37.2582C28.3657 37.2582 29.259 37.1136 30.1 36.8492ZM13.9761 42.3022C14.4879 40.7658 15.7964 39.6312 17.3905 39.3402L23.5913 38.2136L27.4387 42.0609L31.2851 38.2145L37.485 39.3411C39.0792 39.6321 40.3876 40.7658 40.8995 42.3031L42.176 46.1292H23.8273L20.3721 42.6739L16.5327 46.1469C16.1983 46.4831 15.6137 46.4831 15.2783 46.1469L13.3409 44.2095L13.9761 42.3022ZM5.84407 30.9589L9.91229 35.0271L8.94891 35.9905L4.88068 31.9223L5.84407 30.9589ZM21.3993 51.9281C20.5619 52.7638 19.4477 53.2259 18.2634 53.2259C17.0791 53.2259 15.965 52.7638 15.1266 51.9263L3.13754 39.9381C2.30012 39.1007 1.83883 37.9865 1.83883 36.8022C1.83883 35.6171 2.30012 34.5029 3.13754 33.6654L3.62544 33.1775L7.69366 37.2458L7.66173 37.2777C6.62471 38.3156 6.62471 40.0038 7.66173 41.0417L14.0231 47.403C14.5261 47.9051 15.1941 48.1828 15.9055 48.1828C16.617 48.1828 17.285 47.906 17.7551 47.4341L17.8216 47.3746L21.9085 51.4615L21.3993 51.9281ZM23.2179 50.2604L19.1399 46.1824L20.3117 45.1232L24.3826 49.1941L23.2179 50.2604Z" fill="#1C79CE"/>
<path d="M52.2721 0H39.8527C38.3854 0 37.1914 1.19403 37.1914 2.66129V9.75806C37.1914 11.2253 38.3854 12.4194 39.8527 12.4194H42.2221L41.3049 17.7694L49.8654 12.4194H52.2721C53.7393 12.4194 54.9333 11.2253 54.9333 9.75806V2.66129C54.9333 1.19403 53.7393 0 52.2721 0ZM53.1591 9.75806C53.1591 10.2469 52.7608 10.6452 52.2721 10.6452H49.3562L43.7222 14.166L44.3263 10.6452H39.8527C39.3639 10.6452 38.9656 10.2469 38.9656 9.75806V2.66129C38.9656 2.1725 39.3639 1.77419 39.8527 1.77419H52.2721C52.7608 1.77419 53.1591 2.1725 53.1591 2.66129V9.75806Z" fill="#1C79CE"/>
<path d="M51.3873 3.54883H40.7422V5.32302H51.3873V3.54883Z" fill="#D83339"/>
<path d="M47.839 7.09668H40.7422V8.87087H47.839V7.09668Z" fill="#D83339"/>
<path d="M51.3875 7.09668H49.6133V8.87087H51.3875V7.09668Z" fill="#1C79CE"/>
<path d="M27.4356 2.66113C15.8448 2.66113 5.86056 10.6787 3.26492 21.8623L1.58387 19.06L0.0625 19.9728L3.18064 25.1686L8.37637 22.0504L7.46355 20.529L5.05952 21.9715C7.57355 11.7406 16.7736 4.43533 27.4356 4.43533C29.766 4.43533 32.0654 4.78129 34.2698 5.46436L34.795 3.77C32.4202 3.03371 29.9444 2.66113 27.4356 2.66113Z" fill="#1C79CE"/>
<path d="M54.5041 19.6426L49.3084 16.5244L46.1911 21.721L47.7125 22.6339L49.2649 20.0462C50.0819 22.4369 50.4997 24.9376 50.4997 27.5005C50.4997 32.776 48.6723 37.9336 45.3555 42.0222L46.7331 43.14C50.3064 38.7364 52.2739 33.1814 52.2739 27.5005C52.2739 24.7868 51.8366 22.1371 50.9841 19.6L53.5913 21.1639L54.5041 19.6426Z" fill="#1C79CE"/>
</svg>
