<svg width="71" height="55" viewBox="0 0 71 55" fill="none" xmlns="http://www.w3.org/2000/svg">
<path d="M5.3916 12.6914H16.3603C16.9346 12.6914 17.4003 12.2259 17.4003 11.6514C17.4003 11.0768 16.9346 10.6113 16.3603 10.6113H5.3916C4.81722 10.6113 4.35156 11.0768 4.35156 11.6514C4.35156 12.2259 4.81708 12.6914 5.3916 12.6914Z" fill="#1C79CE"/>
<path d="M15.9824 17.6982H11.6494C11.075 17.6982 10.6094 18.1638 10.6094 18.7383C10.6094 19.3128 11.075 19.7783 11.6494 19.7783H15.9824C16.5567 19.7783 17.0224 19.3128 17.0224 18.7383C17.0224 18.1638 16.5567 17.6982 15.9824 17.6982Z" fill="#1C79CE"/>
<path d="M1.04004 24.9102H11.6501C12.2245 24.9102 12.6901 24.4446 12.6901 23.8701C12.6901 23.2956 12.2245 22.8301 11.6501 22.8301H1.04004C0.46566 22.8301 0 23.2956 0 23.8701C0 24.4446 0.46566 24.9102 1.04004 24.9102Z" fill="#1C79CE"/>
<path d="M17.4003 43.3486C17.4003 42.7741 16.9346 42.3086 16.3603 42.3086H5.3916C4.81722 42.3086 4.35156 42.7741 4.35156 43.3486C4.35156 43.9232 4.81722 44.3887 5.3916 44.3887H16.3603C16.9346 44.3887 17.4003 43.9232 17.4003 43.3486Z" fill="#1C79CE"/>
<path d="M15.9824 35.2217H11.6494C11.075 35.2217 10.6094 35.6872 10.6094 36.2617C10.6094 36.8362 11.075 37.3018 11.6494 37.3018H15.9824C16.5567 37.3018 17.0224 36.8362 17.0224 36.2617C17.0224 35.6872 16.5567 35.2217 15.9824 35.2217Z" fill="#1C79CE"/>
<path d="M12.6901 31.1289C12.6901 30.5544 12.2245 30.0889 11.6501 30.0889H1.04004C0.46566 30.0889 0 30.5544 0 31.1289C0 31.7034 0.46566 32.1689 1.04004 32.1689H11.6501C12.2245 32.1689 12.6901 31.7034 12.6901 31.1289Z" fill="#1C79CE"/>
<path d="M44.3096 14.9957C44.8841 14.9957 45.3496 14.5302 45.3496 13.9557V12.3682C45.3496 11.7936 44.8841 11.3281 44.3096 11.3281C43.7351 11.3281 43.2695 11.7936 43.2695 12.3682V13.9557C43.2695 14.5302 43.7351 14.9957 44.3096 14.9957Z" fill="#1C79CE"/>
<path d="M55.7457 16.0643C55.3394 15.6583 54.681 15.6583 54.2748 16.0643L53.1523 17.1868C52.7461 17.5931 52.7461 18.2516 53.1523 18.6577C53.5587 19.0639 54.217 19.0638 54.6232 18.6577L55.7457 17.5352C56.1517 17.129 56.1517 16.4706 55.7457 16.0643Z" fill="#D83339"/>
<path d="M57.8525 26.46C57.278 26.46 56.8125 26.9255 56.8125 27.5C56.8125 28.0745 57.278 28.54 57.8525 28.54H59.4399C60.0144 28.54 60.48 28.0745 60.48 27.5C60.48 26.9255 60.0144 26.46 59.4399 26.46H57.8525Z" fill="#1C79CE"/>
<path d="M54.6232 36.3416C54.2169 35.9356 53.5585 35.9356 53.1523 36.3416C52.7461 36.7479 52.7461 37.4064 53.1523 37.8125L54.2748 38.9351C54.6813 39.3413 55.3396 39.3411 55.7457 38.9351C56.1519 38.5288 56.1519 37.8704 55.7457 37.4642L54.6232 36.3416Z" fill="#1C79CE"/>
<path d="M43.2695 41.0439V42.6313C43.2695 43.2058 43.7351 43.6714 44.3096 43.6714C44.8841 43.6714 45.3496 43.2058 45.3496 42.6313V41.0439C45.3496 40.4694 44.8841 40.0039 44.3096 40.0039C43.7351 40.0039 43.2695 40.4696 43.2695 41.0439Z" fill="#1C79CE"/>
<path d="M33.9975 36.3416L32.8749 37.4642C32.4688 37.8705 32.4688 38.5289 32.8749 38.9351C33.2812 39.3413 33.9397 39.3411 34.3457 38.9351L35.4682 37.8125C35.8744 37.4062 35.8744 36.7478 35.4682 36.3416C35.0622 35.9356 34.4037 35.9356 33.9975 36.3416Z" fill="#D83339"/>
<path d="M29.1807 26.46C28.6063 26.46 28.1406 26.9255 28.1406 27.5C28.1406 28.0745 28.6063 28.54 29.1807 28.54H30.7682C31.3426 28.54 31.8082 28.0745 31.8082 27.5C31.8082 26.9255 31.3426 26.46 30.7682 26.46H29.1807Z" fill="#1C79CE"/>
<path d="M35.4682 17.1868L34.3457 16.0643C33.9395 15.6583 33.281 15.6583 32.8749 16.0643C32.4688 16.4706 32.4688 17.129 32.8749 17.5352L33.9975 18.6577C34.4038 19.0639 35.0622 19.0638 35.4682 18.6577C35.8744 18.2516 35.8744 17.5931 35.4682 17.1868Z" fill="#1C79CE"/>
<path d="M49.9022 27.5001C49.9022 26.9256 49.4367 26.4601 48.8622 26.4601H45.3496V18.7383C45.3496 18.1638 44.8841 17.6982 44.3096 17.6982C43.7351 17.6982 43.2695 18.1638 43.2695 18.7383V27.5001C43.2695 28.0746 43.7351 28.5401 44.3096 28.5401H48.8622C49.4366 28.5401 49.9022 28.0746 49.9022 27.5001Z" fill="#D83339"/>
<path d="M64.031 27.3279C64.6045 27.2931 65.041 26.8001 65.0062 26.2268C64.3446 15.3129 55.2538 6.76367 44.3101 6.76367C32.8763 6.76367 23.5742 16.0658 23.5742 27.4997C23.5742 38.9335 32.8763 48.2356 44.3101 48.2356C54.5537 48.2356 63.2943 40.7304 64.8148 30.6025C64.9001 30.0345 64.5088 29.5049 63.9406 29.4196C63.374 29.3346 62.843 29.7255 62.7578 30.2938C61.3918 39.3926 53.5352 46.1556 44.3101 46.1556C34.0233 46.1556 25.6543 37.7867 25.6543 27.4998C25.6543 17.213 34.0233 8.84389 44.3101 8.84389C54.1559 8.84389 62.3347 16.5348 62.9298 26.353C62.9645 26.926 63.4571 27.3612 64.031 27.3279Z" fill="#1C79CE"/>
<path d="M44.3108 0.80957C40.6525 0.80957 37.0683 1.56852 33.7693 2.98783H15.4189C14.8446 2.98783 14.3789 3.45335 14.3789 4.02787C14.3789 4.60238 14.8446 5.06791 15.4189 5.06791H29.8565C27.9044 6.32427 26.1074 7.83968 24.5229 9.58916C24.1374 10.0147 24.1698 10.6725 24.5956 11.0581C25.0214 11.4438 25.6789 11.4112 26.0646 10.9855C30.7243 5.84045 37.3749 2.88965 44.3108 2.88965C57.881 2.88965 68.9212 13.9297 68.9212 27.4999C68.9212 41.0699 57.8811 52.1101 44.3108 52.1101C30.7407 52.1101 19.7006 41.07 19.7006 27.4999C19.7006 22.7479 21.058 18.1357 23.626 14.1616C23.9377 13.6792 23.7993 13.0354 23.3169 12.7237C22.8344 12.4121 22.1907 12.5502 21.8788 13.0328C19.0929 17.3438 17.6205 22.3464 17.6205 27.4999C17.6205 36.8971 22.5026 45.1747 29.8631 49.9319H15.4191C14.8447 49.9319 14.379 50.3974 14.379 50.9719C14.379 51.5464 14.8447 52.0119 15.4191 52.0119H33.755C36.9943 53.4124 40.5633 54.1902 44.3109 54.1902C59.0279 54.1902 71.0013 42.217 71.0013 27.4999C71.0013 12.7828 59.0279 0.80957 44.3108 0.80957Z" fill="#1C79CE"/>
</svg>
