<svg width="55" height="55" viewBox="0 0 55 55" fill="none" xmlns="http://www.w3.org/2000/svg">
<g clip-path="url(#clip0)">
<path d="M24.5775 3.67648C24.68 4.76873 25.6055 5.60209 26.7001 5.60199C26.7232 5.60199 26.7465 5.60166 26.7697 5.60091C29.4093 5.51562 31.9862 5.96141 34.4296 6.92594C36.8799 7.89326 39.0726 9.33388 40.9463 11.2077C42.0673 12.3294 43.0359 13.5671 43.8364 14.8987L42.6309 15.0335C41.6782 15.1401 40.8799 15.7281 40.4957 16.6066C40.1112 17.4854 40.2213 18.4711 40.7904 19.2437L41.5862 20.3234C41.8504 20.6816 42.3548 20.7579 42.7127 20.4938C43.0709 20.2297 43.1473 19.7254 42.8832 19.3673L42.0876 18.288C41.7655 17.8507 41.8994 17.4181 41.9719 17.2524C42.0444 17.0867 42.2709 16.6952 42.81 16.6349L45.2204 16.3653C45.484 16.3359 45.7162 16.1784 45.8413 15.9444C45.9664 15.7104 45.9682 15.4298 45.8462 15.1942C44.8746 13.318 43.6096 11.5936 42.0858 10.0686C40.0548 8.03764 37.6778 6.47607 35.021 5.42721C32.3718 4.38148 29.5804 3.89765 26.7175 3.99047C26.4401 3.9997 26.2067 3.79518 26.1815 3.52501L26.0546 2.19053C26.0412 2.04755 26.086 1.9093 26.1809 1.80124C26.2352 1.73936 26.3548 1.63441 26.5453 1.62732C29.7491 1.50981 32.8777 2.041 35.8461 3.20597C38.8223 4.37396 41.4848 6.11965 43.7597 8.3946C45.8083 10.4432 47.4291 12.8066 48.5773 15.4192C48.7189 15.7418 49.0547 15.9352 49.4042 15.8959L52.2236 15.581C52.7621 15.5198 53.0698 15.852 53.1771 15.9975C53.2843 16.1429 53.5102 16.535 53.2924 17.0325L49.4982 25.7101C49.281 26.2074 48.8399 26.3078 48.6603 26.3279C48.4807 26.3478 48.0284 26.3476 47.7064 25.9102L44.7846 21.9464C44.5206 21.5883 44.0164 21.512 43.658 21.776C43.2999 22.04 43.2235 22.5443 43.4876 22.9025L46.4092 26.866C46.917 27.5555 47.6954 27.9463 48.5348 27.9463C48.6356 27.9463 48.7373 27.9406 48.8395 27.9292C49.7925 27.8225 50.5907 27.2342 50.9747 26.3555L54.7685 17.6784C55.1533 16.7995 55.0432 15.8138 54.4741 15.0416C53.9051 14.2695 52.9962 13.8728 52.0441 13.9798L49.8066 14.2297C48.5963 11.6475 46.9474 9.30369 44.8991 7.25529C42.4664 4.82265 39.6186 2.95568 36.4348 1.70617C33.259 0.459664 29.9116 -0.108267 26.4863 0.0169848C25.906 0.0384688 25.3531 0.301434 24.9697 0.738635C24.5852 1.17691 24.3961 1.76106 24.4506 2.34199L24.5775 3.67648Z" fill="#1C79CE"/>
<path d="M30.4255 51.3234C30.3208 50.208 29.358 49.3638 28.2331 49.399C25.5958 49.4845 23.017 49.0391 20.5734 48.0744C18.1233 47.1071 15.9306 45.6663 14.0565 43.792C12.9366 42.6721 11.9679 41.4346 11.1665 40.1018L12.3721 39.9664C13.3251 39.8599 14.1235 39.2716 14.5076 38.3928C14.8918 37.5142 14.7814 36.529 14.2127 35.7573L8.5937 28.134C8.02513 27.3617 7.11732 26.9644 6.16342 27.0707C5.21039 27.1774 4.41215 27.7657 4.02823 28.6444L0.234355 37.3216C-0.150318 38.2002 -0.0404266 39.1858 0.528365 39.9579C1.09716 40.7303 2.00625 41.1277 2.95907 41.0212L5.19589 40.7706C5.32909 41.0549 5.46927 41.3394 5.61472 41.6208C5.81903 42.016 6.30511 42.1706 6.70042 41.9664C7.09562 41.7619 7.2503 41.2759 7.04599 40.8807C6.82363 40.4507 6.61502 40.0137 6.42607 39.5818C6.2847 39.2585 5.94923 39.0649 5.59829 39.1042L2.77979 39.42C2.24032 39.4806 1.93278 39.1481 1.82568 39.0025C1.71848 38.857 1.49257 38.4649 1.71042 37.9675L5.50461 29.2899C5.72182 28.7927 6.16289 28.6922 6.34249 28.6721C6.52189 28.6521 6.97434 28.6525 7.29639 29.0898L12.9155 36.7134C13.2372 37.1497 13.1035 37.5819 13.0311 37.7474C12.9587 37.9131 12.7322 38.3048 12.1926 38.3651L9.7822 38.6358C9.51859 38.6653 9.28646 38.8229 9.16142 39.0569C9.03649 39.291 9.03477 39.5714 9.1568 39.807C10.13 41.6852 11.3951 43.4092 12.9171 44.9313C14.9483 46.9625 17.3253 48.5242 19.9819 49.573C22.6315 50.6192 25.4243 51.1024 28.2854 51.0094C28.564 51.0003 28.7962 51.2047 28.8214 51.4749L28.9483 52.8094C28.9617 52.9524 28.9169 53.0906 28.822 53.1987C28.7677 53.2605 28.6481 53.3655 28.4576 53.3726C25.2538 53.4899 22.1252 52.9589 19.1568 51.7939C16.1806 50.626 13.5181 48.8803 11.2431 46.6053C10.2916 45.6537 9.42148 44.6213 8.6573 43.5366C8.40099 43.173 7.89869 43.0857 7.53465 43.3421C7.17092 43.5984 7.08391 44.1009 7.34011 44.4648C8.15725 45.6246 9.08719 46.7281 10.1038 47.7447C12.5365 50.1774 15.3843 52.0443 18.5681 53.2938C21.4563 54.4273 24.4859 54.9999 27.5877 54.9999C27.8966 54.9999 28.2065 54.9942 28.5168 54.9828C29.097 54.9613 29.6499 54.6984 30.0333 54.2612C30.4178 53.8229 30.6069 53.2387 30.5524 52.6578L30.4255 51.3234Z" fill="#1C79CE"/>
<path d="M13.0533 26.091C20.2466 26.091 26.0987 20.2389 26.0987 13.0456C26.0987 5.85226 20.2466 0 13.0533 0C5.85997 0 0.0078125 5.85226 0.0078125 13.0456C0.0078125 20.2389 5.85997 26.091 13.0533 26.091ZM13.0533 1.61131C19.3581 1.61131 24.4874 6.74063 24.4874 13.0455C24.4874 19.3503 19.3582 24.4797 13.0533 24.4797C6.74834 24.4797 1.61912 19.3504 1.61912 13.0456C1.61912 6.74074 6.74844 1.61131 13.0533 1.61131Z" fill="#1C79CE"/>
<path d="M13.055 22.1167C18.0566 22.1167 22.1255 18.0477 22.1255 13.0462C22.1255 8.04467 18.0565 3.97559 13.055 3.97559C8.05346 3.97559 3.98438 8.04467 3.98438 13.0462C3.98438 18.0477 8.05346 22.1167 13.055 22.1167ZM13.055 5.58678C17.1681 5.58678 20.5142 8.93304 20.5142 13.0461C20.5142 17.1591 17.1681 20.5053 13.055 20.5053C8.94183 20.5053 5.59568 17.1591 5.59568 13.0461C5.59568 8.93304 8.94183 5.58678 13.055 5.58678Z" fill="#1C79CE"/>
<path d="M9.77915 17.5047C10.7188 18.0109 11.366 18.1695 12.1829 18.2131V18.7097C12.1829 19.1547 12.5435 19.5154 12.9886 19.5154C13.4336 19.5154 13.7942 19.1547 13.7942 18.7097V18.1555C15.5121 17.8467 16.5582 16.596 16.7307 15.363C16.9313 13.9274 16.0119 12.6944 14.3882 12.2218C13.3624 11.9231 12.2251 11.5607 11.5683 11.1364C11.2624 10.9388 11.2648 10.6215 11.2933 10.45C11.3534 10.0897 11.6494 9.64701 12.3002 9.48556C12.5645 9.42003 12.8112 9.38877 13.0384 9.38093C13.0429 9.38061 13.0474 9.38061 13.0519 9.38028C14.047 9.35031 14.6619 9.7772 14.7034 9.80685C15.0573 10.0702 15.5584 9.99988 15.8257 9.64787C16.0949 9.2936 16.0259 8.78818 15.6716 8.51899C15.6294 8.48698 14.9317 7.96953 13.794 7.81313V7.3828C13.794 6.93787 13.4334 6.57715 12.9883 6.57715C12.5433 6.57715 12.1827 6.93787 12.1827 7.3828V7.86286C12.0936 7.88016 12.0037 7.89906 11.9121 7.92184C10.7517 8.20972 9.88496 9.09809 9.70374 10.1852C9.54916 11.1125 9.92857 11.9956 10.6938 12.49C11.3637 12.9228 12.3034 13.2934 13.9375 13.7691C14.7856 14.0159 15.2218 14.5156 15.1346 15.1401C15.0015 16.0922 13.9272 16.6115 12.9839 16.6167C11.896 16.6228 11.4648 16.5828 10.5432 16.0863C10.1514 15.875 9.66281 16.0217 9.45184 16.4134C9.24108 16.8051 9.38749 17.2937 9.77915 17.5047Z" fill="#D83339"/>
<path d="M54.114 31.3722C54.0466 30.9865 53.7118 30.7051 53.3203 30.7051H33.3227C32.9311 30.7051 32.5963 30.9865 32.5289 31.3722C31.3549 38.0988 31.3549 44.9201 32.5289 51.6468C32.5963 52.0324 32.9311 52.3139 33.3227 52.3139H53.3203C53.7118 52.3139 54.0466 52.0324 54.114 51.6468C55.288 44.9201 55.288 38.0988 54.114 31.3722ZM45.7463 32.3164V40.0492L43.7513 38.7915C43.6199 38.7088 43.4708 38.6674 43.3216 38.6674C43.1724 38.6674 43.0233 38.7088 42.8919 38.7915L40.8969 40.0492V32.3164H45.7463ZM52.6391 50.7026H34.0039C33.012 44.599 33.012 38.4199 34.0039 32.3163H39.2855V41.5094C39.2855 41.8028 39.445 42.0731 39.7019 42.2149C39.9588 42.3564 40.2724 42.3474 40.5208 42.191L43.3215 40.4253L46.1221 42.191C46.2532 42.2736 46.4023 42.3151 46.5518 42.3151C46.6857 42.3151 46.8196 42.2818 46.941 42.2149C47.1979 42.0731 47.3575 41.8029 47.3575 41.5094V32.3163H52.639C53.631 38.4199 53.631 44.599 52.6391 50.7026Z" fill="#1C79CE"/>
</g>
<defs>
<clipPath id="clip0">
<rect width="55" height="55" fill="white"/>
</clipPath>
</defs>
</svg>
