<svg width="55" height="55" viewBox="0 0 55 55" fill="none" xmlns="http://www.w3.org/2000/svg">
<g clip-path="url(#clip0)">
<path d="M32.6191 23.3978C32.5278 23.8334 32.1016 24.1105 31.6662 24.0191C31.2306 23.9277 30.9534 23.4984 31.0448 23.0659C31.5198 20.8703 32.7564 18.9121 34.4708 17.5173C36.1334 16.1622 38.2471 15.3369 40.5432 15.3369C43.2078 15.3369 45.6198 16.4454 47.3737 18.1995C49.1491 19.9748 50.2517 22.4204 50.2517 25.0454C50.2517 29.2967 46.524 33.7914 43.424 37.114C43.756 37.4064 44.0422 37.7505 44.2735 38.1342C44.6665 38.7889 44.8948 39.5562 44.8948 40.3694C44.8948 41.5723 44.4076 42.6594 43.6189 43.4482C42.8332 44.2338 41.7428 44.7212 40.5431 44.7212C39.3401 44.7212 38.2531 44.2339 37.4644 43.4482C36.6787 42.6594 36.1912 41.5723 36.1912 40.3694C36.1912 39.5563 36.4166 38.7919 36.8095 38.1372C37.0378 37.7566 37.324 37.4125 37.653 37.1201C35.0311 34.3215 31.9706 30.6672 31.0875 27.0463C30.9838 26.6138 31.2489 26.1815 31.6812 26.0778C32.1105 25.9712 32.5461 26.2362 32.6495 26.6686C33.4842 30.0855 36.6329 33.7123 39.2124 36.432C39.6538 36.8949 40.0986 37.3547 40.5432 37.8115C40.9482 37.3882 41.3562 36.9648 41.7612 36.5385C44.7488 33.3836 48.6406 28.9405 48.6406 25.0455C48.6406 22.862 47.721 20.8246 46.2348 19.3386C44.7699 17.8738 42.76 16.948 40.5432 16.948C38.6277 16.948 36.8706 17.6362 35.4849 18.7629C34.0507 19.9322 33.0153 21.5676 32.6191 23.3978ZM33.9685 41.5813C34.3977 41.4687 34.8391 41.7244 34.9518 42.1509C35.0678 42.5802 34.8118 43.0218 34.3824 43.1376L32.4639 43.6552C32.0346 43.7709 31.5962 43.5152 31.4804 43.0857C31.3645 42.6563 31.6205 42.2178 32.0498 42.1022L33.9685 41.5813ZM29.0289 42.9181C29.4581 42.8054 29.8997 43.0584 30.0154 43.4877C30.1281 43.917 29.8755 44.3586 29.446 44.4744L27.5275 44.9921C27.0981 45.1078 26.6566 44.8519 26.5408 44.4227C26.4281 43.9932 26.681 43.5547 27.1104 43.439L29.0289 42.9181ZM35.1226 36.6661C35.5336 36.8367 35.7286 37.3056 35.558 37.7168C35.3874 38.1279 34.9185 38.3228 34.5075 38.1523L32.674 37.385C32.263 37.2144 32.0681 36.7424 32.2386 36.3313C32.4092 35.9231 32.8813 35.7283 33.2923 35.8988L35.1226 36.6661ZM30.4053 34.6898C30.8165 34.8604 31.0115 35.3294 30.8409 35.7404C30.6703 36.1486 30.1983 36.3435 29.7902 36.1729L27.9569 35.4054C27.5459 35.2349 27.3509 34.7659 27.5215 34.3548C27.6921 33.9438 28.1641 33.7487 28.572 33.9193L30.4053 34.6898ZM25.6882 32.7104C26.0963 32.8809 26.2911 33.3529 26.1205 33.7609C25.9499 34.1721 25.4811 34.367 25.0701 34.1965L23.2366 33.429C22.8287 33.2585 22.6338 32.7865 22.8044 32.3784C22.9748 31.9673 23.4437 31.7723 23.8549 31.9429L25.6882 32.7104ZM20.9678 30.7339C21.379 30.9045 21.574 31.3734 21.4034 31.7846C21.2328 32.1956 20.7639 32.3905 20.3527 32.2201L18.5195 31.4525C18.1085 31.282 17.9135 30.8099 18.0841 30.3989C18.2547 29.9907 18.7266 29.7959 19.1378 29.9665L20.9678 30.7339ZM16.2507 28.7575C16.6619 28.9281 16.8569 29.3971 16.6863 29.8081C16.5155 30.2192 16.0437 30.4112 15.6356 30.2405L13.8024 29.4732C13.3914 29.3026 13.1964 28.8336 13.367 28.4225C13.5374 28.0113 14.0094 27.8195 14.4175 27.9869L16.2507 28.7575ZM27.1438 12.0784C27.5093 11.8286 28.0055 11.9231 28.2586 12.2855C28.5082 12.6509 28.4138 13.1504 28.0483 13.4001L26.413 14.5268C26.0476 14.7765 25.548 14.6853 25.2983 14.3197C25.0487 13.9543 25.1399 13.4548 25.5054 13.2051L27.1438 12.0784ZM22.926 14.9776C23.2915 14.7279 23.7909 14.8191 24.0407 15.1847C24.2904 15.5501 24.199 16.0496 23.8336 16.2993L22.195 17.4229C21.8298 17.6758 21.3304 17.5814 21.0805 17.2158C20.8309 16.8506 20.9253 16.351 21.2876 16.1013L22.926 14.9776ZM18.7114 17.8737C19.0769 17.6239 19.5763 17.7184 19.8259 18.0808C20.0758 18.4462 19.9812 18.9457 19.6188 19.1954L17.9804 20.3221C17.615 20.5718 17.1156 20.4774 16.8659 20.115C16.6163 19.7496 16.7075 19.2501 17.073 19.0004L18.7114 17.8737ZM14.4936 20.7728C14.8591 20.52 15.3585 20.6143 15.6081 20.9799C15.858 21.3453 15.7666 21.8447 15.4012 22.0945L13.7626 23.2181C13.3974 23.471 12.901 23.3766 12.6481 23.011C12.3985 22.6457 12.4929 22.1462 12.8581 21.8965L14.4936 20.7728ZM33.3136 5.03772C34.5164 5.03772 35.6036 5.52498 36.3894 6.31077C37.1781 7.09947 37.6653 8.18657 37.6653 9.38648C37.6653 10.5893 37.1781 11.6765 36.3894 12.4653C35.6036 13.251 34.5164 13.7382 33.3136 13.7382C32.1106 13.7382 31.0236 13.2511 30.2378 12.4653C29.4491 11.6765 28.9617 10.5893 28.9617 9.38648C28.9617 8.18657 29.4491 7.09947 30.2378 6.31077C31.0236 5.52498 32.1106 5.03772 33.3136 5.03772ZM35.2503 7.44966C34.7539 6.95316 34.0689 6.64872 33.3136 6.64872C32.5583 6.64872 31.8731 6.95316 31.3767 7.44966C30.8805 7.94595 30.573 8.63119 30.573 9.38637C30.573 10.1447 30.8805 10.8299 31.3767 11.3263C31.8731 11.8196 32.5583 12.1272 33.3136 12.1272C34.0689 12.1272 34.7539 11.8196 35.2503 11.3263C35.7467 10.83 36.0543 10.1447 36.0543 9.38637C36.0544 8.63119 35.7468 7.94595 35.2503 7.44966ZM7.99793 21.9969C9.19783 21.9969 10.285 22.4843 11.0737 23.2699C11.8624 24.0587 12.3498 25.1458 12.3498 26.3487C12.3498 27.5485 11.8624 28.6357 11.0737 29.4245C10.285 30.2132 9.19783 30.6975 7.99793 30.6975C6.79513 30.6975 5.70791 30.2132 4.919 29.4245C4.13353 28.6357 3.64605 27.5485 3.64605 26.3487C3.64605 25.1458 4.13343 24.0587 4.919 23.2699C5.70791 22.4843 6.79513 21.9969 7.99793 21.9969ZM9.93485 24.4089C9.43824 23.9156 8.75321 23.6081 7.99793 23.6081C7.23964 23.6081 6.55439 23.9156 6.058 24.4089C5.56471 24.9053 5.25717 25.5904 5.25717 26.3488C5.25717 27.104 5.56471 27.7892 6.058 28.2856C6.55439 28.7819 7.23964 29.0865 7.99793 29.0865C8.75321 29.0865 9.43824 28.7819 9.93485 28.2856C10.431 27.7892 10.7357 27.104 10.7357 26.3488C10.7358 25.5904 10.4311 24.9053 9.93485 24.4089ZM42.3186 38.2833L41.6667 38.9594C41.335 39.3096 40.9725 39.4923 40.5615 39.4984C40.0254 39.5075 39.6814 39.2334 39.3281 38.8681C39.1453 38.6792 38.9567 38.4845 38.7617 38.2834C38.5364 38.4752 38.3444 38.7066 38.1892 38.9625C37.9424 39.3705 37.8024 39.8516 37.8024 40.3694C37.8024 41.1278 38.1098 41.813 38.6064 42.3093C39.0997 42.8027 39.7849 43.1102 40.5431 43.1102C41.2982 43.1102 41.9834 42.8027 42.4798 42.3093C42.9762 41.813 43.2838 41.1278 43.2838 40.3694C43.2838 39.8517 43.1407 39.3675 42.8939 38.9595C42.7418 38.7036 42.5439 38.4751 42.3186 38.2833ZM20.8247 41.3986C22.0275 41.3986 23.1148 41.8858 23.9035 42.6717C24.6891 43.4604 25.1766 44.5476 25.1766 45.7505C25.1766 46.9503 24.6892 48.0405 23.9035 48.8261C23.1148 49.6149 22.0275 50.1023 20.8247 50.1023C19.6248 50.1023 18.5376 49.6149 17.7489 48.8261C16.9602 48.0406 16.476 46.9503 16.476 45.7505C16.476 44.5476 16.9602 43.4604 17.7489 42.6717C18.5376 41.8858 19.6249 41.3986 20.8247 41.3986ZM22.7647 43.8135C22.2683 43.3172 21.583 43.0096 20.8247 43.0096C20.0697 43.0096 19.3844 43.3172 18.888 43.8135C18.3916 44.307 18.087 44.9921 18.087 45.7504C18.087 46.5055 18.3916 47.1907 18.888 47.6871C19.3844 48.1835 20.0697 48.491 20.8247 48.491C21.583 48.491 22.2683 48.1835 22.7647 47.6871C23.258 47.1907 23.5655 46.5055 23.5655 45.7504C23.5655 44.9921 23.258 44.307 22.7647 43.8135ZM44.5143 47.0172C44.8493 46.7249 45.3547 46.7584 45.647 47.0934C45.9395 47.4283 45.9059 47.934 45.5711 48.2262C40.1503 52.9616 33.3197 55.2151 26.5561 54.9836C19.8319 54.7522 13.181 52.0754 8.05271 46.9473C2.92461 41.8189 0.247654 35.168 0.01616 28.4439C-0.215227 21.6833 2.03827 14.8496 6.77364 9.42891C7.06594 9.09397 7.57157 9.06045 7.90662 9.35285C8.24145 9.64526 8.27508 10.1507 7.98257 10.4857C3.52434 15.5865 1.40491 22.0243 1.62437 28.3952C1.83728 34.7172 4.36191 40.9784 9.19171 45.8083C14.0215 50.6382 20.2826 53.1626 26.6048 53.3788C32.9757 53.595 39.4133 51.4754 44.5143 47.0172ZM10.486 7.98258C10.151 8.27487 9.64557 8.24136 9.35306 7.90642C9.06076 7.57148 9.09417 7.06584 9.42922 6.77355C14.8498 2.03818 21.6835 -0.21532 28.4442 0.0161743C35.1681 0.247561 41.8191 2.9243 46.9474 8.05262C52.0755 13.1809 54.7524 19.8317 54.9838 26.5559C55.2152 33.3195 52.9617 40.1502 48.2263 45.5709C47.9341 45.9058 47.4284 45.9393 47.0936 45.6469C46.7585 45.3545 46.7251 44.8491 47.0174 44.5141C51.4756 39.4133 53.5951 32.9755 53.3791 26.6046C53.1627 20.2826 50.6383 14.0214 45.8085 9.19151C40.9785 4.3616 34.7174 1.8373 28.3954 1.62417C22.0246 1.40471 15.587 3.52414 10.486 7.98258ZM40.5432 19.7617C42.002 19.7617 43.3236 20.3525 44.2799 21.3087C45.2359 22.2649 45.8268 23.5866 45.8268 25.0453C45.8268 26.5039 45.2359 27.8257 44.2799 28.7818C43.3236 29.7381 42.002 30.3319 40.5432 30.3319C39.0844 30.3319 37.7628 29.7382 36.8065 28.7818C35.8503 27.8257 35.2597 26.5039 35.2597 25.0453C35.2597 23.5866 35.8503 22.2649 36.8065 21.3087C37.7628 20.3525 39.0844 19.7617 40.5432 19.7617ZM43.1409 22.4508C42.4739 21.7838 41.5573 21.3727 40.5432 21.3727C39.529 21.3727 38.6094 21.7838 37.9455 22.4508C37.2815 23.1147 36.8705 24.0312 36.8705 25.0453C36.8705 26.0593 37.2815 26.9791 37.9455 27.6429C38.6094 28.3069 39.5289 28.718 40.5432 28.718C41.5572 28.718 42.4739 28.3069 43.1409 27.6429C43.8048 26.9791 44.2157 26.0594 44.2157 25.0453C44.2157 24.0311 43.8046 23.1147 43.1409 22.4508Z" fill="#1C79CE"/>
<path d="M33.9685 41.5813C34.3977 41.4687 34.8391 41.7244 34.9518 42.1509C35.0678 42.5802 34.8118 43.0218 34.3824 43.1376L32.4639 43.6552C32.0346 43.7709 31.5962 43.5152 31.4804 43.0857C31.3645 42.6563 31.6205 42.2178 32.0498 42.1022L33.9685 41.5813ZM29.0289 42.9181C29.4581 42.8054 29.8997 43.0584 30.0154 43.4877C30.1281 43.917 29.8755 44.3586 29.446 44.4744L27.5275 44.9921C27.0981 45.1078 26.6566 44.8519 26.5408 44.4227C26.4281 43.9932 26.681 43.5547 27.1104 43.439L29.0289 42.9181ZM30.4053 34.6898C30.8165 34.8604 31.0115 35.3294 30.8409 35.7404C30.6703 36.1486 30.1983 36.3435 29.7902 36.1729L27.9569 35.4054C27.5459 35.2349 27.3509 34.7659 27.5215 34.3548C27.6921 33.9438 28.1641 33.7487 28.572 33.9193L30.4053 34.6898ZM25.6882 32.7104C26.0963 32.8809 26.2911 33.3529 26.1205 33.7609C25.9499 34.1721 25.4811 34.367 25.0701 34.1965L23.2366 33.429C22.8287 33.2585 22.6338 32.7865 22.8044 32.3784C22.9748 31.9673 23.4437 31.7723 23.8549 31.9429L25.6882 32.7104ZM20.9678 30.7339C21.379 30.9045 21.574 31.3734 21.4034 31.7846C21.2328 32.1956 20.7639 32.3905 20.3527 32.2201L18.5195 31.4525C18.1085 31.282 17.9135 30.8099 18.0841 30.3989C18.2547 29.9907 18.7266 29.7959 19.1378 29.9665L20.9678 30.7339ZM22.926 14.9776C23.2915 14.7279 23.7909 14.8191 24.0407 15.1847C24.2904 15.5501 24.199 16.0496 23.8336 16.2993L22.195 17.4229C21.8298 17.6758 21.3304 17.5814 21.0805 17.2158C20.8309 16.8506 20.9253 16.351 21.2876 16.1013L22.926 14.9776ZM18.7114 17.8737C19.0769 17.6239 19.5763 17.7184 19.8259 18.0808C20.0758 18.4462 19.9812 18.9457 19.6188 19.1954L17.9804 20.3221C17.615 20.5718 17.1156 20.4774 16.8659 20.115C16.6163 19.7496 16.7075 19.2501 17.073 19.0004L18.7114 17.8737ZM7.99793 21.9969C9.19783 21.9969 10.285 22.4843 11.0737 23.2699C11.8624 24.0587 12.3498 25.1458 12.3498 26.3487C12.3498 27.5485 11.8624 28.6357 11.0737 29.4245C10.285 30.2132 9.19783 30.6975 7.99793 30.6975C6.79513 30.6975 5.70791 30.2132 4.919 29.4245C4.13353 28.6357 3.64605 27.5485 3.64605 26.3487C3.64605 25.1458 4.13343 24.0587 4.919 23.2699C5.70791 22.4843 6.79513 21.9969 7.99793 21.9969ZM9.93485 24.4089C9.43824 23.9156 8.75321 23.6081 7.99793 23.6081C7.23964 23.6081 6.55439 23.9156 6.058 24.4089C5.56471 24.9053 5.25717 25.5904 5.25717 26.3488C5.25717 27.104 5.56471 27.7892 6.058 28.2856C6.55439 28.7819 7.23964 29.0865 7.99793 29.0865C8.75321 29.0865 9.43824 28.7819 9.93485 28.2856C10.431 27.7892 10.7357 27.104 10.7357 26.3488C10.7358 25.5904 10.4311 24.9053 9.93485 24.4089ZM44.5143 47.0172C44.8493 46.7249 45.3547 46.7584 45.647 47.0934C45.9395 47.4283 45.9059 47.934 45.5711 48.2262C40.1503 52.9616 33.3197 55.2151 26.5561 54.9836C19.8319 54.7522 13.181 52.0754 8.05271 46.9473C2.92461 41.8189 0.247654 35.168 0.01616 28.4439C-0.215227 21.6833 2.03827 14.8496 6.77364 9.42891C7.06594 9.09397 7.57157 9.06045 7.90662 9.35285C8.24145 9.64526 8.27508 10.1507 7.98257 10.4857C3.52434 15.5865 1.40491 22.0243 1.62437 28.3952C1.83728 34.7172 4.36191 40.9784 9.19171 45.8083C14.0215 50.6382 20.2826 53.1626 26.6048 53.3788C32.9757 53.595 39.4133 51.4754 44.5143 47.0172ZM40.5432 19.7617C42.002 19.7617 43.3236 20.3525 44.2799 21.3087C45.2359 22.2649 45.8268 23.5866 45.8268 25.0453C45.8268 26.5039 45.2359 27.8257 44.2799 28.7818C43.3236 29.7381 42.002 30.3319 40.5432 30.3319C39.0844 30.3319 37.7628 29.7382 36.8065 28.7818C35.8503 27.8257 35.2597 26.5039 35.2597 25.0453C35.2597 23.5866 35.8503 22.2649 36.8065 21.3087C37.7628 20.3525 39.0844 19.7617 40.5432 19.7617ZM43.1409 22.4508C42.4739 21.7838 41.5573 21.3727 40.5432 21.3727C39.529 21.3727 38.6094 21.7838 37.9455 22.4508C37.2815 23.1147 36.8705 24.0312 36.8705 25.0453C36.8705 26.0593 37.2815 26.9791 37.9455 27.6429C38.6094 28.3069 39.5289 28.718 40.5432 28.718C41.5572 28.718 42.4739 28.3069 43.1409 27.6429C43.8048 26.9791 44.2157 26.0594 44.2157 25.0453C44.2157 24.0311 43.8046 23.1147 43.1409 22.4508Z" fill="#1C79CE"/>
<rect x="18.3789" y="29.6484" width="3.63391" height="1.59968" rx="0.799842" transform="rotate(22.7612 18.3789 29.6484)" fill="#D83339"/>
<rect x="23.1016" y="31.6377" width="3.62667" height="1.62674" rx="0.813371" transform="rotate(22.7612 23.1016 31.6377)" fill="#D83339"/>
<rect x="27.8008" y="33.5889" width="3.64835" height="1.63166" rx="0.815829" transform="rotate(22.7612 27.8008 33.5889)" fill="#D83339"/>
<rect x="26.3086" y="43.6543" width="3.62193" height="1.60099" rx="0.800494" transform="rotate(-14.9468 26.3086 43.6543)" fill="#1C79CE"/>
<rect x="24.5977" y="15.8281" width="3.70466" height="1.61668" rx="0.808339" transform="rotate(146.176 24.5977 15.8281)" fill="#D83339"/>
<rect x="20.2852" y="18.751" width="3.6442" height="1.61095" rx="0.805477" transform="rotate(146.176 20.2852 18.751)" fill="#D83339"/>
</g>
<defs>
<clipPath id="clip0">
<rect width="55" height="55" fill="white"/>
</clipPath>
</defs>
</svg>
