<svg width="55" height="55" viewBox="0 0 55 55" fill="none" xmlns="http://www.w3.org/2000/svg">
<g clip-path="url(#clip0)">
<path d="M24.0547 30.1289H30.9414V31.757H24.0547V30.1289Z" fill="#D83339"/>
<path d="M5.25906 40.7246C2.88361 36.7391 1.62811 32.1661 1.62811 27.5C1.62811 20.5898 4.31953 14.0928 9.20597 9.20597C14.0928 4.31953 20.5898 1.62811 27.5 1.62811C31.9618 1.62811 36.3598 2.78206 40.2194 4.96532L41.0209 3.54828C36.9175 1.22696 32.2421 0 27.5 0C20.155 0 13.249 2.86053 8.05496 8.05496C2.86053 13.249 0 20.1546 0 27.5C0 32.459 1.33522 37.3203 3.86047 41.5584C6.31271 45.6728 9.81148 49.0939 13.9791 51.4513L14.781 50.0343C10.8593 47.8162 7.56695 44.5969 5.25906 40.7246Z" fill="#1C79CE"/>
<path d="M51.9379 14.8746C49.9988 11.1291 47.1727 7.82626 43.765 5.32324L42.8011 6.63538C46.0079 8.99111 48.6674 12.0988 50.4919 15.6232C52.4041 19.3162 53.3734 23.3122 53.3734 27.5004C53.3734 34.4107 50.6824 40.9076 45.7955 45.7944C40.9091 50.6813 34.4117 53.3723 27.5015 53.3723C23.7132 53.3723 20.063 52.5725 16.6523 50.9947L15.9688 52.4722C19.5951 54.1498 23.4753 55.0004 27.5015 55.0004C34.8469 55.0004 41.7525 52.1399 46.947 46.9454C52.141 41.7514 55.0015 34.8458 55.0015 27.5004C55.0015 23.1121 53.9424 18.7459 51.9379 14.8746Z" fill="#1C79CE"/>
<path d="M37.7844 24.917H36.1563V35.2941H26.6406V36.9222H37.7844V24.917Z" fill="#1C79CE"/>
<path d="M37.785 18.0771H17.2188V36.9221H24.0585V35.294H18.8469V19.7053H24.1055V28.3137H30.8987V19.7053H36.1569V22.3346H37.785V18.0771ZM25.7336 26.6856V24.8703H29.2706V26.6856H25.7336ZM29.2706 23.2422H25.7336V19.7053H29.2706V23.2422Z" fill="#1C79CE"/>
<path d="M23.4805 7.98547L24.6319 9.13689L26.6855 7.08329V12.0046H28.3136V7.08329L30.3672 9.13689L31.5186 7.98547L27.4996 3.9668L23.4805 7.98547Z" fill="#D83339"/>
<path d="M31.5186 47.0142L30.3672 45.8628L28.3136 47.9164V42.9951H26.6855V47.9164L24.6319 45.8628L23.4805 47.0142L27.4996 51.0329L31.5186 47.0142Z" fill="#1C79CE"/>
<path d="M12.0065 26.6855H7.08524L9.13885 24.6319L7.98784 23.4805L3.96875 27.4996L7.98784 31.5186L9.13885 30.3672L7.08524 28.3136H12.0065V26.6855Z" fill="#1C79CE"/>
<path d="M42.9961 28.3136H47.9174L45.8638 30.3672L47.0152 31.5186L51.0339 27.4996L47.0152 23.4805L45.8638 24.6319L47.9174 26.6855H42.9961V28.3136Z" fill="#1C79CE"/>
<path d="M17.1705 42.1811H13.9709L16.8856 39.2664L15.7342 38.115L12.8195 41.0297V37.8301H11.1914V43.8092H17.1705V42.1811Z" fill="#1C79CE"/>
<path d="M37.832 12.8185H41.0316L38.1174 15.7332L39.2684 16.8842L42.183 13.97V17.1695H43.8111V11.1904H37.832V12.8185Z" fill="#1C79CE"/>
<path d="M17.1705 11.1904H11.1914V17.1695H12.8195V13.97L15.7342 16.8842L16.8856 15.7332L13.9709 12.8185H17.1705V11.1904Z" fill="#1C79CE"/>
<path d="M37.832 43.8092H43.8111V37.8301H42.183V41.0297L39.2684 38.115L38.1174 39.2664L41.0316 42.1811H37.832V43.8092Z" fill="#1C79CE"/>
<path d="M13.7266 30.1289H15.4478V31.757H13.7266V30.1289Z" fill="#1C79CE"/>
<path d="M13.7266 23.2422H15.4478V24.8703H13.7266V23.2422Z" fill="#1C79CE"/>
<path d="M39.5508 23.2422H41.2725V24.8703H39.5508V23.2422Z" fill="#1C79CE"/>
<path d="M39.5508 30.1289H41.2725V31.757H39.5508V30.1289Z" fill="#1C79CE"/>
<path d="M30.082 39.5986H31.8037V41.2267H30.082V39.5986Z" fill="#1C79CE"/>
<path d="M23.1953 39.5986H24.917V41.2267H23.1953V39.5986Z" fill="#1C79CE"/>
<path d="M23.1953 13.7734H24.917V15.4016H23.1953V13.7734Z" fill="#1C79CE"/>
<path d="M30.082 13.7734H31.8037V15.4016H30.082V13.7734Z" fill="#1C79CE"/>
<path d="M26.6406 13.7734H28.3623V15.4016H26.6406V13.7734Z" fill="#1C79CE"/>
<path d="M33.5273 13.7734H35.2486V15.4016H33.5273V13.7734Z" fill="#1C79CE"/>
<path d="M19.7539 13.7734H21.4756V15.4016H19.7539V13.7734Z" fill="#1C79CE"/>
<path d="M19.7539 39.5986H21.4756V41.2267H19.7539V39.5986Z" fill="#1C79CE"/>
<path d="M26.6406 39.5986H28.3623V41.2267H26.6406V39.5986Z" fill="#1C79CE"/>
<path d="M33.5273 39.5986H35.2486V41.2267H33.5273V39.5986Z" fill="#1C79CE"/>
<path d="M39.5508 33.5723H41.2725V35.2004H39.5508V33.5723Z" fill="#1C79CE"/>
<path d="M39.5508 26.6855H41.2725V28.3137H39.5508V26.6855Z" fill="#1C79CE"/>
<path d="M39.5508 19.7988H41.2725V21.4269H39.5508V19.7988Z" fill="#1C79CE"/>
<path d="M13.7266 19.7988H15.4478V21.4269H13.7266V19.7988Z" fill="#1C79CE"/>
<path d="M13.7266 26.6855H15.4478V28.3137H13.7266V26.6855Z" fill="#1C79CE"/>
<path d="M13.7266 33.5723H15.4478V35.2004H13.7266V33.5723Z" fill="#1C79CE"/>
</g>
<defs>
<clipPath id="clip0">
<rect width="55" height="55" fill="white"/>
</clipPath>
</defs>
</svg>
