<svg width="122" height="47" viewBox="0 0 122 47" fill="none" xmlns="http://www.w3.org/2000/svg">
<path d="M0 2.46823C0 1.10506 1.11472 0 2.4898 0H80.9184C82.2934 0 83.4082 1.10506 83.4082 2.46823V3.70235C83.4082 5.06551 82.2934 6.17058 80.9184 6.17058H2.48979C1.11472 6.17058 0 5.06551 0 3.70235V2.46823Z" fill="#1C79CE"/>
<path d="M38.5918 32.087C38.5918 30.7238 39.7066 29.6188 41.0816 29.6188H119.51C120.885 29.6188 122 30.6368 122 32L122 33.3211C122 34.6843 120.885 35.7893 119.51 35.7893H41.0816C39.7066 35.7893 38.5918 34.6843 38.5918 33.3211V32.087Z" fill="#1C79CE"/>
<path d="M9.95918 12.3412C9.95918 10.978 11.0739 9.87292 12.449 9.87292H70.9592C72.3343 9.87292 73.449 10.978 73.449 12.3412V13.5753C73.449 14.9384 72.3343 16.0435 70.9592 16.0435H12.449C11.0739 16.0435 9.95918 14.9384 9.95918 13.5753V12.3412Z" fill="#1C79CE"/>
<path d="M87.1429 6.17058C87.1429 4.80741 88.2576 3.70235 89.6327 3.70235H100.837C102.212 3.70235 103.327 4.80741 103.327 6.17058V7.40469C103.327 8.76786 102.212 9.87292 100.837 9.87292H89.6327C88.2576 9.87292 87.1429 8.76786 87.1429 7.40469V6.17058Z" fill="#1C79CE"/>
<path d="M100.241 5.03791C101.397 4.3003 102.938 4.63166 103.682 5.77803L111.521 18.0333C112 19 112.228 20.9881 111.072 21.7257L110.025 22.3935C108.869 23.1311 107.328 22.7997 106.584 21.6533L98.4472 9.11692C97.7031 7.97056 98.0374 6.44329 99.1938 5.70569L100.241 5.03791Z" fill="#1C79CE"/>
<path d="M108.11 18.9012C108.81 17.7279 110.5 17 111.521 18.0333L120.623 23.3469C121.806 24.0409 122.185 25.5706 121.485 26.7439L120.851 27.8061C120.151 28.9794 118.624 29.3679 117.441 28.6739L107.329 22.3935C106.5 21.5 106.776 21.1366 107.476 19.9634L108.11 18.9012Z" fill="#1C79CE"/>
<path d="M119.5 23C120.875 23 122 24.5 122 25.9164V33.3211C122 34.6843 120.885 35.7893 119.51 35.7893H118.265C116.89 35.7893 115.776 34.6843 115.776 33.3211V25.9164C115.776 24.5533 116.89 23.4482 118.265 23.4482L119.5 23Z" fill="#1C79CE"/>
<path d="M24.898 22.2141C24.898 20.8509 26.0127 19.7458 27.3878 19.7458H70.9592C72.3343 19.7458 73.449 20.8509 73.449 22.2141V23.4482C73.449 24.8114 72.3343 25.9164 70.9592 25.9164H27.3878C26.0127 25.9164 24.898 24.8114 24.898 23.4482V22.2141Z" fill="#1C79CE"/>
<path d="M78.4286 3.08529C78.4286 1.38133 79.822 0 81.5408 0C83.2597 0 84.6531 1.38133 84.6531 3.08529V25.2994C84.6531 27.0033 83.2597 28.3847 81.5408 28.3847C79.822 28.3847 78.4286 27.0033 78.4286 25.2994V3.08529Z" fill="#1C79CE"/>
<path d="M87.1429 6.78764C87.1429 5.08368 88.5363 3.70235 90.2551 3.70235C91.9739 3.70235 93.3673 5.08368 93.3673 6.78764V22.8311C93.3673 24.5351 91.9739 25.9164 90.2551 25.9164C88.5363 25.9164 87.1429 24.5351 87.1429 22.8311V6.78764Z" fill="#1C79CE"/>
<path d="M44.757 40.395H42.553V46H41.3275V40.395H39.133V39.35H44.757V40.395Z" fill="#1C79CE"/>
<path d="M48.7481 39.35C49.3244 39.35 49.8248 39.445 50.2491 39.635C50.6798 39.825 51.0091 40.0973 51.2371 40.452C51.4651 40.8067 51.5791 41.2278 51.5791 41.7155C51.5791 42.1968 51.4651 42.618 51.2371 42.979C51.0091 43.3337 50.6798 43.606 50.2491 43.796C49.8248 43.986 49.3244 44.081 48.7481 44.081H47.2471V46H46.0121V39.35H48.7481ZM48.6911 43.036C49.2294 43.036 49.6379 42.922 49.9166 42.694C50.1953 42.466 50.3346 42.1398 50.3346 41.7155C50.3346 41.2912 50.1953 40.965 49.9166 40.737C49.6379 40.509 49.2294 40.395 48.6911 40.395H47.2471V43.036H48.6911Z" fill="#1C79CE"/>
<path d="M57.0115 44.461H53.6865L53.031 46H51.758L54.7505 39.35H55.9665L58.9685 46H57.6765L57.0115 44.461ZM56.603 43.492L55.349 40.585L54.1045 43.492H56.603Z" fill="#1C79CE"/>
<path d="M66.0872 39.35V46H64.8522V43.15H61.4132V46H60.1782V39.35H61.4132V42.0955H64.8522V39.35H66.0872Z" fill="#1C79CE"/>
<path d="M71.2017 46.095C70.5303 46.095 69.9223 45.9493 69.3777 45.658C68.8393 45.3603 68.415 44.9518 68.1047 44.4325C67.8007 43.9132 67.6487 43.3273 67.6487 42.675C67.6487 42.0227 67.8038 41.4368 68.1142 40.9175C68.4245 40.3982 68.8488 39.9928 69.3872 39.7015C69.9318 39.4038 70.5398 39.255 71.2112 39.255C71.7558 39.255 72.253 39.35 72.7027 39.54C73.1523 39.73 73.5323 40.0055 73.8427 40.3665L73.0447 41.117C72.5633 40.5977 71.9712 40.338 71.2682 40.338C70.8122 40.338 70.4037 40.4393 70.0427 40.642C69.6817 40.8383 69.3998 41.1138 69.1972 41.4685C68.9945 41.8232 68.8932 42.2253 68.8932 42.675C68.8932 43.1247 68.9945 43.5268 69.1972 43.8815C69.3998 44.2362 69.6817 44.5148 70.0427 44.7175C70.4037 44.9138 70.8122 45.012 71.2682 45.012C71.9712 45.012 72.5633 44.7492 73.0447 44.2235L73.8427 44.9835C73.5323 45.3445 73.1492 45.62 72.6932 45.81C72.2435 46 71.7463 46.095 71.2017 46.095Z" fill="#1C79CE"/>
<path d="M74.7245 42.865H77.337V43.853H74.7245V42.865Z" fill="#1C79CE"/>
<path d="M82.0836 46.095C81.4123 46.095 80.8043 45.9493 80.2596 45.658C79.7213 45.3603 79.2969 44.9518 78.9866 44.4325C78.6826 43.9132 78.5306 43.3273 78.5306 42.675C78.5306 42.0227 78.6858 41.4368 78.9961 40.9175C79.3064 40.3982 79.7308 39.9928 80.2691 39.7015C80.8138 39.4038 81.4218 39.255 82.0931 39.255C82.6378 39.255 83.1349 39.35 83.5846 39.54C84.0343 39.73 84.4143 40.0055 84.7246 40.3665L83.9266 41.117C83.4453 40.5977 82.8531 40.338 82.1501 40.338C81.6941 40.338 81.2856 40.4393 80.9246 40.642C80.5636 40.8383 80.2818 41.1138 80.0791 41.4685C79.8764 41.8232 79.7751 42.2253 79.7751 42.675C79.7751 43.1247 79.8764 43.5268 80.0791 43.8815C80.2818 44.2362 80.5636 44.5148 80.9246 44.7175C81.2856 44.9138 81.6941 45.012 82.1501 45.012C82.8531 45.012 83.4453 44.7492 83.9266 44.2235L84.7246 44.9835C84.4143 45.3445 84.0311 45.62 83.5751 45.81C83.1254 46 82.6283 46.095 82.0836 46.095Z" fill="#1C79CE"/>
<path d="M91.0488 44.9645V46H86.0613V39.35H90.9158V40.3855H87.2963V42.1145H90.5073V43.131H87.2963V44.9645H91.0488Z" fill="#1C79CE"/>
<path d="M95.3516 39.35C95.9279 39.35 96.4282 39.445 96.8526 39.635C97.2832 39.825 97.6126 40.0973 97.8406 40.452C98.0686 40.8067 98.1825 41.2278 98.1825 41.7155C98.1825 42.1968 98.0686 42.618 97.8406 42.979C97.6126 43.3337 97.2832 43.606 96.8526 43.796C96.4282 43.986 95.9279 44.081 95.3516 44.081H93.8505V46H92.6156V39.35H95.3516ZM95.2945 43.036C95.8329 43.036 96.2414 42.922 96.5201 42.694C96.7987 42.466 96.938 42.1398 96.938 41.7155C96.938 41.2912 96.7987 40.965 96.5201 40.737C96.2414 40.509 95.8329 40.395 95.2945 40.395H93.8505V43.036H95.2945Z" fill="#1C79CE"/>
<path d="M103.92 42.542C104.345 42.656 104.668 42.8523 104.889 43.131C105.111 43.4033 105.222 43.7453 105.222 44.157C105.222 44.7397 105.007 45.1925 104.576 45.5155C104.145 45.8385 103.521 46 102.704 46H99.5504V39.35H102.524C103.271 39.35 103.854 39.4988 104.272 39.7965C104.69 40.0942 104.899 40.5153 104.899 41.06C104.899 41.4083 104.813 41.7092 104.642 41.9625C104.478 42.2158 104.237 42.409 103.92 42.542ZM100.766 42.1905H102.419C102.818 42.1905 103.122 42.1113 103.331 41.953C103.54 41.7947 103.645 41.5603 103.645 41.25C103.645 40.9397 103.54 40.7053 103.331 40.547C103.122 40.3823 102.818 40.3 102.419 40.3H100.766V42.1905ZM102.666 45.05C103.54 45.05 103.977 44.7207 103.977 44.062C103.977 43.416 103.54 43.093 102.666 43.093H100.766V45.05H102.666Z" fill="#1C79CE"/>
<path d="M106.828 39.35H108.044V44.0715L111.616 39.35H112.766V46H111.55V41.288L107.978 46H106.828V39.35Z" fill="#1C79CE"/>
<path d="M117.879 46.095C117.208 46.095 116.6 45.9493 116.055 45.658C115.517 45.3603 115.093 44.9518 114.782 44.4325C114.478 43.9132 114.326 43.3273 114.326 42.675C114.326 42.0227 114.481 41.4368 114.792 40.9175C115.102 40.3982 115.526 39.9928 116.065 39.7015C116.609 39.4038 117.217 39.255 117.889 39.255C118.433 39.255 118.931 39.35 119.38 39.54C119.83 39.73 120.21 40.0055 120.52 40.3665L119.722 41.117C119.241 40.5977 118.649 40.338 117.946 40.338C117.49 40.338 117.081 40.4393 116.72 40.642C116.359 40.8383 116.077 41.1138 115.875 41.4685C115.672 41.8232 115.571 42.2253 115.571 42.675C115.571 43.1247 115.672 43.5268 115.875 43.8815C116.077 44.2362 116.359 44.5148 116.72 44.7175C117.081 44.9138 117.49 45.012 117.946 45.012C118.649 45.012 119.241 44.7492 119.722 44.2235L120.52 44.9835C120.21 45.3445 119.827 45.62 119.371 45.81C118.921 46 118.424 46.095 117.879 46.095Z" fill="#1C79CE"/>
</svg>
