<svg width="143" height="145" viewBox="0 0 143 145" fill="none" xmlns="http://www.w3.org/2000/svg">
<g clip-path="url(#clip0)">
<path d="M60.9723 129.261C60.9248 129.119 60.8209 129.004 60.6857 128.944L36.5764 118.223L38.94 116.837C41.2501 115.482 43.283 113.74 44.988 111.657L55.7459 111.945C55.7505 111.945 55.7551 111.945 55.7597 111.945C55.8594 111.945 55.9572 111.916 56.0415 111.862L58.1164 110.52C58.296 110.403 58.3888 110.188 58.3513 109.975C58.3138 109.762 58.1531 109.593 57.9448 109.548L47.839 107.341L49.5488 104.403C49.8957 103.807 49.978 103.118 49.7806 102.464C49.6307 101.968 49.3318 101.536 48.9345 101.228L52.0996 92.9115C52.1794 92.702 52.1215 92.4641 51.9547 92.3166C51.788 92.1692 51.5483 92.1437 51.355 92.2526L45.4133 95.6075C45.3479 95.6444 45.2912 95.6949 45.2467 95.7559L40.274 102.562L37.5231 98.3668C37.3651 98.1257 37.0469 98.0568 36.8059 98.2116L35.0135 99.3619C34.8452 99.47 34.7515 99.6653 34.7715 99.8666L35.415 106.359C32.6051 108.003 29.2101 109.991 25.7055 112.047L13.4784 101.043C13.3297 100.909 13.1194 100.872 12.9354 100.947C11.347 101.593 10.5674 103.376 11.1607 105.007L13.4358 111.262L9.75815 113.747C9.2951 114.034 9.01476 114.579 8.98969 115.252C8.96711 115.857 9.14587 116.527 9.49316 117.139C9.84044 117.75 10.3221 118.243 10.8495 118.526C11.1689 118.697 11.4943 118.783 11.8013 118.783C12.0685 118.783 12.3218 118.718 12.5452 118.587C12.5579 118.579 15.3733 116.589 15.3733 116.589L15.8322 117.851C12.0085 120.105 8.64884 122.095 6.50609 123.384C4.13051 124.813 2.25196 126.852 1.07348 129.28C0.669503 130.112 0.344665 130.989 0.107894 131.885C-0.183213 132.989 0.122988 134.125 0.92688 134.924C1.51277 135.506 2.26876 135.815 3.05375 135.815C3.34486 135.815 3.64003 135.772 3.9318 135.685C5.87872 135.104 7.80675 134.4 9.66194 133.592C11.519 132.784 13.3512 131.852 15.1078 130.821L24.691 125.197L33.1663 126.83L31.5188 127.916C31.0526 128.202 30.7704 128.749 30.7452 129.424C30.7226 130.03 30.9014 130.7 31.2486 131.311C31.8341 132.342 32.7441 132.957 33.5585 132.957C33.8204 132.957 34.0724 132.893 34.3007 132.759C34.3135 132.752 40.6525 128.273 40.6525 128.273L57.2244 131.467C57.4437 131.509 57.6629 131.529 57.88 131.529C59.1359 131.529 60.312 130.841 60.9346 129.69C61.0063 129.559 61.0198 129.403 60.9723 129.261ZM56.4726 110.318L55.6131 110.874L42.6327 110.527C43.5248 109.828 45.0554 108.896 46.4958 108.139L56.4726 110.318ZM46.022 96.4845L50.5969 93.9014L47.324 102.501L37.9446 107.539L46.022 96.4845ZM36.9334 99.3918L39.609 103.472L39.0554 104.229C38.2763 104.685 37.3878 105.205 36.4125 105.775L35.8487 100.088L36.9334 99.3918ZM12.086 117.613L12.008 117.668C11.847 117.754 11.6049 117.724 11.3398 117.582C10.9903 117.394 10.6487 117.038 10.4027 116.605C10.1566 116.172 10.0241 115.693 10.039 115.292C10.0506 114.98 10.1495 114.747 10.3104 114.653C10.3725 114.616 10.4475 114.598 10.532 114.598C10.6662 114.598 10.8243 114.644 10.9911 114.733C11.3406 114.921 11.6822 115.277 11.9282 115.71C12.3859 116.516 12.3828 117.337 12.086 117.613ZM13.3333 116.732C13.2951 116.233 13.1323 115.695 12.8376 115.176C12.5032 114.588 12.0437 114.111 11.5393 113.824L13.8099 112.29L14.9976 115.556L13.3333 116.732ZM12.1453 104.637C11.7878 103.654 12.1802 102.588 13.0435 102.077L24.7465 112.61C22.0498 114.192 19.3147 115.8 16.7543 117.308L12.1453 104.637ZM1.87423 134.346C1.80007 134.289 1.7288 134.228 1.66108 134.161C1.13333 133.637 0.931867 132.891 1.12139 132.166C1.29464 132.046 1.49715 131.98 1.70465 131.98C2.30669 131.98 2.79663 132.514 2.79663 133.171C2.7965 133.76 2.39449 134.256 1.87423 134.346ZM14.5832 129.897C12.8627 130.906 11.068 131.819 9.2489 132.611C7.43178 133.402 5.54339 134.092 3.63662 134.661C3.50485 134.7 3.37216 134.726 3.23999 134.738C3.61457 134.33 3.84649 133.776 3.84649 133.17C3.84649 131.926 2.88562 130.913 1.70452 130.913C1.64126 130.913 1.57839 130.916 1.51579 130.922C1.66384 130.524 1.83052 130.133 2.01545 129.752C2.04564 129.69 2.07818 129.629 2.10929 129.567C2.67904 130.259 3.78874 130.607 5.41726 130.607C5.83292 130.607 6.28231 130.585 6.76517 130.539C7.05392 130.512 7.26628 130.252 7.2395 129.959C7.21273 129.665 6.9564 129.452 6.66831 129.476C4.05858 129.723 3.20363 129.218 2.92618 128.897C2.77012 128.716 2.75162 128.536 2.75569 128.437C3.82719 126.771 5.28654 125.357 7.04092 124.302C13.1187 120.646 28.996 111.344 37.4842 106.379L35.7209 108.792C35.5747 108.992 35.5842 109.269 35.7439 109.458C35.8464 109.579 35.9933 109.644 36.1426 109.644C36.226 109.644 36.31 109.624 36.3877 109.582L47.9882 103.352C48.1002 103.291 48.187 103.192 48.2325 103.072L48.5256 102.302C48.6369 102.441 48.7235 102.601 48.7765 102.777C48.8862 103.14 48.8394 103.525 48.6449 103.859L46.7566 107.104L46.5328 107.055C46.4147 107.029 46.2915 107.046 46.1837 107.102C45.4179 107.499 41.5664 109.545 40.9544 110.789C40.8741 110.952 40.8814 111.146 40.9737 111.302C41.0661 111.459 41.2307 111.556 41.4101 111.561L43.6311 111.621C42.1241 113.322 40.374 114.764 38.415 115.912L35.3815 117.692L35.0324 117.537C34.9162 117.485 34.7856 117.478 34.6646 117.517C34.3282 117.624 26.3857 120.189 22.7511 123.98C22.6162 124.121 22.5683 124.325 22.6265 124.513C22.6846 124.7 22.8395 124.84 23.0294 124.877L23.1106 124.892L14.5832 129.897ZM33.84 131.788L33.7672 131.839C33.4033 132.039 32.6439 131.632 32.1585 130.778C31.9124 130.345 31.7799 129.866 31.7949 129.465C31.8064 129.153 31.9055 128.919 32.0663 128.825C32.1293 128.788 32.2047 128.77 32.2889 128.77C32.6865 128.77 33.2802 129.172 33.6839 129.882C34.1428 130.69 34.1389 131.514 33.84 131.788ZM35.0892 130.905C35.0513 130.406 34.8883 129.868 34.5934 129.349C34.25 128.744 33.7948 128.284 33.3129 128.005L34.6686 127.12L39.2079 127.994L35.0892 130.905ZM57.4205 130.418L24.2436 124.024C27.629 121.093 33.6633 118.976 34.7947 118.596L59.6744 129.659C59.1125 130.283 58.2665 130.582 57.4205 130.418Z" fill="#1C79CE"/>
</g>
<path d="M61 11.5802C61 11.3936 60.902 11.2209 60.7428 11.1275L49.858 4.73999C49.6989 4.64654 49.5029 4.64667 49.3439 4.73973L8.26986 28.8077C8.11067 28.9012 8.01255 29.0737 8.01242 29.2606V29.2607V32.696L1.46464 36.4884C1.32885 36.5671 1.23768 36.7034 1.2126 36.8573L0.025075 44.1268C0.00925846 44.1774 0 44.2304 0 44.285V50.4207C0 50.6075 0.0981139 50.7801 0.257179 50.8734L11.1413 57.2597C11.2209 57.3064 11.3097 57.3298 11.3984 57.3298C11.4872 57.3298 11.576 57.3064 11.6556 57.2597C11.6567 57.2591 16.4235 54.5068 16.4235 54.5068C16.5117 55.1716 16.8153 55.7209 17.33 56.0229C17.5965 56.1792 17.8909 56.2536 18.1979 56.2536C19.1743 56.2536 20.2753 55.5013 20.9885 54.2458C21.4142 53.4964 21.6334 52.6771 21.6059 51.9389C21.6002 51.7861 21.581 51.6421 21.5551 51.5029L30.2977 46.3731C30.4 46.9995 30.701 47.5142 31.1937 47.8033C31.4601 47.9597 31.7546 48.034 32.0615 48.034C33.0379 48.0339 34.1389 47.2817 34.8522 46.0262C35.1434 45.5136 35.3353 44.9686 35.4203 44.4389C35.5709 44.6867 35.7689 44.8937 36.0187 45.0405C36.2852 45.1968 36.5797 45.2712 36.8866 45.2712C37.863 45.2712 38.964 44.5189 39.6773 43.2634C40.103 42.5141 40.3223 41.6947 40.2947 40.9565C40.2892 40.8096 40.271 40.671 40.2469 40.5367L40.81 40.2064C40.9692 40.1129 41.0672 39.9404 41.0672 39.7535V36.3325L44.239 34.4741C44.239 34.4741 47.194 36.1984 47.2039 36.2042C47.2831 36.2503 47.3714 36.2733 47.4596 36.2733C47.5495 36.2733 47.6394 36.2494 47.7196 36.2016L48.7043 35.6151C48.8091 36.2587 49.1169 36.7581 49.5967 37.0397C49.8604 37.1946 50.154 37.2716 50.4648 37.2716C50.8262 37.2716 51.2107 37.1673 51.598 36.9595C52.2409 36.6144 52.8293 36.0118 53.2549 35.2625C53.5536 34.7367 53.742 34.1956 53.8256 33.6807C53.9776 33.9287 54.1759 34.1326 54.4216 34.2768C54.6853 34.4316 54.9789 34.5086 55.2897 34.5086C55.6512 34.5086 56.0357 34.4043 56.423 34.1965C57.0658 33.8515 57.6544 33.2488 58.08 32.4995C58.6139 31.5596 58.7975 30.5702 58.652 29.7712L59.2126 29.4424C59.3718 29.3489 59.4698 29.1764 59.4698 28.9895V25.5496L60.7423 24.8039C60.9016 24.7105 60.9997 24.5378 60.9997 24.3509L61 11.5802ZM49.6007 5.79629L59.4565 11.5798L19.4109 35.0436L9.55602 29.261L49.6007 5.79629ZM9.04114 30.1662L18.8964 35.949V38.4842L9.04114 32.7004V30.1662ZM8.52305 33.6038L18.3748 39.3855L12.605 42.7265L2.75311 36.9458L8.52305 33.6038ZM8.15452 54.3002L3.75829 51.7205V49.7663L8.15452 52.3459V54.3002ZM8.92605 51.5914L3.50111 48.4082C3.34192 48.3148 3.14582 48.3148 2.98675 48.4082C2.82756 48.5015 2.72957 48.6742 2.72957 48.8609V48.8825L1.02872 47.8429V45.1904L10.8841 50.9737L10.884 53.7351L9.18323 52.6952V52.0441C9.18323 51.8574 9.08512 51.6847 8.92605 51.5914ZM11.8411 44.8651L1.89966 39.0317L2.10514 37.7727L12.0395 43.6019L11.8411 44.8651ZM11.6673 45.9704L11.0551 49.8667L1.08581 44.0166L1.71976 40.1333L11.6673 45.9704ZM13.0723 43.6593L14.4627 42.8542V48.2733L12.1323 49.6409L13.0723 43.6593ZM1.02872 49.063L2.72957 50.1026V51.1169L1.02872 50.1189V49.063ZM9.18323 54.9039V53.9155L10.884 54.9552V55.9018L9.18323 54.9039ZM17.0151 51.9142C17.015 51.9142 17.015 51.9142 17.0151 51.9142C16.7606 52.3622 16.5882 52.8209 16.4903 53.2657L11.9129 55.9084V50.9769L15.2344 49.0278C15.3936 48.9345 15.4916 48.7619 15.4916 48.5751V42.2585L18.8964 40.2869V50.1092C18.8218 50.1416 18.7471 50.1771 18.6721 50.2172C18.0293 50.5621 17.4408 51.1649 17.0151 51.9142ZM20.0975 53.723C19.4154 54.9236 18.3625 55.4217 17.8444 55.1176C17.3262 54.8134 17.2239 53.6377 17.906 52.437C18.2313 51.8644 18.6856 51.3923 19.1524 51.1419C19.3819 51.0188 19.8179 50.8424 20.1593 51.0424C20.5007 51.2428 20.5681 51.7149 20.578 51.9783C20.5978 52.5146 20.4227 53.1504 20.0975 53.723ZM20.6735 50.1371C20.444 50.0023 20.1914 49.9274 19.925 49.9101V48.7203L25.3916 45.5173V48.0443L21.135 50.542C21.005 50.3803 20.8526 50.242 20.6735 50.1371ZM33.9611 45.5033C33.2789 46.7039 32.2261 47.2017 31.7079 46.8979C31.1897 46.5937 31.0875 45.418 31.7695 44.2173C32.0947 43.6447 32.549 43.1726 33.0158 42.9222C33.1704 42.8392 33.4184 42.7321 33.6683 42.7321C33.7894 42.7321 33.911 42.7574 34.0225 42.8227C34.3639 43.0231 34.4314 43.4951 34.4412 43.7586C34.4614 44.2949 34.2864 44.9309 33.9611 45.5033ZM38.7861 42.7405C38.104 43.9411 37.0512 44.4389 36.533 44.135C36.0146 43.8309 35.9125 42.6551 36.5946 41.4544C36.9198 40.8818 37.3741 40.4098 37.8409 40.1593C37.9954 40.0764 38.2435 39.9693 38.4933 39.9693C38.6145 39.9693 38.7361 39.9945 38.8476 40.0599C39.189 40.2602 39.2565 40.7323 39.2663 40.9958C39.2865 41.5321 39.1115 42.1679 38.7861 42.7405ZM40.0383 39.4515L39.8336 39.5716C39.7017 39.4046 39.5458 39.2622 39.3622 39.1544C38.7918 38.8194 38.0811 38.8481 37.3607 39.2345C36.7179 39.5796 36.1295 40.1822 35.7037 40.9315C35.445 41.3869 35.2713 41.8533 35.1743 42.3049L35.0456 42.3804C34.9068 42.1924 34.7377 42.035 34.5371 41.9172C33.9667 41.5824 33.256 41.6109 32.5356 41.9973C31.8928 42.3424 31.3044 42.945 30.8788 43.6943C30.6054 44.1756 30.4263 44.6695 30.3333 45.1447L26.4203 47.4406V44.9143L40.0382 36.935V39.4515H40.0383ZM45.2682 33.8708L46.945 32.8884V34.8548L45.2682 33.8708ZM52.364 34.7397C52.0388 35.3123 51.5845 35.7844 51.1178 36.0348C50.8882 36.1579 50.4524 36.3343 50.1109 36.1342C49.7695 35.9339 49.702 35.4618 49.6922 35.1983C49.6721 34.6621 49.8473 34.0262 50.1725 33.4536C50.8547 32.253 51.9073 31.7551 52.4256 32.0591C52.944 32.3632 53.0461 33.539 52.364 34.7397ZM57.1892 31.9768C56.8639 32.5493 56.4096 33.0214 55.9428 33.2718C55.7133 33.3948 55.2775 33.5714 54.936 33.3713C54.5946 33.1709 54.5272 32.6989 54.5173 32.4354C54.4973 31.8991 54.6724 31.2633 54.9976 30.6907C55.6797 29.4901 56.7324 28.9919 57.2507 29.2961C57.7689 29.6004 57.8712 30.7762 57.1892 31.9768ZM58.4413 28.6877L58.2362 28.808C58.1056 28.642 57.9501 28.4993 57.7652 28.3907C56.6511 27.7369 55.0442 28.5178 54.1068 30.1679C53.8549 30.6115 53.6773 31.0795 53.5784 31.5407L53.449 31.6167C53.3116 31.4299 53.1425 31.2723 52.9403 31.1536C51.8262 30.4999 50.2193 31.2808 49.2819 32.9308C49.0151 33.4004 48.8295 33.8975 48.7349 34.385L47.974 34.8381V32.2856L58.4415 26.1523V28.6877H58.4413ZM19.925 47.5133V35.9492L59.9713 12.485V24.0489L19.925 47.5133Z" fill="#1C79CE"/>
<g clip-path="url(#clip1)">
<path d="M142.829 22.8716C142.546 20.7799 141.426 18.9781 139.696 17.8332L139.89 17.7555C140.075 17.6813 140.203 17.504 140.218 17.2995C140.233 17.0949 140.134 16.8994 139.962 16.797L131.069 11.4901V5.79205C131.069 4.56444 129.573 3.63867 127.591 3.63867C125.608 3.63867 124.113 4.56444 124.113 5.79205V7.33989L120.545 5.2113C120.409 5.13054 120.246 5.11761 120.1 5.17585L106.494 10.6261C106.308 10.7004 106.181 10.8776 106.166 11.0822C106.15 11.2867 106.25 11.4822 106.422 11.5847L111.147 14.4042V21.5777L86.5012 36.2799C84.2964 37.5948 82.9922 39.9452 83.0063 42.5673C82.9917 43.1746 83.0072 45.4047 83.0072 45.4888C83.0072 48.1006 84.3134 50.4397 86.5015 51.7464C86.741 51.8894 90.6753 54.5436 90.6753 54.5436C94.0727 56.8934 98.0281 58.2092 102.114 58.3491C102.357 58.3575 102.598 58.3616 102.841 58.3616C106.676 58.3616 110.441 57.3211 113.772 55.3343L134.128 43.19C138.272 40.7178 141.135 36.5087 141.982 31.6422C141.982 31.6422 142.401 29.5584 142.444 29.4406C142.8 28.4676 143.023 26.345 142.998 24.7374C142.99 24.1727 142.849 23.0151 142.829 22.8716ZM125.839 23.1706C125.918 23.2179 126.007 23.242 126.097 23.242C126.16 23.242 126.223 23.23 126.283 23.2059L126.291 23.2026V29.0936L119.843 25.246V19.5929L125.839 23.1706ZM137.189 18.8375V28.0291L134.803 29.4526V19.7934L137.189 18.8375ZM133.771 30.068L130.547 31.9914V21.498L133.771 20.2066V30.068ZM129.516 32.6068L127.323 33.9146V22.7894L129.516 21.9112V32.6068ZM126.291 30.3246V33.9146L112.179 25.4942V21.9041L126.291 30.3246ZM111.405 26.2635L126.55 35.2996C126.629 35.3472 126.718 35.371 126.807 35.371C126.896 35.371 126.986 35.3472 127.065 35.2996L137.963 28.7984C138.123 28.7033 138.221 28.5272 138.221 28.3368V20.8135C138.436 20.9313 138.648 21.052 138.855 21.1758C140.372 22.0805 141.384 23.5405 141.718 25.2937C141.356 26.9339 140.356 28.3624 138.889 29.2372L107.655 47.8713C104.473 49.77 100.905 50.7192 97.3372 50.7189C93.7689 50.7188 90.1996 49.769 87.0173 47.8699C87.0103 47.8658 87.0032 47.8617 86.996 47.8578C85.9959 47.2558 85.2127 46.3968 84.7043 45.3846C84.1954 44.3713 84.203 43.1762 84.7316 42.1736C85.2447 41.201 86.0121 40.3881 86.9837 39.8086L111.148 25.3941V25.8021C111.147 25.9923 111.246 26.1682 111.405 26.2635ZM138.889 18.5707C140.359 19.4473 141.357 20.8565 141.718 22.5187C141.132 21.6033 140.34 20.8305 139.371 20.2526C138.998 20.0302 138.613 19.8165 138.221 19.6144V18.4242L138.467 18.3257C138.615 18.4088 138.754 18.4897 138.889 18.5707ZM125.144 10.1279C125.763 10.4997 126.618 10.7229 127.591 10.7229C128.563 10.7229 129.418 10.4998 130.037 10.1279V16.4414C130.037 16.8848 129.084 17.5287 127.591 17.5287C126.097 17.5287 125.144 16.8848 125.144 16.4414V10.1279ZM127.591 9.65678C126.097 9.65678 125.144 9.01286 125.144 8.5695V7.35068C125.763 7.72262 126.618 7.9457 127.591 7.9457C128.563 7.9457 129.418 7.72262 130.037 7.35068V8.5695C130.037 9.01286 129.084 9.65678 127.591 9.65678ZM127.591 4.70477C129.084 4.70477 130.037 5.34869 130.037 5.79205C130.037 6.23541 129.084 6.87947 127.591 6.87947C126.097 6.87947 125.144 6.23541 125.144 5.79205C125.144 5.34869 126.097 4.70477 127.591 4.70477ZM120.243 6.26207L124.113 8.5707V16.4413C124.113 17.6689 125.608 18.5947 127.591 18.5947C129.573 18.5947 131.069 17.6689 131.069 16.4413V12.721L138.513 17.1637L126.141 22.1197L107.87 11.2181L120.243 6.26207ZM118.812 18.9775V24.6306L112.179 20.6732V15.02L118.812 18.9775ZM87.017 37.2031L111.147 22.8087V24.1629L86.4678 38.8851C85.5542 39.43 84.7955 40.1525 84.2193 41.0056C84.6045 39.4175 85.5885 38.0552 87.017 37.2031ZM84.1135 46.4573C84.7035 47.4008 85.512 48.2035 86.4999 48.7929C86.5072 48.7973 86.5146 48.8014 86.5222 48.8054C89.8587 50.7914 93.5976 51.7844 97.3369 51.7844C101.083 51.7844 104.829 50.7877 108.171 48.7942L139.404 30.1603C140.37 29.5841 141.164 28.8029 141.75 27.8885C141.675 28.3662 141.583 28.7791 141.479 29.0633C140.994 30.3862 140.099 31.4674 138.888 32.1899L107.656 50.8231C104.473 52.7223 100.905 53.6716 97.3365 53.6713C93.7686 53.6712 90.1996 52.7217 87.0174 50.8233C85.4281 49.874 84.3872 48.2845 84.1135 46.4573ZM107.449 52.1813C107.449 53.3782 106.981 54.1723 106.672 54.1723C106.441 54.1723 106.093 53.6948 105.955 52.895C106.459 52.6693 106.958 52.4246 107.448 52.1574C107.448 52.1654 107.449 52.1732 107.449 52.1813ZM133.612 42.2668L113.256 54.4111C109.882 56.4236 106.042 57.4165 102.148 57.2837C98.4469 57.1569 94.8591 56.0154 91.7325 53.9796C93.5661 54.4844 95.4511 54.7373 97.3365 54.7372C99.9298 54.737 102.524 54.2584 104.983 53.303C105.24 54.4699 105.885 55.2385 106.672 55.2385C107.703 55.2385 108.48 53.9243 108.48 52.1815C108.48 51.9777 108.468 51.778 108.446 51.5829L139.404 33.1134C139.949 32.7879 140.44 32.3991 140.87 31.9562C139.972 36.2993 137.349 40.0373 133.612 42.2668Z" fill="#1C79CE"/>
</g>
<g clip-path="url(#clip2)">
<path d="M143 95.8593C143 95.6622 142.898 95.4801 142.733 95.3814L127.895 86.5291C127.73 86.4304 127.526 86.4304 127.361 86.5289L83.2673 112.803C83.102 112.901 83 113.281 83 113.281V132.143C83 132.34 83.1017 132.522 83.267 132.621L87.738 135.288L86.9083 135.778C86.1042 134.727 84.9611 134.292 84.1288 134.788C83.1711 135.359 83.0403 136.915 83.8309 138.33C84.1859 138.966 84.6781 139.477 85.2171 139.771C85.5433 139.949 85.8758 140.039 86.1892 140.039C86.462 140.039 86.7206 139.971 86.9486 139.835C87.4388 139.542 87.7349 138.966 87.7611 138.253C87.779 137.764 87.6712 137.235 87.4563 136.725L88.8087 135.926L98.1036 141.471C98.1862 141.521 98.2785 141.545 98.3706 141.545C98.4627 141.545 98.5548 141.521 98.6373 141.472L103.393 138.638C103.409 139.705 103.815 140.566 104.546 141.002C104.873 141.197 105.236 141.29 105.614 141.29C106.839 141.29 108.231 140.316 109.138 138.694C109.507 138.032 109.75 137.335 109.86 136.665C110.046 136.969 110.289 137.218 110.587 137.396C110.91 137.589 111.27 137.685 111.652 137.685C112.102 137.685 112.583 137.551 113.069 137.286C113.887 136.84 114.636 136.059 115.178 135.086C115.429 134.639 115.619 134.175 115.752 133.714L128.515 126.1C128.638 126.226 128.774 126.337 128.926 126.428C129.249 126.62 129.609 126.716 129.992 126.716C130.442 126.716 130.922 126.583 131.407 126.319C132.225 125.873 132.974 125.092 133.518 124.119C133.887 123.459 134.129 122.76 134.239 122.088C134.425 122.394 134.669 122.644 134.967 122.821C135.29 123.014 135.65 123.11 136.032 123.11C136.483 123.11 136.964 122.977 137.449 122.712C138.267 122.266 139.016 121.484 139.56 120.511C140.28 119.222 140.519 117.786 140.224 116.694L142.733 115.199C142.898 115.101 143 114.918 143 114.721L143 95.8593ZM86.4147 138.879C86.2492 138.978 85.9943 138.947 85.7157 138.795C85.3576 138.6 85.0079 138.229 84.7559 137.778C84.2547 136.881 84.2934 135.964 84.6628 135.744C84.7275 135.705 84.8049 135.686 84.8916 135.686C85.2994 135.686 85.9081 136.104 86.3215 136.845C86.5734 137.296 86.7092 137.794 86.6939 138.212C86.6818 138.537 86.5801 138.781 86.4147 138.879ZM141.932 110.55L136.466 113.806V103.024L141.932 99.7674V110.55ZM128.781 122.238V119.659L135.398 115.716V118.295L128.781 122.238ZM113.409 131.397V128.818L120.027 124.875V127.454L113.409 131.397ZM105.722 135.977V133.398L112.341 129.454V132.033L105.722 135.977ZM98.9046 140.039V137.46L104.654 134.034V136.613L98.9046 140.039ZM130.472 92.7622L138.528 97.5688L98.3709 121.495L87.15 114.801L124.091 92.762C126.059 91.5879 128.504 91.5883 130.472 92.7622ZM120.027 109.866V111.545L113.409 115.488V113.809L120.027 109.866ZM112.341 116.124L105.722 120.068V118.389L112.341 114.445V116.124ZM104.654 120.704L98.9046 124.13V122.451L104.654 119.025V120.704ZM98.9046 125.403L104.654 121.978V132.76L98.9046 136.186V125.403ZM105.722 121.341L112.341 117.398V128.18L105.722 132.124V121.341ZM113.409 116.762L120.027 112.819V123.601L113.409 127.544V116.762ZM121.095 112.182L127.713 108.239V119.022L121.095 122.965V112.182ZM121.095 110.908V109.229L127.713 105.286V106.965L121.095 110.908ZM128.781 104.65L135.398 100.707V102.386L128.781 106.329V104.65ZM97.8366 122.45V124.129L84.068 115.915V114.236L97.8366 122.45ZM84.068 117.189L97.8366 125.403V136.185L84.068 127.971V117.189ZM121.095 124.238L127.713 120.296V122.875L121.095 126.817V124.238ZM128.781 118.385V107.603L135.398 103.66V114.443L128.781 118.385ZM141.932 98.4935L136.466 101.75V100.071L141.932 96.8144V98.4935ZM139.597 96.932L131.006 91.8063C130.119 91.2774 129.15 90.9535 128.162 90.8328V87.9627L141.397 95.859L139.597 96.932ZM127.094 87.9621V90.7814C125.869 90.813 124.65 91.1542 123.557 91.8063L86.082 114.164L84.6026 113.281L127.094 87.9621ZM90.7231 134.16C90.5769 133.896 90.2506 133.804 89.9944 133.955L88.8113 134.654L84.068 131.824V129.246L97.8366 137.46V140.038L89.882 135.293L90.5244 134.913C90.7805 134.762 90.8694 134.425 90.7231 134.16ZM108.213 138.142C107.355 139.676 105.92 140.547 105.08 140.046C104.57 139.742 104.356 138.942 104.511 137.972L108.825 135.402C108.955 136.18 108.737 137.205 108.213 138.142ZM114.253 134.535C113.81 135.33 113.212 135.96 112.57 136.31C112.245 136.488 111.624 136.74 111.121 136.44C110.613 136.137 110.398 135.34 110.551 134.374L114.868 131.801C114.995 132.578 114.776 133.6 114.253 134.535ZM115.833 131.226L127.775 124.111C127.785 124.491 127.847 124.844 127.954 125.16L115.967 132.311C115.972 131.926 115.928 131.56 115.833 131.226ZM132.593 123.567C132.149 124.362 131.551 124.993 130.909 125.343C130.584 125.52 129.964 125.772 129.46 125.472C128.962 125.175 128.745 124.395 128.883 123.451L133.212 120.872C133.325 121.646 133.105 122.652 132.593 123.567ZM138.635 119.96C138.191 120.755 137.593 121.386 136.951 121.736C136.625 121.913 136.005 122.166 135.501 121.865C135.004 121.57 134.787 120.793 134.923 119.852L139.254 117.272C139.365 118.044 139.144 119.047 138.635 119.96ZM136.466 117.659V115.08L141.932 111.824V114.403L136.466 117.659Z" fill="#1C79CE"/>
</g>
<defs>
<clipPath id="clip0">
<rect width="61" height="62" fill="white" transform="translate(0 83)"/>
</clipPath>
<clipPath id="clip1">
<rect width="60" height="62" fill="white" transform="translate(83)"/>
</clipPath>
<clipPath id="clip2">
<rect width="60" height="62" fill="white" transform="translate(83 83)"/>
</clipPath>
</defs>
</svg>
