<svg width="155" height="137" viewBox="0 0 155 137" fill="none" xmlns="http://www.w3.org/2000/svg">
<path d="M154.559 48.178C153.827 42.9488 150.934 38.4442 146.465 35.582L146.966 35.3878C147.445 35.2022 147.774 34.7591 147.813 34.2478C147.853 33.7364 147.595 33.2476 147.151 32.9914L124.177 19.7242V5.47915C124.177 2.41013 120.314 0.0957031 115.192 0.0957031C110.07 0.0957031 106.208 2.41013 106.208 5.47915V9.34875L96.9906 4.02726C96.6411 3.82537 96.219 3.79306 95.8428 3.93865L60.6917 17.5644C60.2132 17.7499 59.8838 18.193 59.8444 18.7044C59.8051 19.2158 60.0627 19.7045 60.5068 19.9607L72.7139 27.0096V44.9434L9.04465 81.6987C3.34903 84.9859 -0.020166 90.8621 0.0161479 97.4173C-0.0214987 98.9354 0.0184799 104.511 0.0184799 104.721C0.0184799 111.251 3.39301 117.098 9.04565 120.365C9.66431 120.722 19.8279 127.358 19.8279 127.358C28.6045 133.232 38.8227 136.522 49.3781 136.872C50.005 136.893 50.6294 136.903 51.255 136.903C61.1637 136.903 70.8905 134.302 79.4933 129.335L132.08 98.9741C142.785 92.7934 150.181 82.2707 152.371 70.1046C152.371 70.1046 153.452 64.895 153.563 64.6005C154.483 62.1681 155.059 56.8616 154.995 52.8425C154.973 51.4309 154.609 48.5368 154.559 48.178ZM110.667 48.9256C110.872 49.0438 111.103 49.1041 111.334 49.1041C111.496 49.1041 111.66 49.0741 111.815 49.0138L111.836 49.0055V63.733L95.1785 54.1141V39.9813L110.667 48.9256ZM139.989 38.0927V61.0717L133.824 64.6305V40.4824L139.989 38.0927ZM131.159 66.169L122.83 70.9774V44.7441L131.159 41.5155V66.169ZM120.165 72.5159L114.502 75.7855V47.9724L120.165 45.7769V72.5159ZM111.836 66.8107V75.7855L75.3791 54.7345V45.7593L111.836 66.8107ZM73.3805 56.6578L112.503 79.248C112.709 79.3669 112.939 79.4266 113.169 79.4266C113.399 79.4266 113.629 79.3669 113.836 79.248L141.988 62.995C142.4 62.7572 142.654 62.3171 142.654 61.841V43.0327C143.209 43.3272 143.757 43.6291 144.293 43.9386C148.21 46.2004 150.826 49.8504 151.689 54.2334C150.753 58.3339 148.168 61.9049 144.379 64.0921L63.6927 110.677C55.4708 115.424 46.2557 117.797 37.0377 117.796C27.8196 117.796 18.5989 115.422 10.3779 110.674C10.3599 110.664 10.3416 110.653 10.323 110.644C7.73935 109.139 5.7161 106.991 4.4028 104.461C3.08817 101.927 3.10783 98.9395 4.47343 96.4331C5.79872 94.0014 7.78132 91.9692 10.2913 90.5206L72.7146 54.4843V55.5044C72.7142 55.9798 72.9681 56.4195 73.3805 56.6578ZM144.379 37.4257C148.178 39.6172 150.755 43.1403 151.687 47.2958C150.174 45.0073 148.128 43.0754 145.625 41.6305C144.663 41.0744 143.666 40.5404 142.654 40.035V37.0596L143.289 36.8134C143.671 37.0209 144.031 37.2232 144.379 37.4257ZM108.873 16.3187C110.472 17.2482 112.68 17.8062 115.192 17.8062C117.705 17.8062 119.913 17.2485 121.512 16.3187V32.1026C121.512 33.211 119.05 34.8208 115.192 34.8208C111.335 34.8208 108.873 33.211 108.873 32.1026V16.3187ZM115.192 15.141C111.335 15.141 108.873 13.5312 108.873 12.4228V9.37574C110.472 10.3056 112.68 10.8633 115.192 10.8633C117.705 10.8633 119.913 10.3056 121.512 9.37574V12.4228C121.512 13.5312 119.05 15.141 115.192 15.141ZM115.192 2.76094C119.05 2.76094 121.512 4.37075 121.512 5.47915C121.512 6.58756 119.05 8.1977 115.192 8.1977C111.335 8.1977 108.873 6.58756 108.873 5.47915C108.873 4.37075 111.335 2.76094 115.192 2.76094ZM96.211 6.65419L106.208 12.4258V32.1022C106.208 35.1713 110.071 37.4857 115.192 37.4857C120.315 37.4857 124.177 35.1713 124.177 32.1022V22.8015L143.41 33.9083L111.447 46.2983L64.2488 19.0442L96.211 6.65419ZM92.5133 38.4428V52.5756L75.3791 42.6819V28.5491L92.5133 38.4428ZM10.3773 84.0068L72.7139 48.0207V51.4062L8.95836 88.2119C6.59829 89.5741 4.63834 91.3802 3.1498 93.513C4.14494 89.5428 6.68691 86.137 10.3773 84.0068ZM2.87662 107.142C4.4008 109.501 6.48935 111.508 9.04132 112.981C9.06031 112.992 9.0793 113.003 9.09895 113.013C17.7183 117.978 27.3772 120.46 37.037 120.46C46.7148 120.46 56.3926 117.968 65.0247 112.985L145.711 66.3999C148.207 64.9593 150.257 63.0064 151.771 60.7202C151.576 61.9146 151.339 62.9467 151.07 63.6573C149.819 66.9646 147.505 69.6675 144.377 71.4738L63.6941 118.057C55.4715 122.805 46.2551 125.178 37.036 125.177C27.8189 125.177 18.5989 122.803 10.3783 118.057C6.27246 115.684 3.58357 111.71 2.87662 107.142ZM63.159 121.452C63.159 124.444 61.952 126.43 61.1534 126.43C60.5554 126.43 59.6562 125.236 59.2997 123.236C60.6034 122.672 61.891 122.06 63.1573 121.392C63.1577 121.412 63.159 121.432 63.159 121.452ZM130.747 96.666L78.1606 127.027C69.4463 132.058 59.5253 134.54 49.4663 134.208C39.9045 133.891 30.6361 131.038 22.5591 125.948C27.2959 127.21 32.1653 127.842 37.036 127.842C43.7354 127.842 50.4362 126.645 56.7898 124.257C57.4524 127.174 59.1195 129.095 61.1534 129.095C63.816 129.095 65.8242 125.81 65.8242 121.453C65.8242 120.943 65.7923 120.444 65.736 119.956L145.709 73.7826C147.119 72.9687 148.387 71.9969 149.499 70.8895C147.179 81.7473 140.401 91.0923 130.747 96.666Z" fill="#1C79CE"/>
</svg>
