<svg width="155" height="155" fill="none" xmlns="http://www.w3.org/2000/svg"><g clip-path="url(#clip0)"><path d="M154.93 115.689a1.336 1.336 0 00-.729-.793L92.94 88.094l6.006-3.466a56.941 56.941 0 0015.368-12.95l27.335.72h.035c.254 0 .502-.072.716-.208l5.273-3.355a1.336 1.336 0 00-.436-2.43l-25.679-5.517 4.345-7.346a5.977 5.977 0 00.589-4.845 6.16 6.16 0 00-2.15-3.09l8.042-20.792a1.333 1.333 0 00-1.892-1.648l-15.098 8.388a1.33 1.33 0 00-.423.37L102.336 48.94l-6.99-10.487a1.333 1.333 0 00-1.823-.388l-4.554 2.876c-.428.27-.666.758-.615 1.262l1.635 16.23c-7.14 4.11-15.767 9.081-24.672 14.221l-31.069-27.51a1.335 1.335 0 00-1.38-.24 7.916 7.916 0 00-4.509 10.15L34.14 70.69l-9.345 6.213c-1.176.717-1.889 2.08-1.952 3.761-.058 1.514.396 3.19 1.279 4.718.882 1.528 2.106 2.76 3.446 3.467.812.428 1.639.644 2.419.644.679 0 1.323-.163 1.89-.491.033-.019 7.186-4.993 7.186-4.993l1.166 3.154c-9.716 5.634-18.252 10.61-23.697 13.832-6.037 3.572-10.81 8.67-13.804 14.74a35.668 35.668 0 00-2.454 6.512c-.74 2.761.039 5.602 2.081 7.598 1.489 1.454 3.41 2.227 5.405 2.227.74 0 1.49-.107 2.23-.324a130.61 130.61 0 0014.56-5.233 130.67 130.67 0 0013.839-6.926l24.35-14.062 21.536 4.083-4.186 2.715c-1.185.715-1.902 2.082-1.966 3.77-.057 1.514.397 3.189 1.28 4.718 1.487 2.577 3.8 4.114 5.868 4.114.666 0 1.306-.159 1.886-.494.033-.019 16.14-11.216 16.14-11.216l42.109 7.985a8.851 8.851 0 009.428-4.442 1.33 1.33 0 00.096-1.072zm-11.434-47.358l-2.184 1.39-32.983-.869c2.267-1.746 6.156-4.075 9.816-5.969l25.351 5.447zm-26.555-34.584l11.625-6.457-8.316 21.5-23.833 12.595 20.524-27.638zm-23.094 7.269l6.799 10.2-1.407 1.894-6.716 3.864-1.432-14.217 2.756-1.741zM30.71 86.569l-.198.138c-.41.215-1.024.14-1.698-.216-.888-.469-1.756-1.359-2.38-2.442-.626-1.083-.963-2.28-.925-3.283.03-.78.28-1.362.69-1.599.157-.09.348-.136.563-.136.34 0 .742.115 1.166.339.888.468 1.756 1.358 2.381 2.441 1.163 2.014 1.156 4.069.401 4.758zm3.17-2.204c-.097-1.246-.511-2.591-1.26-3.888-.85-1.472-2.017-2.663-3.299-3.381l5.77-3.834 3.017 8.163-4.228 2.94zm-3.02-30.237a5.258 5.258 0 012.282-6.4L62.88 74.062a14411.43 14411.43 0 00-20.308 11.745L30.861 54.128zM4.762 128.4a5.299 5.299 0 01-.541-.462 5.07 5.07 0 01-1.372-4.987c.44-.3.955-.465 1.482-.465 1.53 0 2.775 1.335 2.775 2.976 0 1.475-1.022 2.714-2.344 2.938zm32.294-11.121a127.858 127.858 0 01-13.555 6.784 127.832 127.832 0 01-14.26 5.126 5.328 5.328 0 01-1.008.192 5.738 5.738 0 001.54-3.919c0-3.112-2.44-5.644-5.442-5.644-.16 0-.32.008-.48.022.377-.995.8-1.972 1.27-2.924.077-.156.16-.308.239-.462 1.447 1.73 4.267 2.6 8.405 2.6a37.16 37.16 0 003.425-.17 1.334 1.334 0 10-.246-2.657c-6.631.616-8.804-.645-9.509-1.449-.396-.452-.443-.903-.433-1.15 2.723-4.165 6.431-7.698 10.889-10.337 15.444-9.14 55.787-32.394 77.356-44.807l-4.48 6.033a1.334 1.334 0 001.693 1.975l29.477-15.577a1.33 1.33 0 00.621-.698l.745-1.925a3.5 3.5 0 01.637 1.186c.279.91.16 1.87-.334 2.706l-4.798 8.112-.569-.122a1.34 1.34 0 00-.887.116c-1.946.994-11.732 6.109-13.288 9.22a1.333 1.333 0 001.158 1.93l5.644.148a54.258 54.258 0 01-13.254 10.729l-7.708 4.449-.887-.388a1.335 1.335 0 00-.935-.05c-.854.268-21.036 6.68-30.272 16.158a1.334 1.334 0 00.707 2.242l.207.039-21.668 12.512zm48.93 4.727l-.184.128c-.925.499-2.854-.517-4.088-2.654-.625-1.082-.962-2.279-.924-3.282.03-.781.281-1.363.69-1.599.16-.092.352-.138.566-.138 1.01 0 2.518 1.004 3.544 2.781 1.166 2.019 1.156 4.079.397 4.764zm3.175-2.207c-.096-1.247-.51-2.593-1.26-3.891-.872-1.511-2.029-2.662-3.253-3.358l3.444-2.215 11.535 2.187-10.466 7.277zm56.744-1.217l-84.303-15.985c8.603-7.328 23.936-12.62 26.81-13.57l63.22 27.657a6.187 6.187 0 01-5.727 1.898z" fill="#fff"/></g><defs><clipPath id="clip0"><path fill="#fff" d="M0 0h155v155H0z"/></clipPath></defs></svg>