<svg width="155" height="155" fill="none" xmlns="http://www.w3.org/2000/svg"><path d="M155 28.95c0-.466-.249-.898-.654-1.131L126.688 11.85a1.307 1.307 0 00-1.306 0L21.014 72.02a1.308 1.308 0 00-.655 1.132v8.588L3.722 91.221a1.305 1.305 0 00-.64.922L.063 110.317a1.3 1.3 0 00-.064.395v15.34c0 .467.25.898.653 1.132l27.657 15.965a1.304 1.304 0 001.307 0l12.115-6.882c.224 1.662.995 3.035 2.303 3.79a4.36 4.36 0 002.206.577c2.48 0 5.278-1.881 7.09-5.019 1.082-1.874 1.64-3.922 1.57-5.768a7.317 7.317 0 00-.13-1.09l22.215-12.824c.26 1.566 1.025 2.853 2.277 3.575a4.36 4.36 0 002.205.577c2.48 0 5.278-1.881 7.09-5.019.74-1.282 1.228-2.644 1.444-3.969.383.62.886 1.137 1.521 1.504a4.36 4.36 0 002.205.577c2.481 0 5.279-1.881 7.091-5.019 1.082-1.874 1.639-3.922 1.569-5.768a7.405 7.405 0 00-.121-1.049l1.431-.826c.404-.234.653-.665.653-1.132V90.83l8.06-4.646 7.533 4.325a1.309 1.309 0 001.311-.006l2.502-1.466c.266 1.609 1.048 2.857 2.267 3.561a4.35 4.35 0 002.206.58c.919 0 1.896-.26 2.88-.78 1.633-.863 3.128-2.37 4.21-4.243.759-1.314 1.238-2.667 1.45-3.954.386.62.89 1.13 1.514 1.49.671.387 1.417.58 2.206.58.919 0 1.896-.261 2.88-.78 1.633-.863 3.129-2.37 4.21-4.243 1.357-2.35 1.824-4.823 1.454-6.82l1.424-.823c.405-.234.654-.665.654-1.132v-8.6l3.233-1.864c.405-.234.654-.665.654-1.133L155 28.95zm-28.966-14.46l25.044 14.46L49.323 87.608 24.282 73.153 126.034 14.49zM22.974 75.416l25.041 14.458v6.337l-25.042-14.46v-6.336zm-1.317 8.594L46.69 98.465l-14.66 8.352L6.995 92.364l14.66-8.355zm-.936 51.741l-11.171-6.45v-4.885l11.17 6.449v4.885zm1.96-6.772l-13.785-7.957a1.305 1.305 0 00-1.96 1.131v.054l-4.322-2.599v-6.631l25.042 14.458v6.904l-4.322-2.6v-1.628a1.31 1.31 0 00-.653-1.132zm7.407-16.815L4.827 97.579l.522-3.147 25.243 14.573-.504 3.158zm-.442 2.763l-1.555 9.741-25.332-14.625 1.61-9.709 25.278 14.593zm3.57-5.778l3.534-2.012v13.547l-5.922 3.419 2.389-14.954zm-30.602 13.51l4.322 2.598v2.536l-4.322-2.495v-2.639zm20.72 14.602v-2.471l4.322 2.599v2.366l-4.322-2.494zm19.901-7.475a12.045 12.045 0 00-1.333 3.379l-11.631 6.607v-12.329l8.44-4.872c.404-.234.653-.665.653-1.132v-15.792l8.651-4.929v24.556c-.19.081-.379.17-.57.27-1.633.862-3.128 2.369-4.21 4.242zm7.833 4.523c-1.734 3.001-4.41 4.246-5.726 3.486-1.316-.76-1.576-3.7.157-6.702.826-1.431 1.98-2.611 3.167-3.237.583-.308 1.69-.749 2.558-.249.868.501 1.04 1.681 1.064 2.34.05 1.34-.394 2.93-1.22 4.362zm1.463-8.965a4.328 4.328 0 00-1.902-.568v-2.974l13.89-8.008v6.318l-10.815 6.244a4.265 4.265 0 00-1.173-1.012zm33.764-11.585c-1.734 3.002-4.409 4.246-5.726 3.487-1.317-.761-1.576-3.7.157-6.702.826-1.431 1.98-2.612 3.167-3.238.392-.207 1.023-.475 1.657-.475.308 0 .617.063.9.227.868.501 1.04 1.681 1.064 2.34.052 1.34-.393 2.93-1.22 4.361zm12.26-6.907c-1.734 3.002-4.409 4.246-5.725 3.487-1.317-.761-1.577-3.7.156-6.702.826-1.431 1.98-2.612 3.167-3.238.393-.207 1.023-.475 1.658-.475.308 0 .617.063.9.227.868.501 1.04 1.681 1.064 2.34.051 1.34-.393 2.93-1.22 4.361zm3.182-8.222l-.52.3a4.306 4.306 0 00-1.198-1.043c-1.45-.837-3.256-.766-5.086.2-1.634.863-3.129 2.37-4.21 4.243a12.004 12.004 0 00-1.346 3.433l-.327.189a4.296 4.296 0 00-1.292-1.158c-1.45-.837-3.255-.766-5.085.2-1.634.863-3.13 2.37-4.21 4.243a11.945 11.945 0 00-1.387 3.626l-9.942 5.74v-6.316l34.602-19.948.001 6.29zm13.289-13.952l4.261-2.456v4.916l-4.261-2.46zm18.03 2.172c-.826 1.432-1.981 2.612-3.167 3.238-.583.308-1.69.749-2.558.249-.868-.501-1.039-1.681-1.064-2.34-.051-1.34.394-2.93 1.22-4.362 1.734-3.001 4.409-4.246 5.726-3.486 1.317.76 1.576 3.7-.157 6.701zm12.261-6.907c-.827 1.431-1.981 2.612-3.167 3.238-.583.307-1.691.748-2.559.248-.867-.5-1.038-1.68-1.063-2.34-.051-1.34.394-2.93 1.22-4.361 1.733-3.002 4.408-4.247 5.725-3.487 1.317.761 1.577 3.7-.156 6.702zm3.181-8.223l-.521.301a4.264 4.264 0 00-1.197-1.043c-2.831-1.635-6.913.318-9.295 4.443a12.005 12.005 0 00-1.343 3.432l-.329.19a4.283 4.283 0 00-1.293-1.158c-2.831-1.634-6.914.318-9.296 4.443a11.978 11.978 0 00-1.39 3.636l-1.933 1.132v-6.381l26.598-15.333-.001 6.338zm-97.869 47.064v-28.91l101.757-58.66v28.91l-101.757 58.66z" fill="#fff"/></svg>