<svg width="100" height="100" fill="none" xmlns="http://www.w3.org/2000/svg"><g clip-path="url(#clip0)" fill="#fff"><path d="M91.667 30H73.333v-8.333c0-.035-.018-.067-.02-.102a1.645 1.645 0 00-.086-.433c-.019-.054-.032-.103-.056-.155a1.655 1.655 0 00-.333-.489l-20-20a1.634 1.634 0 00-.486-.333c-.054-.025-.107-.039-.167-.058a1.664 1.664 0 00-.422-.084C51.739.019 51.706 0 51.668 0H8.333A8.343 8.343 0 000 8.333V85a8.343 8.343 0 008.333 8.333H43.5A8.348 8.348 0 0051.667 100h40A8.343 8.343 0 00100 91.667V38.333A8.343 8.343 0 0091.667 30zM67.643 20H55c-.92 0-1.667-.746-1.667-1.667V5.69L67.643 20zM3.333 85V8.333a5 5 0 015-5H50v15a5 5 0 005 5h15V30H51.667a8.343 8.343 0 00-8.334 8.333V90h-35a5 5 0 01-5-5zm93.334 6.667a5 5 0 01-5 5h-40a5 5 0 01-5-5V38.333a5 5 0 015-5h40a5 5 0 015 5v53.334z"/><path d="M85 36.667H58.333A8.343 8.343 0 0050 45v6.667A8.343 8.343 0 0058.333 60H85a8.343 8.343 0 008.333-8.333V45A8.343 8.343 0 0085 36.667zm5 15a5 5 0 01-5 5H58.333a5 5 0 01-5-5V45a5 5 0 015-5H85a5 5 0 015 5v6.667zM56.667 63.333a6.667 6.667 0 100 13.334 6.667 6.667 0 000-13.334zm0 10a3.333 3.333 0 110-6.667 3.333 3.333 0 010 6.667zm15-10a6.667 6.667 0 100 13.334 6.667 6.667 0 000-13.334zm0 10a3.333 3.333 0 110-6.667 3.333 3.333 0 010 6.667zm-15 6.667a6.667 6.667 0 100 13.334 6.667 6.667 0 000-13.334zm0 10a3.333 3.333 0 110-6.667 3.333 3.333 0 010 6.667zm15-10a6.667 6.667 0 100 13.334 6.667 6.667 0 000-13.334zm0 10a3.333 3.333 0 110-6.667 3.333 3.333 0 010 6.667zm15-26.667A6.667 6.667 0 0080 70v16.666a6.667 6.667 0 0013.333 0V70a6.667 6.667 0 00-6.666-6.667zM90 86.666a3.333 3.333 0 01-6.667 0V70A3.334 3.334 0 0190 70v16.666z"/></g><defs><clipPath id="clip0"><path fill="#fff" d="M0 0h100v100H0z"/></clipPath></defs></svg>