<svg width="100" height="100" fill="none" xmlns="http://www.w3.org/2000/svg"><g clip-path="url(#clip0)" fill="#fff"><path d="M95.749 2.503h-69.85a4.256 4.256 0 00-4.252 4.251V26.02l-3.194-4.79a4.94 4.94 0 00-6.668-1.501l-6.572 3.95A9.642 9.642 0 00.81 29.394C-1.588 38.122.19 53.16 22.264 75.238c17.554 17.536 30.643 22.258 39.663 22.258 2.089.01 4.169-.261 6.185-.806a9.66 9.66 0 005.715-4.4l3.946-6.578a4.94 4.94 0 00-1.5-6.66l-15.736-10.49a4.966 4.966 0 00-6.649 1.08l-4.58 5.889a1.595 1.595 0 01-2.041.432l-.872-.48c-2.87-1.564-6.44-3.511-13.652-10.723-.78-.78-1.487-1.51-2.15-2.21h65.156a4.248 4.248 0 004.25-4.23V6.754a4.256 4.256 0 00-4.25-4.251zM44.799 78.41l.847.465a4.911 4.911 0 006.294-1.297l4.58-5.89a1.62 1.62 0 012.168-.351l15.735 10.489c.715.477.93 1.43.489 2.167l-3.946 6.579a6.335 6.335 0 01-3.736 2.9c-7.88 2.167-21.672.334-42.604-20.6C3.694 51.94 1.867 38.148 4.03 30.275a6.335 6.335 0 012.9-3.736l6.578-3.948a1.612 1.612 0 012.167.489l10.494 15.735a1.619 1.619 0 01-.352 2.167l-5.891 4.583a4.91 4.91 0 00-1.297 6.292l.466.847c1.668 3.057 3.74 6.861 11.293 14.413C37.941 74.67 41.744 76.743 44.8 78.41zm51.867-20.09a.91.91 0 01-.917.9H27.585a42.041 42.041 0 01-5.563-8.108l-.48-.876a1.59 1.59 0 01.43-2.037l5.892-4.583a4.965 4.965 0 001.078-6.648l-3.96-5.945V6.754a.907.907 0 01.916-.917h69.85a.907.907 0 01.918.917V58.32z"/><path d="M90.007 10.222l-27.862 21.13a2.249 2.249 0 01-2.644 0L31.65 10.222a1.667 1.667 0 10-2.015 2.657L57.49 34.008a5.611 5.611 0 006.668 0L92.02 12.879a1.666 1.666 0 00.32-2.337 1.667 1.667 0 00-2.334-.32zM46.596 34.148L29.52 52.436a1.667 1.667 0 002.439 2.274l17.078-18.296a1.667 1.667 0 00-2.44-2.266zm28.564 0a1.667 1.667 0 10-2.439 2.273L89.794 54.71a1.667 1.667 0 102.439-2.274L75.16 34.147z"/></g><defs><clipPath id="clip0"><path fill="#fff" d="M0 0h100v100H0z"/></clipPath></defs></svg>