<svg width="180" height="68" fill="none" xmlns="http://www.w3.org/2000/svg"><path d="M0 3.641C0 1.631 1.645 0 3.673 0h115.715c2.029 0 3.673 1.63 3.673 3.641v1.82c0 2.012-1.644 3.642-3.673 3.642H3.673C1.645 9.103 0 7.473 0 5.462v-1.82zm56.939 43.694c0-2.01 1.644-3.641 3.673-3.641h115.715c2.028 0 3.673 1.502 3.673 3.513v1.949c0 2.01-1.645 3.641-3.673 3.641H60.612c-2.029 0-3.673-1.63-3.673-3.641v-1.82zM14.694 18.206c0-2.011 1.644-3.641 3.673-3.641h86.327c2.029 0 3.673 1.63 3.673 3.64v1.821c0 2.011-1.644 3.642-3.673 3.642H18.367c-2.029 0-3.673-1.63-3.673-3.642v-1.82zm113.877-9.103c0-2.011 1.645-3.641 3.674-3.641h16.531c2.028 0 3.673 1.63 3.673 3.64v1.822c0 2.01-1.645 3.64-3.673 3.64h-16.531c-2.029 0-3.674-1.63-3.674-3.64V9.103z" fill="#fff"/><path d="M147.896 7.432a3.693 3.693 0 015.077 1.092l11.566 18.079c.707 1.426 1.044 4.359-.662 5.447l-1.545.985a3.693 3.693 0 01-5.077-1.092L145.25 13.45a3.622 3.622 0 011.101-5.032l1.545-.985z" fill="#fff"/><path d="M159.507 27.883c1.033-1.73 3.526-2.804 5.032-1.28l13.429 7.839c1.746 1.023 2.305 3.28 1.272 5.01l-.935 1.568c-1.033 1.73-3.286 2.304-5.032 1.28l-14.918-9.265c-1.224-1.318-.816-1.854.217-3.585l.935-1.567z" fill="#fff"/><path d="M176.311 33.93c2.029 0 3.689 2.213 3.689 4.302v10.924c0 2.01-1.645 3.641-3.673 3.641h-1.837c-2.029 0-3.674-1.63-3.674-3.641V38.232c0-2.01 1.645-3.64 3.674-3.64l1.821-.662zM36.735 32.77c0-2.01 1.644-3.64 3.673-3.64h64.286c2.029 0 3.673 1.63 3.673 3.64v1.821c0 2.011-1.644 3.641-3.673 3.641H40.408c-2.029 0-3.673-1.63-3.673-3.64V32.77zm78.979-28.219c0-2.513 2.056-4.551 4.592-4.551 2.536 0 4.592 2.038 4.592 4.551v32.771c0 2.514-2.056 4.551-4.592 4.551-2.536 0-4.592-2.037-4.592-4.551V4.552zm12.857 5.462c0-2.513 2.056-4.551 4.592-4.551 2.536 0 4.592 2.038 4.592 4.551v23.668c0 2.514-2.056 4.551-4.592 4.551-2.536 0-4.592-2.038-4.592-4.551V10.013zM66.035 59.591h-3.252v8.269h-1.808v-8.27h-3.238v-1.54h8.298v1.541zm5.888-1.541c.85 0 1.589.14 2.215.42.635.28 1.121.682 1.458 1.205.336.524.504 1.145.504 1.864 0 .71-.168 1.332-.504 1.864-.337.523-.823.925-1.458 1.206-.626.28-1.364.42-2.215.42H69.71v2.83h-1.822v-9.81h4.036zm-.084 5.437c.795 0 1.397-.168 1.808-.504.412-.336.617-.818.617-1.444s-.205-1.107-.617-1.443c-.41-.336-1.013-.505-1.808-.505h-2.13v3.896h2.13zm12.276 2.103H79.21l-.968 2.27h-1.878l4.415-9.81h1.794l4.43 9.81h-1.907l-.98-2.27zm-.602-1.43l-1.85-4.288-1.837 4.288h3.687zm13.993-6.11v9.81h-1.822v-4.204H90.61v4.204h-1.822v-9.81h1.822v4.05h5.074v-4.05h1.822zm7.546 9.95c-.991 0-1.888-.215-2.692-.645a4.921 4.921 0 01-1.878-1.808c-.448-.766-.672-1.63-.672-2.592 0-.963.228-1.827.686-2.593a4.816 4.816 0 011.879-1.794c.803-.439 1.7-.658 2.691-.658.803 0 1.537.14 2.2.42.664.28 1.224.687 1.682 1.22l-1.177 1.106c-.71-.766-1.584-1.149-2.621-1.149-.673 0-1.276.15-1.808.449a3.13 3.13 0 00-1.248 1.219c-.299.523-.448 1.116-.448 1.78 0 .663.149 1.256.448 1.78.299.523.715.934 1.248 1.233.532.29 1.135.434 1.808.434 1.037 0 1.911-.387 2.621-1.163l1.177 1.121a4.464 4.464 0 01-1.696 1.22c-.663.28-1.397.42-2.2.42zm5.197-4.765h3.855v1.458h-3.855v-1.458zM121.107 68c-.991 0-1.888-.215-2.691-.645a4.914 4.914 0 01-1.878-1.808c-.449-.766-.673-1.63-.673-2.592 0-.963.229-1.827.687-2.593a4.82 4.82 0 011.878-1.794c.803-.439 1.701-.658 2.691-.658.804 0 1.537.14 2.201.42.663.28 1.224.687 1.682 1.22l-1.178 1.106c-.71-.766-1.584-1.149-2.621-1.149-.673 0-1.275.15-1.808.449-.533.29-.948.696-1.247 1.219-.3.523-.449 1.116-.449 1.78 0 .663.149 1.256.449 1.78.299.523.714.934 1.247 1.233.533.29 1.135.434 1.808.434 1.037 0 1.911-.387 2.621-1.163l1.178 1.121a4.472 4.472 0 01-1.696 1.22c-.664.28-1.397.42-2.201.42zm13.227-1.668v1.528h-7.358v-9.81h7.162v1.527h-5.34v2.55h4.737v1.5h-4.737v2.705h5.536zm6.349-8.282c.85 0 1.588.14 2.214.42.636.28 1.122.682 1.458 1.205.336.524.504 1.145.504 1.864 0 .71-.168 1.332-.504 1.864-.336.523-.822.925-1.458 1.206-.626.28-1.364.42-2.214.42h-2.215v2.83h-1.822v-9.81h4.037zm-.084 5.437c.794 0 1.396-.168 1.808-.504.411-.336.616-.818.616-1.444s-.205-1.107-.616-1.443c-.412-.336-1.014-.505-1.808-.505h-2.131v3.896h2.131zm12.726-.728c.626.168 1.103.457 1.43.868.327.402.49.907.49 1.514 0 .86-.317 1.528-.953 2.004-.635.477-1.556.715-2.761.715h-4.653v-9.81h4.387c1.102 0 1.962.22 2.579.658.617.44.925 1.06.925 1.864 0 .514-.126.958-.379 1.332-.243.373-.598.658-1.065.855zm-4.653-.519h2.439c.588 0 1.037-.117 1.345-.35.309-.234.463-.58.463-1.037 0-.458-.154-.804-.463-1.038-.308-.242-.757-.364-1.345-.364h-2.439v2.789zm2.803 4.218c1.29 0 1.934-.485 1.934-1.457 0-.953-.644-1.43-1.934-1.43h-2.803v2.887h2.803zm6.141-8.408h1.794v6.965l5.27-6.965h1.696v9.81h-1.794v-6.951l-5.271 6.95h-1.695v-9.81zM173.92 68c-.99 0-1.887-.215-2.691-.645a4.921 4.921 0 01-1.878-1.808c-.449-.766-.673-1.63-.673-2.592 0-.963.229-1.827.687-2.593a4.82 4.82 0 011.878-1.794c.804-.439 1.701-.658 2.691-.658.804 0 1.537.14 2.201.42.663.28 1.224.687 1.682 1.22l-1.178 1.106c-.71-.766-1.583-1.149-2.621-1.149-.672 0-1.275.15-1.808.449-.532.29-.948.696-1.247 1.219-.299.523-.449 1.116-.449 1.78 0 .663.15 1.256.449 1.78.299.523.715.934 1.247 1.233.533.29 1.136.434 1.808.434 1.038 0 1.911-.387 2.621-1.163l1.178 1.121a4.464 4.464 0 01-1.696 1.22c-.664.28-1.397.42-2.201.42z" fill="#fff"/></svg>