<svg width="155" height="155" fill="none" xmlns="http://www.w3.org/2000/svg"><g clip-path="url(#clip0)"><path d="M155 32.51a1.38 1.38 0 00-.69-1.194L115.979 9.185a1.379 1.379 0 00-1.379 0L.69 74.869c-.427.246-.69 1.195-.69 1.195v47.155c0 .493.263.949.69 1.195l11.55 6.668-2.144 1.225c-2.077-2.628-5.03-3.715-7.18-2.475-2.474 1.429-2.812 5.318-.77 8.856.918 1.588 2.19 2.868 3.581 3.603.843.445 1.702.668 2.512.668a3.88 3.88 0 001.961-.51c1.267-.731 2.032-2.171 2.1-3.953.046-1.223-.233-2.546-.788-3.821l3.494-1.997 24.012 13.863a1.382 1.382 0 001.379 0l12.285-7.084c.041 2.667 1.09 4.82 2.978 5.91a5.45 5.45 0 002.76.721c3.164 0 6.76-2.436 9.102-6.491.956-1.654 1.583-3.398 1.866-5.073a5.408 5.408 0 001.878 1.828 5.434 5.434 0 002.752.722c1.163 0 2.406-.333 3.66-.996 2.112-1.115 4.048-3.068 5.45-5.5a15.964 15.964 0 001.48-3.43l32.971-19.036c.319.315.671.592 1.063.819a5.438 5.438 0 002.753.722c1.163 0 2.404-.333 3.657-.994 2.112-1.114 4.048-3.067 5.452-5.499.953-1.65 1.58-3.397 1.864-5.077a5.388 5.388 0 001.88 1.833 5.44 5.44 0 002.752.721c1.164 0 2.406-.333 3.66-.995 2.113-1.115 4.049-3.069 5.454-5.501 1.859-3.223 2.476-6.814 1.716-9.544l6.48-3.737a1.38 1.38 0 00.69-1.195V32.511zM8.821 140.06c-.427.248-1.086.171-1.805-.209-.925-.488-1.829-1.415-2.48-2.543-1.295-2.243-1.195-4.535-.24-5.087.167-.096.367-.143.59-.143 1.054 0 2.627 1.045 3.695 2.896.65 1.127 1.001 2.373.961 3.418-.03.813-.293 1.422-.72 1.668zm143.42-70.823l-14.12 8.141V50.422l14.12-8.141v26.956zm-33.974 29.22v-6.446l17.095-9.858V88.6l-17.095 9.858zm-39.71 22.897v-6.447l17.096-9.858v6.448l-17.096 9.857zM58.7 132.804v-6.448l17.099-9.859v6.447l-17.1 9.86zm-17.612 10.155v-6.448l14.853-8.564v6.447l-14.853 8.565zm81.548-118.191l20.812 12.016L39.708 96.6 10.721 79.864l95.43-55.097a16.531 16.531 0 0116.484 0zM95.653 67.526v4.198l-17.096 9.857v-4.197l17.096-9.858zM75.798 83.172l-17.1 9.86v-4.198l17.1-9.86v4.198zM55.94 94.622l-14.853 8.564v-4.197l14.853-8.565v4.198zm-14.853 11.749l14.853-8.564v26.955l-14.853 8.565v-26.956zm17.612-10.155l17.099-9.86v26.957l-17.1 9.859V96.216zm19.858-11.45l17.096-9.857v26.956l-17.096 9.857V84.766zm19.855-11.448l17.095-9.857v26.956l-17.095 9.857V73.318zm0-3.185v-4.198l17.095-9.857v4.198l-17.095 9.857zm19.855-15.645l17.095-9.858v4.198l-17.095 9.857v-4.197zm-79.94 44.5v4.196L2.76 82.65v-4.197l35.569 20.535zM2.76 85.836l35.569 20.534v26.955l-35.57-20.534V85.836zm95.653 17.623l17.095-9.858v6.448l-17.095 9.857v-6.447zm19.855-14.633V61.87l17.095-9.857v26.956l-17.095 9.857zm33.974-49.73l-14.12 8.141V43.04l14.12-8.14v4.197zm-6.033-3.904l-22.193-12.814a19.187 19.187 0 00-7.347-2.434V12.77l34.192 19.74-4.652 2.683zM113.91 12.768v7.048a19.223 19.223 0 00-9.137 2.562L7.962 78.271 4.14 76.065l109.769-63.297zM19.951 128.263a1.378 1.378 0 00-1.882-.513l-3.056 1.747-12.254-7.074v-6.446l35.569 20.534v6.446l-20.55-11.863 1.66-.949a1.38 1.38 0 00.513-1.882zm45.182 9.954c-2.215 3.834-5.922 6.014-8.093 4.761-1.318-.76-1.87-2.761-1.469-5.186l11.144-6.425c.334 1.945-.229 4.507-1.582 6.85zm15.605-9.018c-1.146 1.987-2.69 3.564-4.348 4.439-.84.444-2.444 1.075-3.744.325-1.312-.758-1.867-2.751-1.474-5.166l11.155-6.432c.327 1.942-.238 4.497-1.589 6.834zm4.08-8.271l30.851-17.788c.026.95.185 1.831.462 2.623l-30.966 17.878c.012-.963-.1-1.879-.347-2.713zm43.297-19.148c-1.148 1.988-2.693 3.564-4.35 4.439-.839.443-2.443 1.073-3.743.323-1.287-.743-1.847-2.691-1.49-5.053l11.181-6.447c.293 1.935-.276 4.45-1.598 6.738zm15.609-9.018c-1.148 1.988-2.693 3.564-4.352 4.44-.84.444-2.443 1.075-3.745.324-1.283-.74-1.843-2.68-1.492-5.034l11.189-6.45c.285 1.93-.284 4.438-1.6 6.72zm-5.603-5.752v-6.447l14.12-8.142v6.448l-14.12 8.14z" fill="#fff"/></g><defs><clipPath id="clip0"><path fill="#fff" d="M0 0h155v155H0z"/></clipPath></defs></svg>