<svg width="155" height="155" fill="none" xmlns="http://www.w3.org/2000/svg"><g clip-path="url(#clip0)"><path d="M153.559 58.082c-.732-5.229-3.625-9.733-8.094-12.596l.501-.194a1.33 1.33 0 00.185-2.396l-22.974-13.268V15.383c0-3.069-3.863-5.383-8.985-5.383s-8.984 2.314-8.984 5.383v3.87l-9.217-5.321a1.333 1.333 0 00-1.148-.09L59.692 27.47a1.333 1.333 0 00-.185 2.396l12.207 7.049v17.934L8.044 91.603C2.35 94.89-1.02 100.766-.983 107.322c-.038 1.518.002 7.093.002 7.303 0 6.53 3.375 12.378 9.028 15.644.618.358 10.782 6.993 10.782 6.993a56.434 56.434 0 0031.427 9.545 56.435 56.435 0 0028.238-7.568l52.587-30.361a41.827 41.827 0 0020.291-28.87s1.081-5.209 1.192-5.503c.92-2.433 1.496-7.74 1.432-11.758-.022-1.412-.386-4.306-.436-4.665zm-43.892.748a1.337 1.337 0 001.148.088l.021-.008v14.727l-16.657-9.619V49.886l15.488 8.944zm29.322-10.833v22.979l-6.165 3.559V50.387l6.165-2.39zm-8.83 28.076l-8.329 4.809V54.648l8.329-3.228v24.653zm-10.994 6.347l-5.663 3.27V57.877l5.663-2.196v26.74zm-8.329-5.705v8.975L74.379 64.639v-8.975l36.457 21.051zM72.38 66.562l39.123 22.59a1.332 1.332 0 001.333 0L140.988 72.9c.412-.237.666-.678.666-1.154V52.937a52.38 52.38 0 011.639.906c3.917 2.262 6.533 5.912 7.396 10.295-.936 4.1-3.521 7.671-7.31 9.858l-80.686 46.585a53.293 53.293 0 01-26.655 7.12c-9.218-.001-18.44-2.375-26.66-7.123-.018-.01-.036-.021-.055-.03a15.321 15.321 0 01-5.92-6.183 8.518 8.518 0 01.07-8.028c1.326-2.431 3.308-4.464 5.818-5.912l62.424-36.037v1.02c0 .476.253.916.665 1.154zm71-19.232c3.799 2.192 6.376 5.715 7.308 9.87-1.513-2.288-3.559-4.22-6.062-5.665a55.496 55.496 0 00-2.971-1.596v-2.975l.635-.246c.382.207.742.41 1.09.612zm-35.506-21.107c1.599.93 3.807 1.488 6.319 1.488 2.513 0 4.721-.558 6.32-1.488v15.784c0 1.108-2.462 2.718-6.32 2.718-3.857 0-6.319-1.61-6.319-2.718V26.223zm6.319-1.178c-3.857 0-6.319-1.61-6.319-2.718V19.28c1.599.93 3.807 1.488 6.319 1.488 2.513 0 4.721-.558 6.32-1.488v3.047c0 1.108-2.462 2.718-6.32 2.718zm0-12.38c3.858 0 6.32 1.61 6.32 2.719 0 1.108-2.462 2.718-6.32 2.718-3.857 0-6.319-1.61-6.319-2.719 0-1.108 2.462-2.718 6.319-2.718zm-18.981 3.893l9.997 5.772v19.677c0 3.069 3.863 5.383 8.984 5.383 5.123 0 8.985-2.314 8.985-5.383v-9.301l19.233 11.107-31.963 12.39L63.25 28.948l31.962-12.39zm-3.698 31.79V62.48L74.38 52.586V38.453l17.134 9.894zM9.377 93.91l62.337-35.986v3.386L7.958 98.115a18.033 18.033 0 00-5.808 5.301c.995-3.97 3.537-7.376 7.227-9.506zm-7.5 23.136a18.07 18.07 0 006.222 5.87 55.96 55.96 0 0027.938 7.447c9.678 0 19.356-2.491 27.988-7.475l80.686-46.585a18.084 18.084 0 006.06-5.68c-.195 1.195-.432 2.227-.701 2.938-1.251 3.307-3.565 6.01-6.693 7.816L62.694 127.96a53.294 53.294 0 01-26.658 7.121c-9.217-.001-18.437-2.374-26.658-7.12-4.106-2.374-6.794-6.347-7.501-10.915zm60.282 14.31c0 2.992-1.207 4.977-2.006 4.977-.598 0-1.497-1.194-1.853-3.193a55.438 55.438 0 003.857-1.844l.002.06zm67.588-24.787L77.161 136.93a53.785 53.785 0 01-28.695 7.182 53.768 53.768 0 01-26.907-8.261 56.2 56.2 0 0014.477 1.894c6.7 0 13.4-1.197 19.754-3.585.662 2.917 2.33 4.839 4.363 4.839 2.663 0 4.671-3.286 4.671-7.643 0-.509-.032-1.009-.088-1.497l79.973-46.173a18.376 18.376 0 003.79-2.893 39.161 39.161 0 01-18.752 25.776z" fill="#fff"/></g><defs><clipPath id="clip0"><path fill="#fff" d="M0 0h155v155H0z"/></clipPath></defs></svg>