<svg width="55" height="55" fill="none" xmlns="http://www.w3.org/2000/svg"><g clip-path="url(#clip0)"><path d="M24.055 30.129h6.886v1.628h-6.886v-1.628z" fill="#D83339"/><path d="M5.26 40.725A25.835 25.835 0 011.627 27.5c0-6.91 2.692-13.407 7.578-18.294C14.093 4.32 20.59 1.628 27.5 1.628c4.462 0 8.86 1.154 12.72 3.337l.8-1.417A27.507 27.507 0 0027.5 0C20.155 0 13.249 2.86 8.055 8.055 2.861 13.249 0 20.155 0 27.5c0 4.959 1.335 9.82 3.86 14.058a27.645 27.645 0 0010.12 9.893l.801-1.417a26.012 26.012 0 01-9.522-9.31zm46.678-25.85a27.743 27.743 0 00-8.173-9.552l-.964 1.312a26.108 26.108 0 017.69 8.988A25.58 25.58 0 0153.374 27.5c0 6.91-2.69 13.408-7.578 18.294-4.886 4.887-11.383 7.578-18.294 7.578-3.788 0-7.438-.8-10.849-2.377l-.683 1.477A27.27 27.27 0 0027.502 55c7.345 0 14.25-2.86 19.445-8.055 5.194-5.194 8.054-12.1 8.054-19.445a27.57 27.57 0 00-3.063-12.625z" fill="#1C79CE"/><path d="M37.784 24.917h-1.628v10.377h-9.515v1.628h11.143V24.917zm.001-6.84H17.219v18.845h6.84v-1.628h-5.212V19.705h5.258v8.609H30.9v-8.609h5.258v2.63h1.628v-4.258zm-12.051 8.609V24.87h3.537v1.816h-3.537zm3.537-3.444h-3.537v-3.537h3.537v3.537z" fill="#1C79CE"/><path d="M23.48 7.985l1.152 1.152 2.053-2.054v4.922h1.629V7.083l2.053 2.054 1.152-1.152-4.02-4.018-4.018 4.018z" fill="#D83339"/><path d="M31.519 47.014l-1.152-1.151-2.053 2.053v-4.92h-1.628v4.92l-2.054-2.053-1.152 1.151 4.02 4.019 4.019-4.019zM12.007 26.686H7.085l2.054-2.054-1.151-1.152-4.02 4.02 4.02 4.019 1.15-1.152-2.053-2.053h4.922v-1.628zm30.989 1.628h4.921l-2.053 2.053 1.151 1.152 4.019-4.02-4.019-4.018-1.151 1.15 2.053 2.055h-4.92v1.628zM17.17 42.181h-3.2l2.916-2.915-1.152-1.151-2.915 2.915v-3.2h-1.628v5.98h5.98v-1.63zm20.662-29.362h3.2l-2.915 2.914 1.151 1.151 2.915-2.914v3.2h1.628v-5.98h-5.979v1.629zM17.17 11.19h-5.979v5.98h1.628v-3.2l2.915 2.914 1.152-1.15-2.915-2.915h3.2V11.19zm20.662 32.62h5.98v-5.98h-1.629v3.2l-2.915-2.915-1.15 1.151 2.914 2.915h-3.2v1.628zM13.727 30.129h1.72v1.628h-1.72v-1.628zm0-6.887h1.72v1.628h-1.72v-1.628zm25.823 0h1.723v1.628H39.55v-1.628zm0 6.887h1.723v1.628H39.55v-1.628zm-9.468 9.47h1.722v1.628h-1.722v-1.628zm-6.887 0h1.722v1.628h-1.722v-1.628zm0-25.826h1.722v1.629h-1.722v-1.629zm6.887 0h1.722v1.629h-1.722v-1.629zm-3.442 0h1.722v1.629h-1.721v-1.629zm6.887 0h1.722v1.629h-1.722v-1.629zm-13.773 0h1.722v1.629h-1.722v-1.629zm0 25.826h1.722v1.628h-1.722v-1.628zm6.886 0h1.722v1.628h-1.721v-1.628zm6.887 0h1.722v1.628h-1.722v-1.628zm6.023-6.027h1.723V35.2H39.55v-1.628zm0-6.886h1.723v1.628H39.55v-1.628zm0-6.887h1.723v1.628H39.55v-1.628zm-25.823 0h1.72v1.628h-1.72v-1.628zm0 6.887h1.72v1.628h-1.72v-1.628zm0 6.886h1.72V35.2h-1.72v-1.628z" fill="#1C79CE"/></g><defs><clipPath id="clip0"><path fill="#fff" d="M0 0h55v55H0z"/></clipPath></defs></svg>