<svg width="71" height="55" fill="none" xmlns="http://www.w3.org/2000/svg"><path d="M5.392 12.691H16.36a1.04 1.04 0 100-2.08H5.392a1.04 1.04 0 100 2.08zm10.59 5.007H11.65a1.04 1.04 0 100 2.08h4.333a1.04 1.04 0 100-2.08zM1.04 24.91h10.61a1.04 1.04 0 100-2.08H1.04a1.04 1.04 0 100 2.08zM17.4 43.349a1.04 1.04 0 00-1.04-1.04H5.392a1.04 1.04 0 100 2.08H16.36a1.04 1.04 0 001.04-1.04zm-1.418-8.127H11.65a1.04 1.04 0 100 2.08h4.333a1.04 1.04 0 000-2.08zm-3.292-4.093a1.04 1.04 0 00-1.04-1.04H1.04a1.04 1.04 0 100 2.08h10.61a1.04 1.04 0 001.04-1.04zm31.62-16.133a1.04 1.04 0 001.04-1.04v-1.588a1.04 1.04 0 10-2.08 0v1.588c0 .574.465 1.04 1.04 1.04z" fill="#1C79CE"/><path d="M55.746 16.064a1.04 1.04 0 00-1.471 0l-1.123 1.123a1.04 1.04 0 101.471 1.47l1.123-1.122a1.04 1.04 0 000-1.47z" fill="#D83339"/><path d="M57.852 26.46a1.04 1.04 0 100 2.08h1.588a1.04 1.04 0 100-2.08h-1.587zm-3.229 9.882a1.04 1.04 0 00-1.47 1.47l1.122 1.123a1.04 1.04 0 001.47-1.47l-1.122-1.123zM43.27 41.044v1.587a1.04 1.04 0 102.08 0v-1.587a1.04 1.04 0 10-2.08 0z" fill="#1C79CE"/><path d="M33.998 36.342l-1.123 1.122a1.04 1.04 0 001.47 1.471l1.123-1.123a1.04 1.04 0 00-1.47-1.47z" fill="#D83339"/><path d="M29.18 26.46a1.04 1.04 0 100 2.08h1.588a1.04 1.04 0 100-2.08h-1.587zm6.288-9.273l-1.122-1.123a1.04 1.04 0 00-1.471 1.471l1.123 1.123a1.04 1.04 0 101.47-1.471z" fill="#1C79CE"/><path d="M49.902 27.5a1.04 1.04 0 00-1.04-1.04H45.35v-7.722a1.04 1.04 0 10-2.08 0V27.5c0 .575.465 1.04 1.04 1.04h4.552a1.04 1.04 0 001.04-1.04z" fill="#D83339"/><path d="M64.031 27.328a1.04 1.04 0 00.975-1.101C64.345 15.313 55.254 6.764 44.31 6.764c-11.434 0-20.736 9.302-20.736 20.736 0 11.434 9.302 20.736 20.736 20.736 10.244 0 18.984-7.506 20.505-17.633a1.04 1.04 0 10-2.057-.31c-1.366 9.1-9.223 15.863-18.448 15.863-10.287 0-18.656-8.37-18.656-18.656 0-10.287 8.37-18.656 18.656-18.656 9.846 0 18.025 7.69 18.62 17.509a1.04 1.04 0 001.101.975z" fill="#1C79CE"/><path d="M44.31.81a26.68 26.68 0 00-10.54 2.178H15.418a1.04 1.04 0 100 2.08h14.438a26.662 26.662 0 00-5.334 4.521 1.04 1.04 0 001.542 1.396A24.663 24.663 0 0144.31 2.89c13.57 0 24.61 11.04 24.61 24.61S57.88 52.11 44.31 52.11 19.7 41.07 19.7 27.5a24.52 24.52 0 013.925-13.338 1.04 1.04 0 10-1.747-1.13A26.593 26.593 0 0017.62 27.5c0 9.397 4.883 17.675 12.243 22.432H15.42a1.04 1.04 0 100 2.08h18.336a26.536 26.536 0 0010.556 2.178C59.028 54.19 71 42.217 71 27.5S59.028.81 44.311.81z" fill="#1C79CE"/></svg>