<svg width="55" height="55" fill="none" xmlns="http://www.w3.org/2000/svg"><g clip-path="url(#clip0)"><path d="M24.578 3.676a2.132 2.132 0 002.192 1.925 19.06 19.06 0 017.66 1.325 19.068 19.068 0 016.516 4.282 19.26 19.26 0 012.89 3.69l-1.205.136a2.625 2.625 0 00-2.135 1.573 2.626 2.626 0 00.294 2.637l.796 1.08a.806.806 0 101.297-.957l-.795-1.079a1.024 1.024 0 01-.116-1.036c.072-.165.299-.557.838-.617l2.41-.27a.805.805 0 00.626-1.17 20.752 20.752 0 00-3.76-5.126 20.673 20.673 0 00-7.065-4.642 20.653 20.653 0 00-8.303-1.437.517.517 0 01-.537-.465l-.126-1.334a.512.512 0 01.49-.564 22.998 22.998 0 019.301 1.579 23.027 23.027 0 017.914 5.189 22.981 22.981 0 014.817 7.024.806.806 0 00.827.477l2.82-.315a1.02 1.02 0 01.953.417c.107.145.333.537.115 1.034l-3.794 8.678a1.022 1.022 0 01-.838.618c-.18.02-.632.02-.954-.418l-2.921-3.964a.806.806 0 00-1.297.956l2.921 3.964a2.62 2.62 0 002.43 1.063 2.625 2.625 0 002.136-1.573l3.794-8.678a2.625 2.625 0 00-.295-2.636 2.624 2.624 0 00-2.43-1.062l-2.237.25a24.61 24.61 0 00-4.908-6.975 24.63 24.63 0 00-8.464-5.549A24.607 24.607 0 0026.486.017a2.13 2.13 0 00-1.516.722 2.138 2.138 0 00-.52 1.603l.128 1.334zm5.847 47.647a2.133 2.133 0 00-2.192-1.924 19.062 19.062 0 01-7.66-1.325 19.069 19.069 0 01-6.517-4.282 19.24 19.24 0 01-2.89-3.69l1.206-.136a2.625 2.625 0 002.136-1.573 2.625 2.625 0 00-.295-2.636l-5.62-7.623a2.625 2.625 0 00-2.43-1.063 2.625 2.625 0 00-2.135 1.573L.234 37.322a2.625 2.625 0 00.294 2.636A2.626 2.626 0 002.96 41.02l2.237-.25c.133.284.273.568.419.85a.806.806 0 001.431-.74 22.3 22.3 0 01-.62-1.3.805.805 0 00-.828-.477l-2.818.316c-.54.06-.847-.272-.954-.418a1.022 1.022 0 01-.116-1.035l3.795-8.677c.217-.497.658-.598.837-.618.18-.02.632-.02.954.418l5.62 7.623c.321.437.188.869.115 1.034a1.023 1.023 0 01-.838.618l-2.41.27a.806.806 0 00-.626 1.172 20.74 20.74 0 003.76 5.124 20.673 20.673 0 007.065 4.642 20.648 20.648 0 008.303 1.436.516.516 0 01.536.466l.127 1.334a.512.512 0 01-.49.564 23.001 23.001 0 01-9.301-1.58 23.026 23.026 0 01-7.914-5.188 23.481 23.481 0 01-2.586-3.068.806.806 0 10-1.317.928 25.093 25.093 0 002.764 3.28 24.63 24.63 0 008.464 5.549 24.568 24.568 0 009.949 1.689 2.13 2.13 0 001.516-.722 2.138 2.138 0 00.52-1.603l-.128-1.335zM13.053 26.091c7.194 0 13.046-5.852 13.046-13.045C26.099 5.852 20.247 0 13.053 0 5.86 0 .008 5.852.008 13.046c0 7.193 5.852 13.045 13.045 13.045zm0-24.48c6.305 0 11.434 5.13 11.434 11.434 0 6.305-5.129 11.435-11.434 11.435S1.62 19.35 1.62 13.046C1.62 6.74 6.75 1.61 13.053 1.61z" fill="#1C79CE"/><path d="M13.055 22.117c5.002 0 9.07-4.07 9.07-9.07 0-5.002-4.069-9.071-9.07-9.071-5.002 0-9.07 4.069-9.07 9.07 0 5.002 4.068 9.07 9.07 9.07zm0-16.53c4.113 0 7.46 3.346 7.46 7.46 0 4.112-3.347 7.458-7.46 7.458-4.113 0-7.46-3.346-7.46-7.459 0-4.113 3.347-7.46 7.46-7.46z" fill="#1C79CE"/><path d="M9.78 17.505c.939.506 1.586.665 2.403.708v.497a.806.806 0 101.611 0v-.555c1.718-.308 2.764-1.559 2.937-2.792.2-1.436-.72-2.669-2.343-3.141-1.026-.299-2.163-.661-2.82-1.086-.306-.197-.303-.514-.275-.686.06-.36.356-.803 1.007-.964a3.55 3.55 0 01.738-.105h.014c.995-.03 1.61.396 1.651.426a.806.806 0 00.969-1.288c-.043-.032-.74-.55-1.878-.706v-.43a.806.806 0 10-1.611 0v.48c-.09.017-.18.036-.27.059-1.161.288-2.028 1.176-2.21 2.263-.154.928.226 1.81.99 2.305.67.433 1.61.803 3.245 1.28.848.246 1.284.746 1.197 1.37-.133.952-1.208 1.471-2.151 1.477-1.088.006-1.52-.034-2.44-.53a.805.805 0 10-.765 1.418z" fill="#D83339"/><path d="M54.114 31.372a.806.806 0 00-.794-.667H33.323a.806.806 0 00-.794.667 58.796 58.796 0 000 20.275.806.806 0 00.794.667H53.32a.806.806 0 00.794-.667 58.796 58.796 0 000-20.275zm-8.368.944v7.733l-1.995-1.258a.806.806 0 00-.86 0l-1.994 1.258v-7.733h4.85zm6.893 18.387H34.004a57.175 57.175 0 010-18.387h5.282v9.193a.806.806 0 001.235.682l2.8-1.766 2.801 1.766a.805.805 0 001.236-.682v-9.193h5.281a57.172 57.172 0 010 18.387z" fill="#1C79CE"/></g><defs><clipPath id="clip0"><path fill="#fff" d="M0 0h55v55H0z"/></clipPath></defs></svg>