<svg width="55" height="55" fill="none" xmlns="http://www.w3.org/2000/svg"><path d="M44.637 47.903l-2.054-6.161a6.21 6.21 0 00-4.78-4.146l-5.929-1.078v-.46a8.927 8.927 0 002.645-2.348h1.79a2.665 2.665 0 002.662-2.662V20.404c0-6.358-5.174-11.532-11.532-11.532-6.359 0-11.533 5.174-11.533 11.532v6.21a3.554 3.554 0 002.83 3.475 8.887 8.887 0 004.267 5.97v.46l-5.93 1.078a6.209 6.209 0 00-4.779 4.146l-.355 1.065-3.021-3.022a.889.889 0 010-1.255l3.504-3.503-6.577-6.577-3.96 3.96a6.17 6.17 0 00-1.819 4.391c0 1.66.646 3.218 1.819 4.39l11.99 11.99a6.17 6.17 0 004.39 1.82 6.143 6.143 0 004.363-1.794l4.321-3.959-1.348-1.345h19.036zm-7.44-16.854c0 .49-.399.887-.887.887h-.746a8.818 8.818 0 00.578-1.848c.38-.08.73-.23 1.055-.42v1.38zm-.887-2.908v-3.056c.527.308.887.874.887 1.528s-.36 1.22-.887 1.528zm-17.742 0a1.768 1.768 0 01-.887-1.528c0-.654.359-1.22.887-1.528v3.056zm0-5.963v1.013a3.517 3.517 0 00-.887.367v-3.155c0-5.38 4.377-9.758 9.758-9.758 5.38 0 9.758 4.378 9.758 9.758v3.155a3.485 3.485 0 00-.887-.367v-1.014h-.888a9.76 9.76 0 01-6.944-2.876l-1.04-1.04-1.038 1.04a9.76 9.76 0 01-6.945 2.877h-.887zm1.774 6.21v-4.47a11.5 11.5 0 007.097-3.153 11.496 11.496 0 007.096 3.153v4.47a7.043 7.043 0 01-.96 3.548H27.44v1.774h4.678a7.059 7.059 0 01-4.678 1.774c-3.913 0-7.097-3.184-7.097-7.097zm9.758 8.461v.042l-2.661 2.661-2.662-2.661v-.042a8.856 8.856 0 005.323 0zm-16.124 5.453a4.437 4.437 0 013.414-2.962l6.201-1.126 3.848 3.847 3.846-3.846 6.2 1.126a4.436 4.436 0 013.415 2.962l1.276 3.826H23.827l-3.455-3.455-3.84 3.473a.906.906 0 01-1.254 0l-1.937-1.938.635-1.907zM5.844 30.96l4.068 4.068-.963.963-4.068-4.068.963-.963zM21.4 51.929a4.413 4.413 0 01-3.136 1.297 4.41 4.41 0 01-3.136-1.3L3.137 39.938a4.407 4.407 0 01-1.298-3.136c0-1.185.461-2.3 1.299-3.137l.487-.487 4.069 4.068-.032.032a2.666 2.666 0 000 3.764l6.361 6.361c.503.502 1.171.78 1.883.78.711 0 1.379-.277 1.85-.749l.066-.06 4.087 4.087-.51.467zm1.819-1.669l-4.078-4.078 1.172-1.059 4.07 4.071-1.164 1.066zM52.272 0h-12.42a2.665 2.665 0 00-2.66 2.661v7.097a2.665 2.665 0 002.66 2.661h2.37l-.917 5.35 8.56-5.35h2.407a2.665 2.665 0 002.661-2.66V2.66A2.664 2.664 0 0052.273 0zm.887 9.758a.889.889 0 01-.887.887h-2.916l-5.634 3.521.604-3.52h-4.473a.889.889 0 01-.887-.888V2.661c0-.489.398-.887.887-.887h12.42c.488 0 .886.398.886.887v7.097z" fill="#1C79CE"/><path d="M51.387 3.549H40.742v1.774h10.645V3.549zm-3.548 3.548h-7.097V8.87h7.097V7.097z" fill="#D83339"/><path d="M51.388 7.097h-1.775V8.87h1.775V7.097zM27.436 2.661c-11.591 0-21.575 8.018-24.171 19.201L1.584 19.06l-1.522.913 3.119 5.196 5.195-3.119-.912-1.521-2.404 1.442C7.574 11.741 16.774 4.435 27.436 4.435c2.33 0 4.63.346 6.834 1.03l.525-1.695a24.823 24.823 0 00-7.36-1.109zm27.068 16.982l-5.196-3.119-3.117 5.197 1.521.913 1.553-2.588A22.97 22.97 0 0150.5 27.5a23.119 23.119 0 01-5.145 14.522l1.378 1.118a24.894 24.894 0 005.54-15.64 24.72 24.72 0 00-1.289-7.9l2.607 1.564.913-1.521z" fill="#1C79CE"/></svg>