<svg width="55" height="55" fill="none" xmlns="http://www.w3.org/2000/svg"><g clip-path="url(#clip0)"><path d="M32.62 23.398a.803.803 0 11-1.575-.332 9.885 9.885 0 013.426-5.549 9.593 9.593 0 016.072-2.18c2.665 0 5.077 1.108 6.83 2.863 1.776 1.775 2.879 4.22 2.879 6.845 0 4.252-3.728 8.746-6.828 12.069a4.351 4.351 0 011.47 3.255c0 1.203-.486 2.29-1.275 3.08a4.342 4.342 0 01-3.076 1.272 4.348 4.348 0 01-2.89-7.6c-2.622-2.8-5.682-6.454-6.566-10.075a.802.802 0 01.594-.968.799.799 0 01.969.59c.834 3.418 3.983 7.044 6.562 9.764.442.463.887.923 1.331 1.38.405-.424.813-.847 1.218-1.273 2.988-3.155 6.88-7.599 6.88-11.494 0-2.183-.92-4.22-2.406-5.706-1.465-1.465-3.475-2.391-5.692-2.391a7.998 7.998 0 00-5.058 1.815 8.275 8.275 0 00-2.866 4.635zm1.349 18.183a.806.806 0 01.413 1.557l-1.918.517a.802.802 0 11-.414-1.553l1.919-.52zm-4.94 1.337c.43-.113.87.14.986.57a.808.808 0 01-.569.986l-1.919.518a.805.805 0 11-.417-1.553l1.919-.52zm6.094-6.252a.803.803 0 11-.615 1.486l-1.834-.767a.807.807 0 01-.435-1.054.808.808 0 011.053-.432l1.83.767zm-4.718-1.976a.803.803 0 11-.615 1.483l-1.833-.768a.804.804 0 11.615-1.486l1.833.77zm-4.717-1.98a.805.805 0 01-.618 1.486l-1.833-.767a.805.805 0 01.618-1.486l1.833.767zm-4.72-1.976a.803.803 0 11-.615 1.486l-1.834-.767a.806.806 0 01-.435-1.054.807.807 0 011.054-.433l1.83.768zm-4.717-1.977a.803.803 0 11-.615 1.483l-1.834-.767a.803.803 0 11.616-1.486l1.833.77zm10.893-16.679a.805.805 0 011.115.208.803.803 0 01-.21 1.114l-1.636 1.127a.802.802 0 01-.908-1.322l1.639-1.127zm-4.218 2.9a.802.802 0 01.908 1.321l-1.639 1.124a.799.799 0 01-1.114-.207.805.805 0 01.207-1.115l1.638-1.123zm-4.215 2.896a.804.804 0 011.115.207.804.804 0 01-.207 1.114l-1.639 1.127A.802.802 0 0117.073 19l1.638-1.126zm-4.217 2.899a.802.802 0 01.908 1.322l-1.64 1.123a.8.8 0 01-1.114-.207.803.803 0 01.21-1.114l1.636-1.124zm18.82-15.735c1.202 0 2.29.487 3.075 1.273a4.336 4.336 0 011.276 3.075c0 1.203-.487 2.29-1.276 3.08a4.336 4.336 0 01-3.075 1.272 4.335 4.335 0 01-3.076-1.273 4.339 4.339 0 01-1.276-3.079c0-1.2.487-2.287 1.276-3.075a4.335 4.335 0 013.076-1.273zM35.25 7.45a2.729 2.729 0 00-1.936-.801 2.73 2.73 0 00-1.937.8 2.732 2.732 0 00-.804 1.937 2.743 2.743 0 005.481 0c0-.755-.307-1.44-.804-1.936zM7.998 21.997c1.2 0 2.287.487 3.076 1.273a4.339 4.339 0 011.276 3.079c0 1.2-.488 2.287-1.276 3.075a4.334 4.334 0 01-3.076 1.274 4.348 4.348 0 01-4.352-4.349 4.349 4.349 0 014.352-4.352zm1.937 2.412a2.743 2.743 0 00-4.678 1.94 2.732 2.732 0 002.74 2.738 2.73 2.73 0 002.739-2.738c0-.759-.305-1.444-.801-1.94zm32.384 13.874l-.652.676c-.332.35-.695.533-1.105.54-.537.008-.88-.266-1.234-.63l-.566-.586a2.789 2.789 0 00-.573.68 2.7 2.7 0 00-.387 1.406c0 .759.308 1.444.804 1.94a2.742 2.742 0 004.288-3.35 2.719 2.719 0 00-.575-.676zM20.825 41.4a4.348 4.348 0 014.352 4.352c0 1.2-.488 2.29-1.273 3.075a4.338 4.338 0 01-3.08 1.276c-1.2 0-2.286-.487-3.075-1.276a4.328 4.328 0 01-1.273-3.075 4.346 4.346 0 014.349-4.352zm1.94 2.414a2.735 2.735 0 00-3.877 0 2.72 2.72 0 00-.801 1.937c0 .755.305 1.44.801 1.937a2.732 2.732 0 001.937.804 2.742 2.742 0 001.94-4.678zm21.75 3.204a.801.801 0 011.132.076.801.801 0 01-.076 1.133 27.418 27.418 0 01-19.015 6.758c-6.724-.232-13.375-2.909-18.503-8.037C2.925 41.82.248 35.168.016 28.444A27.424 27.424 0 016.774 9.429a.801.801 0 011.133-.076.801.801 0 01.076 1.133c-4.459 5.1-6.578 11.538-6.359 17.91a25.78 25.78 0 007.568 17.412 25.798 25.798 0 0017.413 7.57c6.37.217 12.808-1.903 17.91-6.36zM10.485 7.983a.802.802 0 01-1.133-.077.801.801 0 01.076-1.132A27.423 27.423 0 0128.444.016c6.724.232 13.375 2.908 18.503 8.037 5.128 5.128 7.805 11.779 8.037 18.503a27.419 27.419 0 01-6.758 19.015.801.801 0 01-1.132.076.801.801 0 01-.077-1.133c4.459-5.1 6.578-11.539 6.362-17.91a25.8 25.8 0 00-7.57-17.412 25.781 25.781 0 00-17.414-7.568c-6.37-.22-12.808 1.9-17.909 6.359zm30.057 11.779c1.459 0 2.78.59 3.737 1.547a5.269 5.269 0 011.547 3.736 5.27 5.27 0 01-1.547 3.737 5.27 5.27 0 01-3.737 1.55 5.27 5.27 0 01-3.736-1.55 5.268 5.268 0 01-1.547-3.737c0-1.458.59-2.78 1.547-3.736a5.269 5.269 0 013.736-1.547zm2.598 2.689a3.66 3.66 0 00-2.598-1.078 3.654 3.654 0 00-2.597 1.078 3.656 3.656 0 00-1.075 2.594 3.66 3.66 0 001.075 2.598 3.663 3.663 0 002.597 1.075 3.67 3.67 0 003.673-3.673c0-1.014-.411-1.93-1.075-2.594z" fill="#1C79CE"/><path d="M33.968 41.581a.806.806 0 01.414 1.557l-1.918.517a.802.802 0 11-.414-1.553l1.919-.52zm-4.94 1.337c.43-.113.872.14.987.57a.808.808 0 01-.569.986l-1.919.518a.805.805 0 11-.417-1.553l1.919-.52zm1.377-8.228a.803.803 0 11-.615 1.483l-1.833-.768a.804.804 0 11.615-1.486l1.833.77zm-4.717-1.98a.805.805 0 01-.618 1.486l-1.833-.767a.805.805 0 01.618-1.486l1.833.767zm-4.72-1.976a.803.803 0 11-.615 1.486l-1.834-.767a.806.806 0 01-.435-1.054.807.807 0 011.054-.433l1.83.768zm1.958-15.756a.802.802 0 01.908 1.321l-1.639 1.124a.799.799 0 01-1.114-.207.805.805 0 01.207-1.115l1.638-1.123zm-4.215 2.896a.804.804 0 011.115.207.804.804 0 01-.207 1.114l-1.639 1.127A.802.802 0 0117.073 19l1.638-1.126zM7.998 21.997c1.2 0 2.287.487 3.076 1.273a4.339 4.339 0 011.276 3.079c0 1.2-.488 2.287-1.276 3.075a4.334 4.334 0 01-3.076 1.274 4.348 4.348 0 01-4.352-4.349 4.349 4.349 0 014.352-4.352zm1.937 2.412a2.743 2.743 0 00-4.678 1.94 2.732 2.732 0 002.74 2.738 2.73 2.73 0 002.739-2.738c0-.759-.305-1.444-.801-1.94zm34.58 22.608a.801.801 0 011.132.076.801.801 0 01-.076 1.133 27.418 27.418 0 01-19.015 6.758c-6.724-.232-13.375-2.909-18.503-8.037C2.925 41.82.248 35.168.016 28.444A27.424 27.424 0 016.774 9.429a.801.801 0 011.133-.076.801.801 0 01.076 1.133c-4.459 5.1-6.578 11.538-6.359 17.91a25.78 25.78 0 007.568 17.412 25.798 25.798 0 0017.413 7.57c6.37.217 12.808-1.903 17.91-6.36zm-3.972-27.255c1.459 0 2.78.59 3.737 1.547a5.269 5.269 0 011.547 3.736 5.27 5.27 0 01-1.547 3.737 5.27 5.27 0 01-3.737 1.55 5.27 5.27 0 01-3.736-1.55 5.268 5.268 0 01-1.547-3.737c0-1.458.59-2.78 1.547-3.736a5.269 5.269 0 013.736-1.547zm2.598 2.689a3.66 3.66 0 00-2.598-1.078 3.654 3.654 0 00-2.597 1.078 3.656 3.656 0 00-1.075 2.594 3.66 3.66 0 001.075 2.598 3.663 3.663 0 002.597 1.075 3.67 3.67 0 003.673-3.673c0-1.014-.411-1.93-1.075-2.594z" fill="#1C79CE"/><rect x="18.379" y="29.648" width="3.634" height="1.6" rx=".8" transform="rotate(22.761 18.379 29.648)" fill="#D83339"/><rect x="23.102" y="31.638" width="3.627" height="1.627" rx=".813" transform="rotate(22.761 23.102 31.638)" fill="#D83339"/><rect x="27.801" y="33.589" width="3.648" height="1.632" rx=".816" transform="rotate(22.761 27.8 33.589)" fill="#D83339"/><rect x="26.309" y="43.654" width="3.622" height="1.601" rx=".8" transform="rotate(-14.947 26.309 43.654)" fill="#1C79CE"/><rect x="24.598" y="15.828" width="3.705" height="1.617" rx=".808" transform="rotate(146.176 24.598 15.828)" fill="#D83339"/><rect x="20.285" y="18.751" width="3.644" height="1.611" rx=".805" transform="rotate(146.176 20.285 18.751)" fill="#D83339"/></g><defs><clipPath id="clip0"><path fill="#fff" d="M0 0h55v55H0z"/></clipPath></defs></svg>