<svg width="55" height="55" fill="none" xmlns="http://www.w3.org/2000/svg"><path d="M32.603 9.4a5.108 5.108 0 00-5.102-5.103 5.108 5.108 0 00-5.103 5.102 5.108 5.108 0 005.103 5.103 5.108 5.108 0 005.102-5.103zm-8.593 0a3.495 3.495 0 013.49-3.493A3.495 3.495 0 0130.992 9.4a3.495 3.495 0 01-3.491 3.492A3.495 3.495 0 0124.01 9.4z" fill="#D83339"/><path d="M54.661 24.266l-4.378-6.275a1.882 1.882 0 00-3.084 0l-4.378 6.275a1.879 1.879 0 00.705 2.76c.311.154.668.316 1.062.471a17.088 17.088 0 01-3.801 8.88.806.806 0 101.243 1.025A18.694 18.694 0 0046.15 28c.794.2 1.669.333 2.591.333.8 0 1.564-.1 2.27-.257-1.161 10.4-9.16 18.899-19.483 20.672v-4.925a18.814 18.814 0 008.14-4.028.806.806 0 10-1.042-1.229 17.205 17.205 0 01-7.098 3.603V27.393h2.417a2.958 2.958 0 002.954-2.954 2.957 2.957 0 00-2.954-2.955h-2.417v-3.593c3.173-1.512 5.371-4.75 5.371-8.492C36.9 4.217 32.683 0 27.5 0c-4.445 0-8.318 3.157-9.207 7.506a.805.805 0 101.578.323c.737-3.603 3.946-6.218 7.63-6.218 4.294 0 7.788 3.494 7.788 7.788 0 4.295-3.494 7.789-7.788 7.789a7.79 7.79 0 01-7.651-6.327.806.806 0 00-1.584.3 9.392 9.392 0 005.206 6.73v3.593h-2.416a2.957 2.957 0 00-2.954 2.954 2.957 2.957 0 002.954 2.955h2.417v14.779c-6.932-1.666-12.21-7.564-13.062-14.674.395-.155.752-.317 1.063-.472a1.878 1.878 0 00.706-2.76L7.8 17.992a1.881 1.881 0 00-3.083 0L.34 24.266a1.879 1.879 0 00.705 2.76c.367.182.797.375 1.278.554A25.305 25.305 0 009.11 42.763a25.327 25.327 0 0014.363 7.62v.589A4.033 4.033 0 0027.5 55a4.033 4.033 0 004.028-4.028v-.589a25.323 25.323 0 0014.402-7.661 25.302 25.302 0 006.748-15.142c.48-.18.911-.372 1.278-.554a1.878 1.878 0 00.705-2.76zm-29.578-5.783a9.392 9.392 0 004.834 0v3.001h-4.834v-3.001zm-5.371 5.956c0-.741.602-1.343 1.343-1.343h12.89a1.344 1.344 0 010 2.685h-12.89c-.74 0-1.343-.602-1.343-1.342zm-18.092.97a.266.266 0 01.04-.22l4.379-6.275c.07-.1.167-.115.22-.115.052 0 .15.015.22.115l4.378 6.274a.266.266 0 01.04.221.265.265 0 01-.14.174c-1.048.52-2.679 1.14-4.498 1.14-1.82 0-3.45-.62-4.499-1.14a.265.265 0 01-.14-.174zm2.37 2.669c.706.156 1.47.256 2.269.256.922 0 1.797-.133 2.591-.333a18.636 18.636 0 004.807 10.19 18.941 18.941 0 009.815 5.633v4.925C13.162 46.977 5.15 38.47 3.989 28.077zm23.51 25.31a2.42 2.42 0 01-2.417-2.416v-23.58h4.834v23.58a2.42 2.42 0 01-2.417 2.417zM53.38 25.41a.265.265 0 01-.14.174c-1.049.52-2.68 1.14-4.499 1.14-1.82 0-3.45-.62-4.498-1.14a.267.267 0 01-.1-.394l4.378-6.275c.07-.1.167-.115.22-.115.052 0 .15.015.22.115l4.379 6.274a.267.267 0 01.04.221z" fill="#1C79CE"/></svg>