<svg width="13" height="14" fill="none" xmlns="http://www.w3.org/2000/svg"><path fill-rule="evenodd" clip-rule="evenodd" d="M8.147 6.646a.5.5 0 01.708 0l3 3a.5.5 0 010 .708l-3 3a.5.5 0 01-.708-.708L10.794 10 8.147 7.354a.5.5 0 010-.708z" fill="#fff"/><path fill-rule="evenodd" clip-rule="evenodd" d="M0 10a.5.5 0 01.5-.5H11a.5.5 0 110 1H.5A.5.5 0 010 10zM3.856.646a.5.5 0 010 .708L1.208 4l2.647 2.646a.5.5 0 11-.708.708l-3-3a.5.5 0 010-.708l3-3a.5.5 0 01.708 0z" fill="#fff"/><path fill-rule="evenodd" clip-rule="evenodd" d="M.5 4a.5.5 0 01.5-.5h10.5a.5.5 0 010 1H1A.5.5 0 01.5 4z" fill="#fff"/></svg>