<svg width="122" height="47" fill="none" xmlns="http://www.w3.org/2000/svg"><path d="M0 2.468A2.48 2.48 0 012.49 0h78.428a2.48 2.48 0 012.49 2.468v1.234a2.48 2.48 0 01-2.49 2.469H2.49A2.48 2.48 0 010 3.702V2.468zm38.592 29.619a2.48 2.48 0 012.49-2.468h78.428c1.375 0 2.49 1.018 2.49 2.381v1.321a2.48 2.48 0 01-2.49 2.468H41.082a2.48 2.48 0 01-2.49-2.468v-1.234zM9.96 12.341a2.48 2.48 0 012.489-2.468h58.51a2.48 2.48 0 012.49 2.468v1.234a2.48 2.48 0 01-2.49 2.469H12.45a2.48 2.48 0 01-2.49-2.469v-1.234zM87.143 6.17a2.48 2.48 0 012.49-2.468h11.204a2.48 2.48 0 012.49 2.469v1.234a2.48 2.48 0 01-2.49 2.468H89.633a2.48 2.48 0 01-2.49-2.468V6.17z" fill="#1C79CE"/><path d="M100.241 5.038a2.503 2.503 0 013.441.74l7.839 12.255c.479.967.707 2.955-.449 3.693l-1.047.668a2.503 2.503 0 01-3.441-.74L98.447 9.116a2.455 2.455 0 01.747-3.411l1.047-.668z" fill="#1C79CE"/><path d="M108.11 18.901c.7-1.173 2.39-1.901 3.411-.868l9.102 5.314a2.471 2.471 0 01.862 3.397l-.634 1.062a2.501 2.501 0 01-3.41.868l-10.112-6.28c-.829-.894-.553-1.257.147-2.43l.634-1.063z" fill="#1C79CE"/><path d="M119.5 23c1.375 0 2.5 1.5 2.5 2.916v7.405a2.48 2.48 0 01-2.49 2.468h-1.245a2.478 2.478 0 01-2.489-2.468v-7.405a2.478 2.478 0 012.489-2.468L119.5 23zm-94.602-.786a2.48 2.48 0 012.49-2.468h43.571a2.48 2.48 0 012.49 2.468v1.234a2.479 2.479 0 01-2.49 2.468H27.388a2.479 2.479 0 01-2.49-2.468v-1.234zM78.429 3.085C78.429 1.381 79.822 0 81.54 0s3.112 1.381 3.112 3.085V25.3c0 1.704-1.393 3.086-3.112 3.086s-3.112-1.382-3.112-3.086V3.085zm8.714 3.703c0-1.704 1.393-3.086 3.112-3.086s3.112 1.382 3.112 3.086V22.83c0 1.704-1.393 3.085-3.112 3.085s-3.112-1.38-3.112-3.085V6.788zM44.757 40.395h-2.204V46h-1.225v-5.605h-2.195V39.35h5.624v1.045zm3.991-1.045c.576 0 1.077.095 1.501.285.43.19.76.462.988.817.228.355.342.776.342 1.264 0 .48-.114.902-.342 1.263-.228.355-.557.627-.988.817-.424.19-.925.285-1.5.285h-1.502V46h-1.235v-6.65h2.736zm-.057 3.686c.538 0 .947-.114 1.226-.342.278-.228.418-.554.418-.979 0-.424-.14-.75-.418-.978-.28-.228-.688-.342-1.226-.342h-1.444v2.641h1.444zm8.32 1.425h-3.325L53.032 46h-1.273l2.992-6.65h1.217L58.969 46h-1.293l-.665-1.539zm-.408-.969l-1.254-2.907-1.244 2.907h2.498zm9.484-4.142V46h-1.235v-2.85h-3.439V46h-1.235v-6.65h1.235v2.745h3.44V39.35h1.234zm5.115 6.745c-.672 0-1.28-.146-1.824-.437a3.334 3.334 0 01-1.273-1.226 3.414 3.414 0 01-.456-1.757c0-.652.155-1.238.465-1.758.31-.519.735-.924 1.273-1.215a3.74 3.74 0 011.824-.447c.545 0 1.042.095 1.492.285.45.19.83.465 1.14.827l-.798.75a2.327 2.327 0 00-1.777-.779 2.46 2.46 0 00-1.225.304 2.122 2.122 0 00-.846.826 2.388 2.388 0 00-.304 1.207c0 .45.102.852.304 1.207a2.2 2.2 0 00.846.836c.36.196.77.294 1.225.294.703 0 1.295-.263 1.777-.788l.798.76c-.31.36-.694.636-1.15.826-.45.19-.947.285-1.491.285zm3.523-3.23h2.612v.988h-2.612v-.988zm7.359 3.23c-.672 0-1.28-.146-1.824-.437a3.335 3.335 0 01-1.273-1.226 3.414 3.414 0 01-.456-1.757c0-.652.155-1.238.465-1.758.31-.519.735-.924 1.273-1.215a3.74 3.74 0 011.824-.447c.545 0 1.042.095 1.492.285.45.19.83.465 1.14.827l-.798.75a2.327 2.327 0 00-1.777-.779 2.46 2.46 0 00-1.225.304 2.123 2.123 0 00-.846.826 2.388 2.388 0 00-.304 1.207c0 .45.101.852.304 1.207a2.2 2.2 0 00.846.836c.36.196.77.294 1.225.294.703 0 1.295-.263 1.777-.788l.798.76c-.31.36-.694.636-1.15.826-.45.19-.947.285-1.491.285zm8.965-1.13V46H86.06v-6.65h4.855v1.035h-3.62v1.73h3.211v1.016h-3.21v1.834h3.752zm4.303-5.615c.576 0 1.076.095 1.5.285.431.19.76.462.989.817.228.355.342.776.342 1.264 0 .48-.114.902-.342 1.263-.228.355-.558.627-.988.817-.425.19-.925.285-1.501.285H93.85V46h-1.234v-6.65h2.736zm-.058 3.686c.539 0 .947-.114 1.226-.342.279-.228.418-.554.418-.979 0-.424-.14-.75-.418-.978-.279-.228-.687-.342-1.225-.342H93.85v2.641h1.445zm8.626-.494c.425.114.748.31.969.589.222.272.333.614.333 1.026 0 .583-.215 1.036-.646 1.359-.431.323-1.055.484-1.872.484H99.55v-6.65h2.974c.747 0 1.33.149 1.748.447.418.297.627.718.627 1.263 0 .348-.086.65-.257.902a1.54 1.54 0 01-.722.58zm-3.154-.352h1.653c.399 0 .703-.079.912-.237.209-.158.314-.393.314-.703 0-.31-.105-.545-.314-.703-.209-.165-.513-.247-.912-.247h-1.653v1.89zm1.9 2.86c.874 0 1.311-.33 1.311-.988 0-.646-.437-.969-1.311-.969h-1.9v1.957h1.9zm4.162-5.7h1.216v4.721l3.572-4.721h1.15V46h-1.216v-4.712L107.978 46h-1.15v-6.65zm11.051 6.745a3.808 3.808 0 01-1.824-.437 3.342 3.342 0 01-1.273-1.226 3.414 3.414 0 01-.456-1.757c0-.652.155-1.238.466-1.758.31-.519.734-.924 1.273-1.215a3.736 3.736 0 011.824-.447c.544 0 1.042.095 1.491.285.45.19.83.465 1.14.827l-.798.75a2.326 2.326 0 00-1.776-.779c-.456 0-.865.101-1.226.304a2.117 2.117 0 00-.845.826 2.385 2.385 0 00-.304 1.207c0 .45.101.852.304 1.207.202.354.484.633.845.836.361.196.77.294 1.226.294.703 0 1.295-.263 1.776-.788l.798.76c-.31.36-.693.636-1.149.826-.45.19-.947.285-1.492.285z" fill="#1C79CE"/></svg>