<svg width="143" height="145" fill="none" xmlns="http://www.w3.org/2000/svg"><g clip-path="url(#clip0)"><path d="M60.972 129.261a.53.53 0 00-.286-.317l-24.11-10.721 2.364-1.386a22.508 22.508 0 006.048-5.18l10.758.288h.014c.1 0 .197-.029.282-.083l2.074-1.342a.54.54 0 00.235-.545.529.529 0 00-.406-.427l-10.106-2.207 1.71-2.938a2.426 2.426 0 00.232-1.939 2.468 2.468 0 00-.846-1.236l3.165-8.316a.54.54 0 00-.145-.595.519.519 0 00-.6-.064l-5.942 3.355a.526.526 0 00-.166.148l-4.973 6.806-2.75-4.195a.52.52 0 00-.718-.155l-1.792 1.15a.536.536 0 00-.242.505l.643 6.492c-2.81 1.644-6.205 3.632-9.71 5.688l-12.227-11.004a.518.518 0 00-.543-.096c-1.588.646-2.368 2.429-1.774 4.06l2.275 6.255-3.678 2.485c-.463.287-.743.832-.768 1.505-.023.605.156 1.275.503 1.887.347.611.83 1.104 1.357 1.387.319.171.644.257.951.257.268 0 .52-.065.744-.196l2.828-1.998.46 1.262a1386.748 1386.748 0 00-9.327 5.533c-2.375 1.429-4.254 3.468-5.433 5.896a14.405 14.405 0 00-.965 2.605 3.118 3.118 0 00.819 3.039 3.003 3.003 0 003.005.761 50.742 50.742 0 0011.176-4.864l9.583-5.624 8.475 1.633-1.647 1.086c-.466.286-.749.833-.774 1.508-.022.606.156 1.276.504 1.887.585 1.031 1.495 1.646 2.31 1.646.261 0 .513-.064.742-.198.012-.007 6.352-4.486 6.352-4.486l16.571 3.194a3.474 3.474 0 003.71-1.777.539.539 0 00.038-.429zm-4.5-18.943l-.859.556-12.98-.347c.892-.699 2.422-1.631 3.863-2.388l9.977 2.179zm-10.45-13.834l4.575-2.583-3.273 8.6-9.38 5.038 8.078-11.055zm-9.089 2.908l2.676 4.08-.554.757-2.642 1.546-.564-5.687 1.084-.696zm-24.847 18.221l-.078.055c-.161.086-.403.056-.668-.086-.35-.188-.691-.544-.937-.977-.246-.433-.379-.912-.364-1.313.012-.312.11-.545.271-.639a.428.428 0 01.222-.055c.134 0 .292.046.46.135.349.188.69.544.936.977.458.806.455 1.627.158 1.903zm1.247-.881a3.767 3.767 0 00-.495-1.556c-.335-.588-.794-1.065-1.299-1.352l2.27-1.534 1.189 3.266-1.665 1.176zm-1.188-12.095a2.12 2.12 0 01.899-2.56l11.703 10.533c-2.697 1.582-5.432 3.19-7.993 4.698l-4.609-12.671zm-10.27 29.709a2.051 2.051 0 01-.753-2.18c.173-.12.375-.186.583-.186.602 0 1.092.534 1.092 1.191 0 .589-.403 1.085-.923 1.175zm12.708-4.449a49.777 49.777 0 01-10.947 4.764 2.052 2.052 0 01-.396.077c.375-.408.606-.962.606-1.568 0-1.244-.96-2.257-2.141-2.257-.064 0-.127.003-.19.009.149-.398.316-.789.5-1.17.03-.062.063-.123.094-.185.57.692 1.68 1.04 3.308 1.04.416 0 .865-.022 1.348-.068a.53.53 0 00.474-.58.53.53 0 00-.57-.483c-2.61.247-3.465-.258-3.743-.579a.657.657 0 01-.17-.46 13.105 13.105 0 014.285-4.135c6.078-3.656 21.955-12.958 30.443-17.923l-1.763 2.413a.541.541 0 00.023.666.523.523 0 00.644.124l11.6-6.23a.534.534 0 00.245-.28l.293-.77c.11.139.197.299.25.475.11.363.063.748-.131 1.082l-1.888 3.245-.224-.049a.516.516 0 00-.35.047c-.765.397-4.617 2.443-5.229 3.687a.54.54 0 00.02.513.523.523 0 00.436.259l2.221.06a21.425 21.425 0 01-5.216 4.291l-3.033 1.78-.35-.155a.513.513 0 00-.367-.02c-.337.107-8.28 2.672-11.914 6.463a.54.54 0 00-.125.533.53.53 0 00.403.364l.082.015-8.528 5.005zm19.257 1.891l-.073.051c-.364.2-1.123-.207-1.609-1.061-.246-.433-.378-.912-.363-1.313.011-.312.11-.546.271-.64a.434.434 0 01.223-.055c.398 0 .991.402 1.395 1.112.459.808.455 1.632.156 1.906zm1.25-.883a3.76 3.76 0 00-.497-1.556c-.343-.605-.798-1.065-1.28-1.344l1.356-.885 4.539.874-4.119 2.911zm22.33-.487l-33.176-6.394c3.385-2.931 9.42-5.048 10.55-5.428l24.88 11.063a2.408 2.408 0 01-2.254.759z" fill="#1C79CE"/></g><path d="M61 11.58a.524.524 0 00-.257-.453L49.858 4.74a.507.507 0 00-.514 0L8.27 28.808a.525.525 0 00-.258.453v3.435l-6.547 3.792a.522.522 0 00-.252.37L.025 44.126a.53.53 0 00-.025.158v6.136c0 .187.098.36.257.452l10.884 6.387a.508.508 0 00.515 0l4.768-2.753c.088.665.391 1.214.906 1.516.267.156.56.23.868.23.976 0 2.077-.752 2.79-2.007.426-.75.645-1.569.618-2.307a2.971 2.971 0 00-.05-.436l8.742-5.13c.102.627.403 1.141.896 1.43.266.157.56.231.868.231.976 0 2.077-.752 2.79-2.008a4.774 4.774 0 00.568-1.587c.15.248.349.455.599.602.266.156.56.23.868.23.976 0 2.077-.752 2.79-2.008.426-.749.645-1.568.618-2.306a2.992 2.992 0 00-.048-.42l.563-.33a.525.525 0 00.257-.453v-3.421l3.172-1.859 2.965 1.73a.508.508 0 00.516-.002l.984-.587c.105.644.413 1.143.893 1.425.263.155.557.232.868.232.361 0 .746-.105 1.133-.313.643-.345 1.231-.947 1.657-1.697a4.776 4.776 0 00.57-1.581c.153.248.35.452.597.596.263.155.557.232.868.232.361 0 .746-.105 1.133-.313.643-.344 1.231-.947 1.657-1.697.534-.94.718-1.929.572-2.728l.56-.329a.525.525 0 00.258-.453v-3.44l1.272-.745A.525.525 0 0061 24.35V11.58zM49.6 5.796l9.856 5.784-40.045 23.464-9.855-5.783L49.601 5.796zM9.042 30.166l9.855 5.783v2.535L9.041 32.7v-2.534zm-.518 3.438l9.852 5.782-5.77 3.34-9.852-5.78 5.77-3.342zM8.155 54.3l-4.397-2.58v-1.954l4.397 2.58V54.3zm.771-2.709l-5.425-3.183a.507.507 0 00-.514 0 .524.524 0 00-.257.453v.022l-1.701-1.04V45.19l9.855 5.784v2.761l-1.7-1.04v-.65a.524.524 0 00-.258-.454zm2.915-6.726L1.9 39.032l.205-1.26 9.934 5.83-.198 1.263zm-.174 1.105l-.612 3.897-9.97-5.85.635-3.884 9.947 5.837zm1.405-2.31l1.39-.806v5.42l-2.33 1.367.94-5.982zM1.03 49.062l1.7 1.04v1.014l-1.7-.998v-1.056zm8.154 5.84v-.987l1.701 1.04v.946l-1.7-.998zm7.832-2.989a4.86 4.86 0 00-.525 1.352l-4.577 2.642v-4.931l3.321-1.95a.524.524 0 00.258-.452v-6.317l3.404-1.971v9.822a3.512 3.512 0 00-.224.108c-.643.345-1.231.948-1.657 1.697zm3.082 1.809c-.682 1.2-1.735 1.699-2.253 1.395-.518-.305-.62-1.48.062-2.681.325-.573.78-1.045 1.246-1.295.23-.123.666-.3 1.007-.1.342.2.41.673.419.936.02.537-.155 1.172-.48 1.745zm.576-3.586a1.679 1.679 0 00-.748-.227v-1.19l5.467-3.203v2.527l-4.257 2.498c-.13-.162-.282-.3-.462-.405zm13.288-4.634c-.682 1.2-1.735 1.699-2.253 1.395-.518-.304-.62-1.48.062-2.68.325-.573.779-1.045 1.246-1.296.154-.083.402-.19.652-.19a.69.69 0 01.355.09c.34.201.408.673.418.937.02.536-.155 1.172-.48 1.744zm4.825-2.763c-.682 1.201-1.735 1.699-2.253 1.395-.518-.304-.62-1.48.062-2.68.325-.573.78-1.045 1.246-1.296.154-.083.402-.19.652-.19a.69.69 0 01.355.09c.341.201.409.673.418.937.02.536-.154 1.172-.48 1.744zm1.252-3.288l-.204.12a1.695 1.695 0 00-.472-.418c-.57-.335-1.28-.306-2.001.08-.643.346-1.231.948-1.657 1.697a4.853 4.853 0 00-.53 1.374l-.128.075a1.704 1.704 0 00-.509-.463c-.57-.335-1.281-.306-2.001.08-.643.345-1.232.948-1.657 1.697a4.827 4.827 0 00-.546 1.45l-3.913 2.297v-2.527l13.618-7.979v2.517zm5.23-5.581l1.677-.983v1.967l-1.677-.984zm7.096.869c-.325.572-.78 1.044-1.246 1.295-.23.123-.666.3-1.007.1-.341-.201-.409-.673-.419-.937-.02-.536.155-1.172.48-1.744.683-1.201 1.735-1.699 2.254-1.395.518.304.62 1.48-.062 2.68zm4.825-2.763c-.325.572-.78 1.044-1.246 1.295-.23.123-.665.3-1.007.1-.341-.201-.409-.673-.419-.937-.02-.536.155-1.172.48-1.744.683-1.2 1.735-1.7 2.254-1.395.518.304.62 1.48-.062 2.68zm1.252-3.29l-.205.121a1.686 1.686 0 00-.47-.417c-1.115-.654-2.722.127-3.66 1.777a4.9 4.9 0 00-.528 1.373l-.129.076a1.696 1.696 0 00-.509-.463c-1.114-.654-2.72.127-3.658 1.777-.267.47-.452.967-.547 1.454l-.761.453v-2.552l10.468-6.134v2.536zM19.925 47.514V35.95l40.046-23.464V24.05L19.925 47.513z" fill="#1C79CE"/><g clip-path="url(#clip1)"><path d="M142.829 22.872c-.283-2.092-1.403-3.894-3.133-5.039l.194-.077a.531.531 0 00.328-.457.538.538 0 00-.256-.502l-8.893-5.307V5.792c0-1.228-1.496-2.153-3.478-2.153-1.983 0-3.478.925-3.478 2.153V7.34l-3.568-2.129a.503.503 0 00-.445-.035l-13.606 5.45a.53.53 0 00-.328.456c-.016.205.084.4.256.503l4.725 2.82v7.173L86.501 36.28c-2.205 1.315-3.509 3.665-3.495 6.287-.014.608.001 2.838.001 2.922 0 2.612 1.306 4.95 3.494 6.257.24.143 4.174 2.798 4.174 2.798a21.366 21.366 0 0012.166 3.818 21.3 21.3 0 0010.931-3.028l20.356-12.144c4.144-2.472 7.007-6.681 7.854-11.548 0 0 .419-2.084.462-2.201.356-.973.579-3.096.554-4.704-.008-.564-.149-1.722-.169-1.865zm-16.99.299a.501.501 0 00.444.035l.008-.003v5.89l-6.448-3.847v-5.653l5.996 3.578zm11.35-4.334v9.192l-2.386 1.424v-9.66l2.386-.956zm-3.418 11.231l-3.224 1.923V21.498l3.224-1.291v9.861zm-4.255 2.539l-2.193 1.308V22.789l2.193-.878v10.696zm-3.225-2.282v3.59l-14.112-8.42v-3.59l14.112 8.42zm-14.886-4.061L126.55 35.3a.498.498 0 00.515 0l10.898-6.502a.536.536 0 00.258-.461v-7.523c.215.117.427.238.634.362 1.517.905 2.529 2.365 2.863 4.118a6.094 6.094 0 01-2.829 3.943l-31.234 18.634a20.115 20.115 0 01-20.659-.013 6.046 6.046 0 01-2.292-2.473 3.507 3.507 0 01.028-3.211 6.007 6.007 0 012.252-2.365l24.164-14.415v.408a.535.535 0 00.257.462zm27.484-7.693a6.04 6.04 0 012.829 3.948 7.067 7.067 0 00-2.347-2.266 21.384 21.384 0 00-1.15-.639v-1.19l.246-.098c.148.083.287.164.422.245zm-13.745-8.443c.619.372 1.474.595 2.447.595.972 0 1.827-.223 2.446-.595v6.313c0 .444-.953 1.088-2.446 1.088-1.494 0-2.447-.644-2.447-1.088v-6.313zm2.447-.471c-1.494 0-2.447-.644-2.447-1.088V7.351c.619.372 1.474.595 2.447.595.972 0 1.827-.223 2.446-.595v1.218c0 .444-.953 1.088-2.446 1.088zm0-4.952c1.493 0 2.446.644 2.446 1.087 0 .443-.953 1.087-2.446 1.087-1.494 0-2.447-.644-2.447-1.087 0-.443.953-1.087 2.447-1.087zm-7.348 1.557l3.87 2.309v7.87c0 1.228 1.495 2.154 3.478 2.154 1.982 0 3.478-.926 3.478-2.154v-3.72l7.444 4.443-12.372 4.956-18.271-10.902 12.373-4.956zm-1.431 12.715v5.654l-6.633-3.958V15.02l6.633 3.957zM87.017 37.203l24.13-14.394v1.354l-24.68 14.722a7.072 7.072 0 00-2.248 2.12 6.059 6.059 0 012.798-3.802zm-2.903 9.254a7.093 7.093 0 002.408 2.348 21.125 21.125 0 0021.649-.01l31.233-18.635a7.102 7.102 0 002.346-2.271c-.075.477-.167.89-.271 1.174a6.01 6.01 0 01-2.591 3.127l-31.232 18.633a20.117 20.117 0 01-20.639 0c-1.589-.949-2.63-2.538-2.903-4.366zm23.335 5.724c0 1.197-.468 1.991-.777 1.991-.231 0-.579-.477-.717-1.277a21.09 21.09 0 001.493-.738l.001.024zm26.163-9.914L113.256 54.41a20.294 20.294 0 01-11.108 2.873 20.34 20.34 0 01-10.415-3.304 21.108 21.108 0 0013.25-.677c.257 1.167.902 1.936 1.689 1.936 1.031 0 1.808-1.315 1.808-3.057a5.34 5.34 0 00-.034-.6l30.958-18.469a7.146 7.146 0 001.466-1.157c-.898 4.343-3.521 8.081-7.258 10.31z" fill="#1C79CE"/></g><g clip-path="url(#clip2)"><path d="M143 95.86a.556.556 0 00-.267-.479l-14.838-8.852a.519.519 0 00-.534 0l-44.094 26.274c-.165.098-.267.478-.267.478v18.862c0 .197.102.379.267.478l4.471 2.667-.83.49c-.804-1.051-1.947-1.486-2.78-.99-.957.571-1.088 2.127-.297 3.542.355.636.847 1.147 1.386 1.441.326.178.659.268.972.268.273 0 .532-.068.76-.204.49-.293.786-.869.812-1.582a3.648 3.648 0 00-.305-1.528l1.353-.799 9.295 5.545a.514.514 0 00.533.001l4.756-2.834c.016 1.067.422 1.928 1.153 2.364.327.195.69.288 1.068.288 1.225 0 2.617-.974 3.524-2.596a6.309 6.309 0 00.722-2.029c.186.304.429.553.727.731a2.05 2.05 0 001.065.289c.45 0 .931-.134 1.417-.399.818-.446 1.567-1.227 2.109-2.2.251-.447.441-.911.574-1.372l12.763-7.614c.123.126.259.237.411.328a2.06 2.06 0 001.066.288c.45 0 .93-.133 1.415-.397.818-.446 1.567-1.227 2.111-2.2.369-.66.611-1.359.721-2.031.186.306.43.556.728.733a2.05 2.05 0 001.065.289c.451 0 .932-.133 1.417-.398.818-.446 1.567-1.228 2.111-2.201.72-1.289.959-2.725.664-3.817l2.509-1.495a.556.556 0 00.267-.478V95.859zm-56.585 43.019c-.166.099-.42.068-.7-.084-.357-.195-.707-.566-.96-1.017-.5-.897-.462-1.814-.092-2.034a.437.437 0 01.229-.058c.407 0 1.016.418 1.43 1.159.251.451.387.949.372 1.367-.012.325-.114.569-.28.667zm55.517-28.329l-5.466 3.256v-10.782l5.466-3.257v10.783zm-13.151 11.688v-2.579l6.617-3.943v2.579l-6.617 3.943zm-15.372 9.159v-2.579l6.618-3.943v2.579l-6.618 3.943zm-7.687 4.58v-2.579l6.619-3.944v2.579l-6.619 3.944zm-6.817 4.062v-2.579l5.749-3.426v2.579l-5.75 3.426zm31.567-47.277l8.056 4.807-40.157 23.926-11.221-6.694 36.941-22.039a6.22 6.22 0 016.381 0zm-10.445 17.104v1.679l-6.618 3.943v-1.679l6.618-3.943zm-7.686 6.258l-6.619 3.944v-1.679l6.619-3.944v1.679zm-7.687 4.58l-5.75 3.426v-1.679l5.75-3.426v1.679zm-5.75 4.699l5.75-3.425v10.782l-5.75 3.426v-10.783zm6.818-4.062l6.619-3.943v10.782l-6.619 3.944v-10.783zm7.687-4.579l6.618-3.943v10.782l-6.618 3.943v-10.782zm7.686-4.58l6.618-3.943v10.783l-6.618 3.943v-10.783zm0-1.274v-1.679l6.618-3.943v1.679l-6.618 3.943zm7.686-6.258l6.617-3.943v1.679l-6.617 3.943v-1.679zm-30.944 17.8v1.679l-13.769-8.214v-1.679l13.769 8.214zm-13.769-5.261l13.769 8.214v10.782l-13.769-8.214v-10.782zm37.027 7.049l6.618-3.942v2.579l-6.618 3.942v-2.579zm7.686-5.853v-10.782l6.617-3.943v10.783l-6.617 3.942zm13.151-19.892l-5.466 3.257v-1.679l5.466-3.257v1.68zm-2.335-1.561l-8.591-5.126a7.268 7.268 0 00-2.844-.973v-2.87l13.235 7.896-1.8 1.073zm-12.503-8.97v2.82a7.262 7.262 0 00-3.537 1.024l-37.475 22.358-1.48-.883 42.492-25.319zm-36.37 46.198a.525.525 0 00-.73-.205l-1.183.699-4.743-2.83v-2.578l13.769 8.214v2.578l-7.955-4.745.642-.38a.562.562 0 00.2-.753zm17.489 3.982c-.858 1.534-2.293 2.405-3.133 1.904-.51-.304-.724-1.104-.569-2.074l4.314-2.57c.13.778-.088 1.803-.612 2.74zm6.04-3.607c-.443.795-1.041 1.425-1.683 1.775-.325.178-.946.43-1.449.13-.508-.303-.723-1.1-.57-2.066l4.317-2.573c.127.777-.092 1.799-.615 2.734zm1.58-3.309l11.942-7.115c.01.38.072.733.179 1.049l-11.987 7.151a3.794 3.794 0 00-.134-1.085zm16.76-7.659c-.444.795-1.042 1.426-1.684 1.776-.325.177-.945.429-1.449.129-.498-.297-.715-1.077-.577-2.021l4.329-2.579c.113.774-.107 1.78-.619 2.695zm6.042-3.607c-.444.795-1.042 1.426-1.684 1.776-.326.177-.946.43-1.45.129-.497-.295-.714-1.072-.578-2.013l4.331-2.58c.111.772-.11 1.775-.619 2.688zm-2.169-2.301v-2.579l5.466-3.256v2.579l-5.466 3.256z" fill="#1C79CE"/></g><defs><clipPath id="clip0"><path fill="#fff" transform="translate(0 83)" d="M0 0h61v62H0z"/></clipPath><clipPath id="clip1"><path fill="#fff" transform="translate(83)" d="M0 0h60v62H0z"/></clipPath><clipPath id="clip2"><path fill="#fff" transform="translate(83 83)" d="M0 0h60v62H0z"/></clipPath></defs></svg>