<svg width="165" height="141" fill="none" xmlns="http://www.w3.org/2000/svg"><path d="M165 18.819c0-.497-.265-.956-.696-1.205L134.862.615a1.392 1.392 0 00-1.391 0L22.369 64.665c-.43.25-.696.708-.696 1.206v9.142L3.962 85.107a1.39 1.39 0 00-.682.982L.068 105.435a1.391 1.391 0 00-.068.421v16.329c0 .497.265.956.696 1.205l29.44 16.995a1.384 1.384 0 001.392 0l12.896-7.326c.239 1.769 1.06 3.231 2.452 4.035a4.646 4.646 0 002.348.614c2.64 0 5.619-2.002 7.548-5.343 1.152-1.995 1.745-4.175 1.67-6.14a7.789 7.789 0 00-.137-1.16l23.648-13.652c.277 1.667 1.09 3.037 2.423 3.806a4.644 4.644 0 002.348.614c2.64 0 5.619-2.002 7.548-5.343.788-1.364 1.307-2.815 1.537-4.224.407.659.943 1.21 1.619 1.601.72.416 1.517.613 2.347.613 2.641 0 5.619-2.002 7.549-5.343 1.151-1.994 1.744-4.175 1.67-6.14a7.89 7.89 0 00-.129-1.117l1.523-.878c.43-.25.695-.708.695-1.206v-9.104l8.58-4.946 8.02 4.605a1.389 1.389 0 001.395-.007l2.663-1.561c.283 1.713 1.116 3.042 2.414 3.791a4.637 4.637 0 002.348.617c.978 0 2.018-.277 3.065-.83 1.739-.919 3.331-2.523 4.482-4.517.808-1.399 1.318-2.839 1.544-4.21.411.66.947 1.204 1.612 1.587a4.637 4.637 0 002.348.617c.978 0 2.018-.277 3.066-.83 1.738-.919 3.33-2.522 4.482-4.517 1.444-2.501 1.94-5.134 1.547-7.26l1.516-.876a1.39 1.39 0 00.696-1.205v-9.155l3.442-1.984c.431-.249.696-.708.696-1.205L165 18.819zM134.166 3.426l26.659 15.392-108.32 62.444-26.657-15.39L134.166 3.427zM24.456 68.282l26.657 15.39v6.746L24.456 75.026v-6.744zm-1.402 9.148l26.648 15.387-15.606 8.891-26.65-15.384 15.608-8.894zm-.997 55.079l-11.891-6.865v-5.201l11.891 6.865v5.201zm2.087-7.209L9.47 116.829a1.389 1.389 0 00-2.087 1.205v.057l-4.6-2.766v-7.059l26.658 15.39v7.349l-4.601-2.767v-1.733c0-.497-.265-.956-.696-1.205zm7.885-17.9L5.14 91.875l.555-3.35 26.872 15.513-.537 3.362zm-.47 2.941l-1.656 10.369-26.966-15.568 1.715-10.335 26.907 15.534zm3.8-6.15l3.761-2.143v14.422l-6.303 3.64 2.542-15.919zM2.783 118.572l4.6 2.766v2.7l-4.6-2.656v-2.81zm22.057 15.544v-2.63l4.6 2.767v2.518l-4.6-2.655zm21.185-7.957a12.83 12.83 0 00-1.42 3.597l-12.381 7.033v-13.124l8.984-5.187a1.39 1.39 0 00.696-1.205v-16.81l9.21-5.247v26.14c-.203.086-.405.18-.607.287-1.74.918-3.331 2.522-4.482 4.516zm8.337 4.814c-1.845 3.195-4.693 4.521-6.094 3.712-1.402-.81-1.679-3.939.166-7.134.88-1.524 2.11-2.78 3.372-3.447.62-.328 1.8-.797 2.723-.265.924.534 1.106 1.79 1.133 2.491.053 1.427-.42 3.119-1.3 4.643zm1.558-9.543a4.592 4.592 0 00-2.025-.604v-3.166l14.787-8.525v6.726l-11.514 6.647a4.53 4.53 0 00-1.248-1.078zm35.942-12.332c-1.845 3.195-4.693 4.52-6.095 3.712-1.401-.81-1.678-3.939.167-7.134.88-1.524 2.108-2.781 3.371-3.447.418-.221 1.09-.506 1.765-.506.328 0 .657.067.958.241.924.534 1.106 1.79 1.133 2.491.054 1.427-.42 3.12-1.3 4.643zm13.051-7.352c-1.845 3.195-4.693 4.52-6.094 3.711-1.402-.81-1.678-3.939.166-7.134.88-1.524 2.109-2.78 3.371-3.447.419-.22 1.089-.505 1.765-.505.328 0 .657.067.959.24.923.534 1.106 1.79 1.132 2.491.055 1.428-.419 3.12-1.299 4.644zm3.387-8.753l-.553.32a4.575 4.575 0 00-1.275-1.111c-1.543-.891-3.466-.815-5.414.213-1.74.918-3.33 2.522-4.482 4.516a12.788 12.788 0 00-1.432 3.655l-.349.201a4.583 4.583 0 00-1.375-1.232c-1.543-.892-3.465-.816-5.414.213-1.739.918-3.33 2.522-4.481 4.516a12.716 12.716 0 00-1.476 3.86l-10.584 6.11v-6.723L108.3 86.295v6.698zm14.147-14.852l4.535-2.615v5.234l-4.535-2.62zm19.193 2.312c-.879 1.524-2.108 2.78-3.371 3.447-.621.327-1.799.797-2.723.264-.924-.533-1.106-1.79-1.133-2.49-.054-1.428.42-3.12 1.299-4.644 1.846-3.195 4.693-4.52 6.095-3.71 1.402.809 1.678 3.938-.167 7.133zm13.052-7.353c-.88 1.524-2.109 2.78-3.371 3.447-.621.327-1.8.797-2.724.264-.923-.533-1.105-1.79-1.132-2.49-.054-1.427.419-3.12 1.299-4.644 1.845-3.195 4.692-4.52 6.094-3.71 1.402.809 1.679 3.938-.166 7.133zm3.387-8.753l-.555.32a4.537 4.537 0 00-1.274-1.11c-3.013-1.74-7.36.338-9.896 4.73a12.84 12.84 0 00-1.429 3.653l-.35.202a4.552 4.552 0 00-1.376-1.233c-3.014-1.74-7.36.339-9.896 4.73a12.754 12.754 0 00-1.479 3.87l-2.058 1.206v-6.793L158.079 57.6v6.747zm-104.184 50.1V83.672l108.322-62.445v30.775L53.895 114.447z" fill="#1C79CE"/></svg>