<svg width="155" height="137" fill="none" xmlns="http://www.w3.org/2000/svg"><path d="M154.559 48.178c-.732-5.23-3.625-9.734-8.094-12.596l.501-.194a1.33 1.33 0 00.185-2.397l-22.974-13.267V5.48c0-3.069-3.863-5.383-8.985-5.383s-8.984 2.314-8.984 5.383v3.87l-9.217-5.322a1.333 1.333 0 00-1.148-.088L60.692 17.564a1.332 1.332 0 00-.185 2.397l12.207 7.049v17.933L9.044 81.7C3.35 84.986-.02 90.862.017 97.417c-.037 1.518.002 7.094.002 7.304 0 6.53 3.375 12.377 9.028 15.644.618.357 10.782 6.993 10.782 6.993a56.443 56.443 0 0031.427 9.545 56.435 56.435 0 0028.238-7.568l52.587-30.36a41.83 41.83 0 0020.291-28.87s1.081-5.21 1.192-5.505c.92-2.432 1.496-7.738 1.432-11.757-.022-1.412-.386-4.306-.436-4.665zm-43.892.748a1.337 1.337 0 001.148.088l.021-.009v14.728l-16.657-9.619V39.981l15.488 8.945zm29.322-10.833v22.979l-6.165 3.558V40.483l6.165-2.39zm-8.83 28.076l-8.329 4.808V44.744l8.329-3.228v24.653zm-10.994 6.347l-5.663 3.27V47.971l5.663-2.195v26.739zm-8.329-5.705v8.974l-36.457-21.05v-8.976l36.457 21.052zM73.38 56.658l39.123 22.59a1.332 1.332 0 001.333 0l28.152-16.253c.412-.238.666-.678.666-1.154V43.033a52.38 52.38 0 011.639.906c3.917 2.261 6.533 5.911 7.396 10.294-.936 4.1-3.521 7.672-7.31 9.86l-80.686 46.584a53.282 53.282 0 01-26.655 7.119 53.3 53.3 0 01-26.66-7.122c-.018-.01-.036-.021-.055-.03a15.321 15.321 0 01-5.92-6.183 8.518 8.518 0 01.07-8.028c1.326-2.432 3.308-4.464 5.818-5.912l62.424-36.037v1.02c0 .476.253.916.665 1.154zm70.999-19.232c3.799 2.191 6.376 5.714 7.308 9.87-1.513-2.289-3.559-4.22-6.062-5.666a55.496 55.496 0 00-2.971-1.595V37.06l.635-.247c.382.208.742.41 1.09.613zm-35.506-21.107c1.599.93 3.807 1.487 6.319 1.487 2.513 0 4.721-.558 6.32-1.487v15.784c0 1.108-2.462 2.718-6.32 2.718-3.857 0-6.319-1.61-6.319-2.718V16.319zm6.319-1.178c-3.857 0-6.319-1.61-6.319-2.718V9.376c1.599.93 3.807 1.487 6.319 1.487 2.513 0 4.721-.557 6.32-1.487v3.047c0 1.108-2.462 2.718-6.32 2.718zm0-12.38c3.858 0 6.32 1.61 6.32 2.718 0 1.109-2.462 2.719-6.32 2.719-3.857 0-6.319-1.61-6.319-2.719 0-1.108 2.462-2.718 6.319-2.718zM96.211 6.654l9.997 5.772v19.676c0 3.07 3.863 5.384 8.984 5.384 5.123 0 8.985-2.315 8.985-5.384v-9.3l19.233 11.106-31.963 12.39-47.198-27.254L96.21 6.654zm-3.698 31.789v14.133L75.38 42.682V28.549l17.134 9.894zM10.377 84.007L72.714 48.02v3.385L8.958 88.212a18.036 18.036 0 00-5.808 5.301c.995-3.97 3.537-7.376 7.227-9.506zm-7.5 23.135a18.052 18.052 0 006.222 5.871 55.96 55.96 0 0027.938 7.447 55.971 55.971 0 0027.988-7.475L145.71 66.4a18.084 18.084 0 006.06-5.68c-.195 1.195-.432 2.227-.701 2.937-1.251 3.308-3.565 6.01-6.693 7.817l-80.683 46.583a53.283 53.283 0 01-26.658 7.12 53.312 53.312 0 01-26.658-7.12c-4.106-2.373-6.794-6.347-7.501-10.915zm60.282 14.31c0 2.992-1.207 4.978-2.006 4.978-.598 0-1.497-1.194-1.853-3.194a55.438 55.438 0 003.857-1.844l.002.06zm67.588-24.786l-52.586 30.361a53.784 53.784 0 01-28.695 7.181 53.767 53.767 0 01-26.907-8.26 56.244 56.244 0 0034.23-1.691c.663 2.917 2.33 4.838 4.364 4.838 2.663 0 4.671-3.285 4.671-7.642 0-.51-.032-1.009-.088-1.497l79.973-46.173a18.376 18.376 0 003.79-2.894 39.164 39.164 0 01-18.752 25.777z" fill="#1C79CE"/></svg>