<svg width="155" height="139" fill="none" xmlns="http://www.w3.org/2000/svg"><path d="M155 24.147a1.38 1.38 0 00-.69-1.194L115.979.822a1.379 1.379 0 00-1.379 0L.69 66.505C.263 66.752 0 67.7 0 67.7v47.155c0 .493.263.949.69 1.195l11.55 6.668-2.144 1.225c-2.077-2.629-5.03-3.716-7.18-2.475-2.474 1.428-2.812 5.318-.77 8.856.918 1.588 2.19 2.867 3.581 3.602.843.445 1.702.669 2.512.669a3.89 3.89 0 001.961-.51c1.267-.731 2.032-2.172 2.1-3.953.046-1.223-.233-2.546-.788-3.821l3.494-1.997 24.012 13.863a1.38 1.38 0 001.379 0l12.285-7.084c.041 2.667 1.09 4.82 2.978 5.91a5.449 5.449 0 002.76.72c3.164 0 6.76-2.436 9.102-6.491.956-1.654 1.583-3.398 1.866-5.072a5.408 5.408 0 001.878 1.828 5.433 5.433 0 002.752.721c1.163 0 2.406-.332 3.66-.995 2.112-1.115 4.048-3.069 5.45-5.5a15.97 15.97 0 001.48-3.431l32.971-19.035c.319.314.671.592 1.063.819a5.447 5.447 0 002.753.721c1.163 0 2.404-.332 3.657-.993 2.112-1.114 4.048-3.068 5.452-5.5.953-1.65 1.58-3.397 1.864-5.076a5.387 5.387 0 001.88 1.832 5.439 5.439 0 002.752.721c1.164 0 2.406-.332 3.66-.994 2.113-1.115 4.049-3.069 5.454-5.501 1.859-3.223 2.476-6.814 1.716-9.545l6.48-3.736a1.38 1.38 0 00.69-1.195V24.147zM8.821 131.697c-.427.247-1.086.17-1.805-.21-.925-.488-1.829-1.415-2.48-2.542-1.295-2.243-1.195-4.535-.24-5.087.167-.096.367-.143.59-.143 1.054 0 2.627 1.045 3.695 2.895.65 1.128 1.001 2.373.961 3.418-.03.814-.293 1.422-.72 1.669zm143.42-70.823l-14.12 8.14V42.06l14.12-8.142v26.956zm-33.974 29.22v-6.447l17.095-9.857v6.447l-17.095 9.858zm-39.71 22.897v-6.447l17.096-9.858v6.447l-17.096 9.858zM58.7 124.44v-6.447l17.099-9.859v6.447l-17.1 9.859zm-17.612 10.155v-6.447l14.853-8.564v6.447l-14.853 8.564zm81.548-118.19l20.812 12.016-103.74 59.815L10.721 71.5l95.43-55.097a16.53 16.53 0 0116.484 0zM95.653 59.162v4.198l-17.096 9.857V69.02l17.096-9.857zM75.798 74.809l-17.1 9.859V80.47l17.1-9.859v4.198zM55.94 86.259l-14.853 8.564v-4.198l14.853-8.564v4.198zM41.087 98.007l14.853-8.564V116.4l-14.853 8.564V98.007zm17.612-10.155l17.099-9.859v26.957l-17.1 9.859V87.852zm19.858-11.45l17.096-9.857v26.957l-17.096 9.857V76.403zm19.855-11.448l17.095-9.856v26.956L98.412 91.91V64.954zm0-3.184v-4.198l17.095-9.857v4.197L98.412 61.77zm19.855-15.646l17.095-9.857v4.198l-17.095 9.857v-4.198zm-79.94 44.5v4.197L2.76 74.287V70.09l35.569 20.535zM2.76 77.474l35.569 20.534v26.955l-35.57-20.536V77.473zm95.653 17.622l17.095-9.857v6.447l-17.095 9.857v-6.447zm19.855-14.632V53.507l17.095-9.858v26.956l-17.095 9.858zm33.974-49.73l-14.12 8.141v-4.198l14.12-8.141v4.198zm-6.033-3.904l-22.193-12.814a19.188 19.188 0 00-7.347-2.434V4.406l34.192 19.74-4.652 2.683zm-32.3-22.426v7.049a19.223 19.223 0 00-9.137 2.562L7.962 69.908 4.14 67.701 113.909 4.404zM19.951 119.9a1.379 1.379 0 00-1.882-.512l-3.056 1.747-12.254-7.074v-6.447l35.569 20.535v6.446l-20.55-11.864 1.66-.948a1.38 1.38 0 00.513-1.883zm45.182 9.954c-2.215 3.835-5.922 6.015-8.093 4.762-1.318-.76-1.87-2.761-1.469-5.186l11.144-6.426c.334 1.946-.229 4.508-1.582 6.85zm15.605-9.018c-1.146 1.988-2.69 3.564-4.348 4.44-.84.444-2.444 1.075-3.744.325-1.312-.758-1.867-2.751-1.474-5.167l11.155-6.432c.327 1.943-.238 4.497-1.589 6.834zm4.08-8.27l30.851-17.788c.026.95.185 1.83.462 2.622l-30.966 17.879c.012-.964-.1-1.879-.347-2.713zm43.297-19.148c-1.148 1.987-2.693 3.564-4.35 4.438-.839.444-2.443 1.074-3.743.323-1.287-.743-1.847-2.69-1.49-5.052l11.181-6.447c.293 1.935-.276 4.45-1.598 6.738zm15.609-9.019c-1.148 1.988-2.693 3.565-4.352 4.44-.84.444-2.443 1.075-3.745.325-1.283-.74-1.843-2.68-1.492-5.034l11.189-6.451c.285 1.93-.284 4.44-1.6 6.72zm-5.603-5.751V72.2l14.12-8.14v6.446l-14.12 8.142z" fill="#1C79CE"/></svg>