<svg width="155" height="155" viewBox="0 0 155 155" fill="none" xmlns="http://www.w3.org/2000/svg">
<g clip-path="url(#clip0)">
<path d="M154.93 115.689C154.809 115.334 154.545 115.047 154.201 114.896L92.94 88.0943L98.946 84.6279C104.816 81.2419 109.981 76.8857 114.314 71.6788L141.649 72.3982C141.661 72.3985 141.673 72.3985 141.684 72.3985C141.938 72.3985 142.186 72.3262 142.4 72.1901L147.673 68.8351C148.129 68.5446 148.365 68.007 148.27 67.4741C148.174 66.9412 147.766 66.5193 147.237 66.4052L121.558 60.8875L125.903 53.5425C126.784 52.0528 126.993 50.3319 126.492 48.6968C126.111 47.4552 125.351 46.3763 124.342 45.6073L132.384 24.815C132.587 24.2911 132.44 23.6964 132.016 23.3276C131.592 22.9591 130.983 22.8954 130.492 23.1675L115.394 31.555C115.228 31.647 115.084 31.7734 114.971 31.9258L102.336 48.9399L95.3455 38.4531C94.944 37.8504 94.1356 37.678 93.5233 38.0652L88.9687 40.941C88.5412 41.2111 88.303 41.6993 88.3537 42.2026L89.9889 58.433C82.849 62.5437 74.2224 67.5141 65.3173 72.6543L34.2483 45.1431C33.8704 44.8089 33.3362 44.7162 32.8686 44.9033C28.8326 46.5177 26.8516 50.9759 28.359 55.0533L34.1402 70.6907L24.7953 76.9044C23.6187 77.6211 22.9064 78.9835 22.8427 80.665C22.7853 82.179 23.2395 83.8545 24.122 85.3829C25.0044 86.9114 26.2283 88.1426 27.5683 88.85C28.3801 89.2785 29.2068 89.494 29.9869 89.494C30.6659 89.494 31.3095 89.3306 31.8771 89.0027C31.9095 88.9841 39.0633 84.0096 39.0633 84.0096L40.2293 87.1638C30.5134 92.7983 21.9766 97.7738 16.5319 100.996C10.4955 104.568 5.72219 109.666 2.7277 115.736C1.7012 117.817 0.875788 120.008 0.274157 122.248C-0.465542 125.009 0.312509 127.85 2.35519 129.846C3.84392 131.3 5.76487 132.073 7.75953 132.073C8.49923 132.073 9.24926 131.966 9.99063 131.749C14.9377 130.296 19.8368 128.535 24.5508 126.516C29.2695 124.496 33.9251 122.166 38.3887 119.59L62.7394 105.528L84.275 109.611L80.0886 112.326C78.9041 113.041 78.187 114.408 78.123 116.096C78.0656 117.61 78.5199 119.285 79.4023 120.814C80.89 123.391 83.2022 124.928 85.2715 124.928C85.9372 124.928 86.5775 124.769 87.1575 124.434C87.1902 124.415 103.297 113.218 103.297 113.218L145.406 121.203C145.964 121.308 146.521 121.36 147.072 121.36C150.263 121.36 153.252 119.638 154.834 116.761C155.016 116.433 155.05 116.044 154.93 115.689ZM143.496 68.3305L141.312 69.7202L108.329 68.8524C110.596 67.1059 114.485 64.7768 118.145 62.8832L143.496 68.3305ZM116.941 33.7474L128.566 27.2896L120.25 48.7899L96.4167 61.3847L116.941 33.7474ZM93.8471 41.0157L100.646 51.2154L99.2391 53.1097C97.2595 54.2486 95.0017 55.5475 92.5235 56.9742L91.0911 42.7565L93.8471 41.0157ZM30.7102 86.5692L30.5121 86.7069C30.1029 86.9224 29.4879 86.8463 28.8143 86.4908C27.9262 86.0223 27.0581 85.1322 26.4331 84.0493C25.8078 82.9664 25.471 81.7698 25.509 80.766C25.5383 79.9863 25.7898 79.4037 26.1986 79.1675C26.3564 79.0768 26.5468 79.0315 26.7616 79.0315C27.1028 79.0315 27.5043 79.1459 27.9282 79.3696C28.8163 79.8382 29.6844 80.7283 30.3093 81.8112C31.4723 83.8252 31.4646 85.8799 30.7102 86.5692ZM33.8798 84.3651C33.7827 83.1192 33.3689 81.7738 32.6202 80.4772C31.7704 79.0055 30.6028 77.8142 29.3212 77.0959L35.0907 73.2616L38.1085 81.425L33.8798 84.3651ZM30.861 54.1278C29.9525 51.6703 30.9497 49.005 33.1434 47.7287L62.8805 74.0607C56.0281 78.0173 49.0783 82.0353 42.5724 85.8062L30.861 54.1278ZM4.76238 128.4C4.57395 128.26 4.39286 128.106 4.22078 127.938C2.87978 126.628 2.36786 124.764 2.84943 122.951C3.28965 122.651 3.80424 122.486 4.3315 122.486C5.86125 122.486 7.1062 123.821 7.1062 125.462C7.10587 126.937 6.08436 128.176 4.76238 128.4ZM37.0557 117.279C32.6839 119.802 28.1236 122.085 23.5013 124.063C18.884 126.041 14.0857 127.766 9.24059 129.189C8.90576 129.287 8.56859 129.35 8.23276 129.381C9.18456 128.361 9.77386 126.977 9.77386 125.462C9.77386 122.35 7.33231 119.818 4.33116 119.818C4.17042 119.818 4.01067 119.826 3.85159 119.84C4.22778 118.845 4.65132 117.868 5.12122 116.916C5.19793 116.76 5.28063 116.608 5.35967 116.454C6.80739 118.184 9.62712 119.054 13.7652 119.054C14.8214 119.054 15.9633 118.998 17.1902 118.884C17.9239 118.816 18.4635 118.167 18.3955 117.432C18.3274 116.698 17.6761 116.167 16.9441 116.227C10.3128 116.843 8.14038 115.582 7.43537 114.778C7.03884 114.326 6.99181 113.875 7.00215 113.628C9.72483 109.463 13.433 105.93 17.8909 103.291C33.3345 94.1513 73.6785 70.8968 95.2468 58.4837L90.7663 64.517C90.3947 65.0172 90.4188 65.7082 90.8246 66.1811C91.0851 66.4846 91.4583 66.6467 91.8378 66.6467C92.0496 66.6467 92.263 66.5963 92.4604 66.4919L121.937 50.9149C122.222 50.7648 122.442 50.517 122.558 50.2169L123.303 48.2916C123.585 48.6381 123.806 49.039 123.94 49.4785C124.219 50.3873 124.1 51.3478 123.606 52.1839L118.808 60.2959L118.239 60.1738C117.939 60.1098 117.626 60.1508 117.352 60.2902C115.406 61.2837 105.62 66.3986 104.064 69.5091C103.86 69.9173 103.879 70.4012 104.114 70.7921C104.348 71.1833 104.767 71.4274 105.222 71.4394L110.866 71.5878C107.037 75.8422 102.59 79.445 97.612 82.3168L89.9038 86.766L89.0167 86.3778C88.7216 86.2487 88.3898 86.231 88.0823 86.3274C87.2275 86.5959 67.0455 93.0074 57.8103 102.486C57.4674 102.838 57.3457 103.35 57.4935 103.818C57.6412 104.287 58.0347 104.636 58.5173 104.728L58.7237 104.767L37.0557 117.279ZM85.9869 122.006L85.8018 122.134C84.8773 122.633 82.9477 121.617 81.7141 119.48C81.0888 118.398 80.7523 117.201 80.7903 116.198C80.8197 115.417 81.0715 114.835 81.48 114.599C81.6401 114.507 81.8315 114.461 82.0456 114.461C83.0558 114.461 84.5645 115.465 85.5904 117.242C86.7563 119.261 86.7463 121.321 85.9869 122.006ZM89.1611 119.799C89.0648 118.552 88.6506 117.206 87.9012 115.908C87.0287 114.397 85.8722 113.246 84.6476 112.55L88.0923 110.335L99.6266 112.522L89.1611 119.799ZM145.905 118.582L61.6025 102.597C70.2048 95.2692 85.538 89.9772 88.4128 89.0261L151.632 116.684C150.204 118.243 148.054 118.99 145.905 118.582Z" fill="white"/>
</g>
<defs>
<clipPath id="clip0">
<rect width="155" height="155" fill="white"/>
</clipPath>
</defs>
</svg>
