<svg width="155" height="155" viewBox="0 0 155 155" fill="none" xmlns="http://www.w3.org/2000/svg">
<path d="M155 28.9505C155 28.4839 154.751 28.0523 154.346 27.8186L126.688 11.85C126.284 11.6164 125.786 11.6167 125.382 11.8493L21.0136 72.0193C20.6091 72.2529 20.3598 72.6842 20.3594 73.1515V81.74L3.72162 91.2211C3.37658 91.4178 3.14491 91.7586 3.0812 92.1432L0.0637151 110.317C0.0235256 110.443 0 110.576 0 110.712V126.052C0 126.519 0.249306 126.95 0.653489 127.184L28.3098 143.149C28.512 143.266 28.7378 143.324 28.9633 143.324C29.1887 143.324 29.4145 143.266 29.6168 143.149C29.6194 143.148 41.7318 136.267 41.7318 136.267C41.9559 137.929 42.7274 139.302 44.0353 140.057C44.7123 140.448 45.4606 140.634 46.2405 140.634C48.7215 140.634 51.5191 138.753 53.3315 135.615C54.4131 133.741 54.9702 131.693 54.9002 129.847C54.8859 129.465 54.8368 129.105 54.7712 128.757L76.9859 115.933C77.2459 117.499 78.0109 118.786 79.2626 119.508C79.9396 119.899 80.6879 120.085 81.4678 120.085C83.9488 120.085 86.7464 118.204 88.5588 115.066C89.2989 113.784 89.7864 112.422 90.0024 111.097C90.385 111.717 90.8882 112.234 91.523 112.601C92.2001 112.992 92.9483 113.178 93.7282 113.178C96.2092 113.178 99.0068 111.297 100.819 108.159C101.901 106.285 102.458 104.237 102.388 102.391C102.374 102.024 102.328 101.678 102.267 101.342L103.698 100.516C104.102 100.282 104.351 99.8511 104.351 99.3838V90.8313L112.411 86.1853C112.411 86.1853 119.919 90.496 119.944 90.5104C120.146 90.6258 120.37 90.6833 120.594 90.6833C120.823 90.6833 121.051 90.6235 121.255 90.5039L123.757 89.0378C124.023 90.6467 124.805 91.8952 126.024 92.5993C126.694 92.9865 127.44 93.1789 128.23 93.1789C129.149 93.1789 130.126 92.9182 131.11 92.3987C132.743 91.5361 134.238 90.0295 135.32 88.1562C136.079 86.8417 136.558 85.489 136.77 84.2016C137.156 84.8218 137.66 85.3315 138.284 85.6919C138.955 86.0791 139.701 86.2716 140.49 86.2716C141.409 86.2716 142.386 86.0108 143.37 85.4913C145.003 84.6287 146.499 83.1221 147.58 81.2489C148.937 78.8989 149.404 76.4255 149.034 74.4281L150.458 73.606C150.863 73.3724 151.112 72.9411 151.112 72.4738V63.8739L154.345 62.0098C154.75 61.7762 154.999 61.3446 154.999 60.8773L155 28.9505ZM126.034 14.4907L151.078 28.9495L49.3227 87.6089L24.2817 73.1525L126.034 14.4907ZM22.9734 75.4155L48.0154 89.8726V96.2105L22.9734 81.7511V75.4155ZM21.6569 84.0095L46.6901 98.4637L32.0291 106.816L6.9956 92.3644L21.6569 84.0095ZM20.7205 135.75L9.54976 129.301V124.416L20.7205 130.865V135.75ZM22.681 128.978L8.89627 121.021C8.49176 120.787 7.99347 120.787 7.58929 121.021C7.18478 121.254 6.9358 121.685 6.9358 122.152V122.206L2.61395 119.607V112.976L27.6563 127.434L27.656 134.338L23.3344 131.738V130.11C23.3344 129.644 23.0851 129.212 22.681 128.978ZM30.0879 112.163L4.82699 97.5792L5.34913 94.4317L30.5921 109.005L30.0879 112.163ZM29.6465 114.926L28.0909 124.667L2.75903 110.042L4.36988 100.333L29.6465 114.926ZM33.2165 109.148L36.7496 107.136V120.683L30.828 124.102L33.2165 109.148ZM2.61395 122.658L6.9358 125.256V127.792L2.61395 125.297V122.658ZM23.3344 137.26V134.789L27.656 137.388V139.754L23.3344 137.26ZM43.2351 129.785C43.2348 129.785 43.2348 129.785 43.2351 129.785C42.5885 130.906 42.1503 132.052 41.9017 133.164L30.2706 139.771V127.442L38.7104 122.57C39.1149 122.336 39.3639 121.905 39.3639 121.438V105.646L48.0154 100.717V125.273C47.8259 125.354 47.6361 125.443 47.4456 125.543C45.8122 126.405 44.3167 127.912 43.2351 129.785ZM51.0675 134.308C49.3341 137.309 46.6588 138.554 45.3423 137.794C44.0255 137.034 43.7658 134.094 45.4988 131.092C46.3255 129.661 47.4799 128.481 48.666 127.855C49.2492 127.547 50.3569 127.106 51.2244 127.606C52.0919 128.107 52.2631 129.287 52.2882 129.946C52.3386 131.286 51.8939 132.876 51.0675 134.308ZM52.531 125.343C51.9478 125.006 51.306 124.819 50.629 124.775V121.801L64.5196 113.793V120.111L53.7037 126.355C53.3734 125.951 52.9862 125.605 52.531 125.343ZM86.2945 113.758C84.5611 116.76 81.886 118.004 80.5693 117.245C79.2525 116.484 78.9927 113.545 80.7258 110.543C81.5521 109.112 82.7065 107.931 83.8926 107.305C84.2853 107.098 84.9156 106.83 85.5505 106.83C85.8583 106.83 86.1674 106.893 86.4507 107.057C87.3182 107.558 87.4897 108.738 87.5145 109.397C87.5658 110.737 87.1211 112.327 86.2945 113.758ZM98.5549 106.851C96.8215 109.853 94.1465 111.097 92.8297 110.338C91.5126 109.577 91.2532 106.638 92.9862 103.636C93.8125 102.205 94.9669 101.024 96.153 100.398C96.5458 100.191 97.176 99.9233 97.8109 99.9233C98.1187 99.9233 98.4278 99.9863 98.7111 100.15C99.5786 100.651 99.7501 101.831 99.775 102.49C99.8263 103.83 99.3816 105.42 98.5549 106.851ZM101.737 98.6287L101.217 98.929C100.881 98.5114 100.485 98.1556 100.019 97.886C98.5693 97.0486 96.7634 97.1201 94.9329 98.0863C93.2995 98.9489 91.8044 100.456 90.7225 102.329C90.0651 103.467 89.6237 104.633 89.3773 105.762L89.0502 105.951C88.6977 105.481 88.268 105.087 87.7583 104.793C86.3089 103.956 84.5029 104.027 82.6725 104.993C81.0391 105.856 79.5439 107.363 78.4624 109.236C77.7678 110.439 77.3126 111.674 77.0764 112.862L67.1335 118.602V112.286L101.736 92.3376L101.737 98.6287ZM115.026 84.6771L119.287 82.2209V87.1371L115.026 84.6771ZM133.056 86.8493C132.23 88.2807 131.075 89.4609 129.889 90.087C129.306 90.3948 128.199 90.8359 127.331 90.3356C126.463 89.8347 126.292 88.6545 126.267 87.9958C126.216 86.6552 126.661 85.0656 127.487 83.6341C129.221 80.6326 131.896 79.3877 133.213 80.1477C134.53 80.9081 134.789 83.8475 133.056 86.8493ZM145.317 79.9419C144.49 81.3733 143.336 82.5536 142.15 83.1796C141.567 83.4871 140.459 83.9285 139.591 83.4282C138.724 82.9273 138.553 81.7471 138.528 81.0884C138.477 79.7478 138.922 78.1582 139.748 76.7267C141.481 73.7252 144.156 72.4797 145.473 73.2404C146.79 74.001 147.05 76.9404 145.317 79.9419ZM148.498 71.7194L147.977 72.02C147.645 71.605 147.25 71.2482 146.78 70.9767C143.949 69.3423 139.867 71.2946 137.485 75.4197C136.844 76.5287 136.393 77.6988 136.142 78.8519L135.813 79.0417C135.464 78.5748 135.034 78.1807 134.52 77.884C131.689 76.2497 127.606 78.202 125.224 82.3271C124.546 83.5011 124.075 84.7437 123.834 85.9625L121.901 87.0953V80.714L148.499 65.3808L148.498 71.7194ZM50.629 118.783V89.8729L152.386 31.2125V60.1222L50.629 118.783Z" fill="white"/>
</svg>
