<svg width="100" height="100" viewBox="0 0 100 100" fill="none" xmlns="http://www.w3.org/2000/svg">
<g clip-path="url(#clip0)">
<path d="M95.7488 2.50293H25.8983C23.5517 2.50566 21.65 4.40731 21.6473 6.75398V26.0204L18.4532 21.2292C16.9911 19.0238 14.0507 18.3621 11.7849 19.7289L5.21337 23.6798C3.06128 24.9426 1.48257 26.9904 0.808967 29.3929C-1.5883 38.1219 0.190457 53.1605 22.2643 75.2376C39.8184 92.7736 52.9066 97.4964 61.9271 97.4964C64.0155 97.506 66.0959 97.2346 68.1121 96.6896C70.5136 96.016 72.5614 94.4394 73.8268 92.2903L77.7726 85.7119C79.1339 83.4479 78.4728 80.5135 76.2723 79.0519L60.5368 68.5626C58.3782 67.1349 55.4849 67.6043 53.8884 69.6411L49.3072 75.5309C48.8284 76.1611 47.9598 76.3447 47.2667 75.9626L46.3948 75.4824C43.5257 73.9188 39.9549 71.9716 32.7432 64.7599C31.9629 63.9796 31.2561 63.2495 30.5927 62.5509H95.7488C98.0896 62.5527 99.9906 60.6606 99.9998 58.3198V6.75398C99.9971 4.40731 98.0954 2.50566 95.7488 2.50293ZM44.7995 78.4101L45.6464 78.8753C47.7752 80.0656 50.455 79.5133 51.9395 77.5783L56.5207 71.6885C57.0416 71.0251 57.984 70.8721 58.6879 71.3367L74.4234 81.826C75.1382 82.3025 75.3531 83.2562 74.9118 83.9931L70.9659 90.5715C70.1419 91.9845 68.8031 93.0238 67.23 93.4722C59.3498 95.6393 45.5581 93.8057 24.6262 72.8722C3.69425 51.9387 1.86743 38.1484 4.02949 30.2748C4.47745 28.702 5.51618 27.3633 6.92844 26.5389L13.5068 22.5913C14.2439 22.1509 15.1971 22.3656 15.674 23.0797L26.1681 38.8152C26.6335 39.5189 26.4805 40.4621 25.8163 40.9823L19.9248 45.5651C17.9902 47.0492 17.4377 49.7284 18.6278 51.8567L19.0945 52.7036C20.7615 55.761 22.8337 59.5652 30.3873 67.1171C37.9412 74.6691 41.7438 76.7429 44.7995 78.4101ZM96.6658 58.32C96.6603 58.8215 96.2502 59.2239 95.7489 59.2202H27.5853C25.4201 56.7442 23.553 54.0228 22.0222 51.1116L21.542 50.2364C21.1591 49.5448 21.3423 48.677 21.9722 48.1991L27.8637 43.6164C29.9013 42.0203 30.3707 39.1266 28.9423 36.9681L24.9813 31.0232V6.75398C24.9786 6.50997 25.0743 6.27515 25.2468 6.10264C25.4193 5.93014 25.6541 5.83441 25.8982 5.83715H95.7488C95.9928 5.83441 96.2276 5.93014 96.4001 6.10264C96.5726 6.27515 96.6683 6.50997 96.6656 6.75398V58.32H96.6658Z" fill="white"/>
<path d="M90.0075 10.2218L62.1455 31.352C61.3573 31.9248 60.2898 31.9248 59.5015 31.352L31.6499 10.2218C30.9162 9.66524 29.87 9.80902 29.3136 10.5428C28.757 11.2766 28.9008 12.3227 29.6346 12.8791L57.4897 34.0076C59.4714 35.4716 62.1762 35.4716 64.1579 34.0076L92.0214 12.8791C92.3741 12.6119 92.606 12.2153 92.6659 11.7769C92.7259 11.3385 92.6093 10.8943 92.3414 10.542C91.7851 9.80961 90.7407 9.66641 90.0075 10.2218Z" fill="white"/>
<path d="M46.5965 34.148L29.5191 52.4359C28.8912 53.1093 28.9281 54.1644 29.6015 54.7923C30.2749 55.4202 31.3301 55.3833 31.958 54.7099L49.0356 36.4138C49.5998 35.7331 49.5344 34.7303 48.8867 34.1284C48.2389 33.5265 47.234 33.5351 46.5965 34.148Z" fill="white"/>
<path d="M75.1602 34.1475C74.5323 33.4741 73.4774 33.437 72.8037 34.0651C72.1303 34.6929 72.0932 35.7479 72.7213 36.4215L89.7939 54.7094C90.4218 55.3828 91.4767 55.4199 92.1503 54.7918C92.8237 54.164 92.8609 53.109 92.2328 52.4354L75.1602 34.1475Z" fill="white"/>
</g>
<defs>
<clipPath id="clip0">
<rect width="100" height="100" fill="white"/>
</clipPath>
</defs>
</svg>
