<svg width="180" height="68" viewBox="0 0 180 68" fill="none" xmlns="http://www.w3.org/2000/svg">
<path d="M0 3.64117C0 1.63021 1.64467 0 3.67347 0H119.388C121.417 0 123.061 1.63021 123.061 3.64117V5.46175C123.061 7.47272 121.417 9.10292 119.388 9.10292H3.67347C1.64467 9.10292 0 7.47272 0 5.46175V3.64117Z" fill="white"/>
<path d="M56.9388 47.3352C56.9388 45.3242 58.5834 43.694 60.6122 43.694H176.327C178.355 43.694 180 45.1959 180 47.2069L180 49.1558C180 51.1667 178.355 52.797 176.327 52.797H60.6122C58.5834 52.797 56.9388 51.1667 56.9388 49.1558V47.3352Z" fill="white"/>
<path d="M14.6939 18.2058C14.6939 16.1949 16.3385 14.5647 18.3673 14.5647H104.694C106.723 14.5647 108.367 16.1949 108.367 18.2058V20.0264C108.367 22.0374 106.723 23.6676 104.694 23.6676H18.3673C16.3385 23.6676 14.6939 22.0374 14.6939 20.0264V18.2058Z" fill="white"/>
<path d="M128.571 9.10292C128.571 7.09196 130.216 5.46175 132.245 5.46175H148.776C150.804 5.46175 152.449 7.09196 152.449 9.10292V10.9235C152.449 12.9345 150.804 14.5647 148.776 14.5647H132.245C130.216 14.5647 128.571 12.9345 128.571 10.9235V9.10292Z" fill="white"/>
<path d="M147.896 7.43199C149.602 6.34386 151.875 6.83269 152.973 8.52383L164.539 26.603C165.246 28.0291 165.583 30.9619 163.877 32.05L162.332 33.0352C160.626 34.1233 158.353 33.6345 157.255 31.9433L145.25 13.4494C144.152 11.7583 144.645 9.50524 146.351 8.41711L147.896 7.43199Z" fill="white"/>
<path d="M159.507 27.8832C160.54 26.1524 163.033 25.0786 164.539 26.603L177.968 34.4417C179.714 35.4655 180.273 37.7221 179.24 39.4529L178.305 41.0199C177.272 42.7508 175.019 43.3239 173.273 42.3002L158.355 33.0352C157.131 31.7171 157.539 31.1811 158.572 29.4502L159.507 27.8832Z" fill="white"/>
<path d="M176.311 33.9299C178.34 33.9299 180 36.1427 180 38.2323V49.1558C180 51.1667 178.355 52.797 176.327 52.797H174.49C172.461 52.797 170.816 51.1667 170.816 49.1558V38.2323C170.816 36.2213 172.461 34.5911 174.49 34.5911L176.311 33.9299Z" fill="white"/>
<path d="M36.7347 32.7705C36.7347 30.7596 38.3794 29.1294 40.4082 29.1294H104.694C106.723 29.1294 108.367 30.7596 108.367 32.7705V34.5911C108.367 36.6021 106.723 38.2323 104.694 38.2323H40.4082C38.3794 38.2323 36.7347 36.6021 36.7347 34.5911V32.7705Z" fill="white"/>
<path d="M115.714 4.55146C115.714 2.03776 117.77 0 120.306 0C122.842 0 124.898 2.03776 124.898 4.55146V37.322C124.898 39.8357 122.842 41.8735 120.306 41.8735C117.77 41.8735 115.714 39.8357 115.714 37.322V4.55146Z" fill="white"/>
<path d="M128.571 10.0132C128.571 7.49951 130.627 5.46175 133.163 5.46175C135.699 5.46175 137.755 7.49951 137.755 10.0132V33.6808C137.755 36.1945 135.699 38.2323 133.163 38.2323C130.627 38.2323 128.571 36.1945 128.571 33.6808V10.0132Z" fill="white"/>
<path d="M66.0349 59.5913H62.7831V67.8599H60.975V59.5913H57.7372V58.0497H66.0349V59.5913Z" fill="white"/>
<path d="M71.9234 58.0497C72.7738 58.0497 73.512 58.1898 74.138 58.4701C74.7735 58.7504 75.2594 59.1522 75.5957 59.6754C75.9321 60.1986 76.1003 60.8199 76.1003 61.5393C76.1003 62.2494 75.9321 62.8707 75.5957 63.4032C75.2594 63.9264 74.7735 64.3282 74.138 64.6085C73.512 64.8888 72.7738 65.0289 71.9234 65.0289H69.7089V67.8599H67.8867V58.0497H71.9234ZM71.8393 63.4873C72.6336 63.4873 73.2363 63.3191 73.6475 62.9828C74.0586 62.6465 74.2642 62.1653 74.2642 61.5393C74.2642 60.9133 74.0586 60.4322 73.6475 60.0958C73.2363 59.7595 72.6336 59.5913 71.8393 59.5913H69.7089V63.4873H71.8393Z" fill="white"/>
<path d="M84.1153 65.5895H79.2096L78.2424 67.8599H76.3642L80.7794 58.0497H82.5735L87.0027 67.8599H85.0964L84.1153 65.5895ZM83.5126 64.16L81.6624 59.8716L79.8263 64.16H83.5126Z" fill="white"/>
<path d="M97.5058 58.0497V67.8599H95.6836V63.6555H90.6097V67.8599H88.7876V58.0497H90.6097V62.0999H95.6836V58.0497H97.5058Z" fill="white"/>
<path d="M105.052 68C104.061 68 103.164 67.7851 102.36 67.3553C101.566 66.9162 100.94 66.3136 100.482 65.5475C100.034 64.7813 99.8095 63.9171 99.8095 62.9548C99.8095 61.9924 100.038 61.1282 100.496 60.3621C100.954 59.596 101.58 58.998 102.375 58.5682C103.178 58.1291 104.075 57.9095 105.066 57.9095C105.869 57.9095 106.603 58.0497 107.266 58.33C107.93 58.6103 108.49 59.0167 108.948 59.5492L107.771 60.6564C107.061 59.8903 106.187 59.5072 105.15 59.5072C104.477 59.5072 103.874 59.6567 103.342 59.9557C102.809 60.2453 102.393 60.6517 102.094 61.1749C101.795 61.6981 101.646 62.2914 101.646 62.9548C101.646 63.6181 101.795 64.2114 102.094 64.7346C102.393 65.2578 102.809 65.6689 103.342 65.9679C103.874 66.2575 104.477 66.4023 105.15 66.4023C106.187 66.4023 107.061 66.0146 107.771 65.2391L108.948 66.3603C108.49 66.8929 107.925 67.2993 107.252 67.5796C106.589 67.8599 105.855 68 105.052 68Z" fill="white"/>
<path d="M110.249 63.2351H114.104V64.6926H110.249V63.2351Z" fill="white"/>
<path d="M121.107 68C120.116 68 119.219 67.7851 118.416 67.3553C117.622 66.9162 116.995 66.3136 116.538 65.5475C116.089 64.7813 115.865 63.9171 115.865 62.9548C115.865 61.9924 116.094 61.1282 116.552 60.3621C117.01 59.596 117.636 58.998 118.43 58.5682C119.233 58.1291 120.131 57.9095 121.121 57.9095C121.925 57.9095 122.658 58.0497 123.322 58.33C123.985 58.6103 124.546 59.0167 125.004 59.5492L123.826 60.6564C123.116 59.8903 122.242 59.5072 121.205 59.5072C120.532 59.5072 119.93 59.6567 119.397 59.9557C118.864 60.2453 118.449 60.6517 118.15 61.1749C117.85 61.6981 117.701 62.2914 117.701 62.9548C117.701 63.6181 117.85 64.2114 118.15 64.7346C118.449 65.2578 118.864 65.6689 119.397 65.9679C119.93 66.2575 120.532 66.4023 121.205 66.4023C122.242 66.4023 123.116 66.0146 123.826 65.2391L125.004 66.3603C124.546 66.8929 123.98 67.2993 123.308 67.5796C122.644 67.8599 121.911 68 121.107 68Z" fill="white"/>
<path d="M134.334 66.3323V67.8599H126.976V58.0497H134.138V59.5773H128.798V62.1279H133.535V63.6275H128.798V66.3323H134.334Z" fill="white"/>
<path d="M140.683 58.0497C141.533 58.0497 142.271 58.1898 142.897 58.4701C143.533 58.7504 144.019 59.1522 144.355 59.6754C144.691 60.1986 144.859 60.8199 144.859 61.5393C144.859 62.2494 144.691 62.8707 144.355 63.4032C144.019 63.9264 143.533 64.3282 142.897 64.6085C142.271 64.8888 141.533 65.0289 140.683 65.0289H138.468V67.8599H136.646V58.0497H140.683ZM140.599 63.4873C141.393 63.4873 141.995 63.3191 142.407 62.9828C142.818 62.6465 143.023 62.1653 143.023 61.5393C143.023 60.9133 142.818 60.4322 142.407 60.0958C141.995 59.7595 141.393 59.5913 140.599 59.5913H138.468V63.4873H140.599Z" fill="white"/>
<path d="M153.325 62.7586C153.951 62.9267 154.428 63.2164 154.755 63.6275C155.082 64.0292 155.245 64.5337 155.245 65.141C155.245 66.0006 154.928 66.6686 154.292 67.1451C153.657 67.6216 152.736 67.8599 151.531 67.8599H146.878V58.0497H151.265C152.367 58.0497 153.227 58.2692 153.844 58.7084C154.461 59.1475 154.769 59.7688 154.769 60.5723C154.769 61.0862 154.643 61.53 154.39 61.9037C154.147 62.2774 153.792 62.5624 153.325 62.7586ZM148.672 62.24H151.111C151.699 62.24 152.148 62.1232 152.456 61.8897C152.765 61.6561 152.919 61.3104 152.919 60.8526C152.919 60.3948 152.765 60.0491 152.456 59.8155C152.148 59.5726 151.699 59.4511 151.111 59.4511H148.672V62.24ZM151.475 66.4584C152.765 66.4584 153.409 65.9726 153.409 65.0009C153.409 64.0479 152.765 63.5714 151.475 63.5714H148.672V66.4584H151.475Z" fill="white"/>
<path d="M157.616 58.0497H159.41V65.0149L164.68 58.0497H166.376V67.8599H164.582V60.9086L159.311 67.8599H157.616V58.0497Z" fill="white"/>
<path d="M173.92 68C172.93 68 172.033 67.7851 171.229 67.3553C170.435 66.9162 169.809 66.3136 169.351 65.5475C168.902 64.7813 168.678 63.9171 168.678 62.9548C168.678 61.9924 168.907 61.1282 169.365 60.3621C169.823 59.596 170.449 58.998 171.243 58.5682C172.047 58.1291 172.944 57.9095 173.934 57.9095C174.738 57.9095 175.471 58.0497 176.135 58.33C176.798 58.6103 177.359 59.0167 177.817 59.5492L176.639 60.6564C175.929 59.8903 175.056 59.5072 174.018 59.5072C173.346 59.5072 172.743 59.6567 172.21 59.9557C171.678 60.2453 171.262 60.6517 170.963 61.1749C170.664 61.6981 170.514 62.2914 170.514 62.9548C170.514 63.6181 170.664 64.2114 170.963 64.7346C171.262 65.2578 171.678 65.6689 172.21 65.9679C172.743 66.2575 173.346 66.4023 174.018 66.4023C175.056 66.4023 175.929 66.0146 176.639 65.2391L177.817 66.3603C177.359 66.8929 176.794 67.2993 176.121 67.5796C175.457 67.8599 174.724 68 173.92 68Z" fill="white"/>
</svg>
